<svg width="375" height="150" viewBox="0 0 375 150" fill="none" xmlns="http://www.w3.org/2000/svg">
<rect width="375" height="150" fill="url(#paint0_linear_21_76)" fill-opacity="0.45"/>
<path fill-rule="evenodd" clip-rule="evenodd" d="M106.037 44.1379C114.126 57.5925 138.262 73.9429 143.016 74.3043C158.055 75.4467 179.466 77.9741 198.588 78.6525L199.167 78.6725C205.923 78.8997 215.093 78.9221 226.678 78.74C228.964 76.6928 231.097 75.2365 233.077 74.3712L233.233 74.3043C234.292 73.856 237.024 71.0016 243.905 68.0715C245.798 67.2653 251.395 69.0669 255.309 67.6323L255.5 67.5608C258.661 66.3536 263.874 63.2208 271.139 58.1619C271.095 58.044 271.05 57.9261 271.004 57.8085C271.175 58.096 271.345 58.3843 271.511 58.6741C271.678 58.9629 284.559 89.7221 260.939 113.545C244.832 129.789 202.016 145.094 164.825 136.345C70.2294 115.904 102.082 37.5592 106.037 44.1379Z" fill="#EBD8A9"/>
<path fill-rule="evenodd" clip-rule="evenodd" d="M264.867 91.5136C265.395 90.5461 265.821 89.5477 266.748 88.9155C266.86 88.8395 267.083 88.7437 267.126 88.7867C267.245 88.9048 267.363 89.0912 267.364 89.2514C267.376 90.7477 266.402 91.8645 265.818 93.1282C265.51 93.7949 265.07 94.4013 264.684 95.0312C264.607 95.1568 264.511 95.2749 264.408 95.3797C264.311 95.4779 264.108 95.6397 264.095 95.6269C263.932 95.4685 263.726 95.3018 263.672 95.0994C263.617 94.897 263.695 94.6443 263.76 94.4269C263.991 93.6496 264.229 92.8741 264.491 92.1069C264.561 91.9019 264.722 91.7277 264.867 91.5136Z" fill="white"/>
<path fill-rule="evenodd" clip-rule="evenodd" d="M264.712 89.084C264.637 89.5725 264.636 90.0467 264.528 90.4952C264.366 91.1675 264.165 91.8355 263.914 92.4797C263.623 93.2291 263.282 93.9613 262.921 94.6803C262.683 95.1541 262.387 95.6016 262.086 96.0389C261.98 96.1928 261.778 96.2797 261.621 96.3995C261.287 96.6552 261.203 96.248 261.205 96.1571C261.223 95.3307 261.18 94.5059 261.429 93.6861C261.611 93.0872 261.595 92.4309 261.7 91.8059C261.771 91.3845 261.906 90.9747 261.997 90.5563C262.133 89.9288 262.249 89.2971 262.386 88.6699C262.621 87.6019 262.869 86.544 263.927 85.9269C264.138 85.8035 264.237 85.8043 264.45 85.9429C264.93 86.2557 265.133 86.6168 265.006 87.2016C264.875 87.8112 264.824 88.4387 264.712 89.084Z" fill="white"/>
<path fill-rule="evenodd" clip-rule="evenodd" d="M240.56 108.823C239.64 107.231 238.718 105.622 237.227 104.493C236.611 104.026 235.85 103.682 235.102 103.478C234.415 103.291 233.679 103.345 232.929 103.48C232.011 103.644 231.125 103.843 230.28 104.219C229.076 104.753 228.06 105.558 227.226 106.56C226.009 108.019 225.016 109.557 225.763 111.618C226.043 112.392 227.031 113.005 227.862 112.871C228.363 112.79 228.889 112.852 229.404 112.87C229.839 112.884 230.276 112.97 230.708 112.949C231.456 112.914 232.2 112.788 232.948 112.76C233.882 112.726 234.819 112.752 235.755 112.752C236.088 112.752 236.429 112.799 236.752 112.741C237.316 112.641 237.902 112.551 238.419 112.323C239.695 111.761 241.086 110.628 240.56 108.823Z" fill="white"/>
<path fill-rule="evenodd" clip-rule="evenodd" d="M160.073 111.607C160.073 111.607 162.274 111.81 165.078 110.703C167.882 109.597 168.581 107.587 168.581 107.587C168.581 107.587 167.979 104.704 167.41 104.027C166.812 103.315 165.69 103.278 165.078 103.567C164.506 103.837 163.33 104.075 162.539 105.321C162.123 105.976 162.367 107.217 161.686 109.141C161.431 109.858 160.073 111.607 160.073 111.607Z" fill="white"/>
<path fill-rule="evenodd" clip-rule="evenodd" d="M129.79 109.796C129.79 109.796 136.272 112.07 139.796 112.773C143.32 113.477 149.802 113.788 149.802 113.788C149.802 113.788 155.047 105.657 156.982 100.423C158.917 95.1893 160.361 85.2291 160.361 85.2291C160.361 85.2291 154.991 87.004 153.089 89.7405C151.187 92.4771 152.769 97.5435 149.802 100.423C146.294 103.827 140.885 100.345 136.154 102.561C131.423 104.777 129.79 109.796 129.79 109.796Z" fill="white"/>
<path fill-rule="evenodd" clip-rule="evenodd" d="M152.381 131.193C159.471 131.822 185.13 122.95 190.802 116.837C192.577 114.923 194.2 111.119 192.534 109.252C187.5 103.611 165.632 96.2056 169.962 86.2088C171.409 82.8699 180.374 80.4931 180.374 80.4931C180.374 80.4931 181.948 79.7093 182.164 79.3317C182.379 78.9541 181.485 78.548 181.485 78.548L190.802 78.7032C190.802 78.7032 190.681 81.0184 189.465 81.9448C186.102 84.5061 182.164 84.5061 181.485 88.1976C180.537 93.3531 189.975 100.59 195.029 103.364C207.853 110.403 211.744 117.036 256.557 112.505C250.611 116.225 234.955 125.625 211.631 130.486C173.533 138.427 146.569 130.678 152.381 131.193Z" fill="white"/>
<path fill-rule="evenodd" clip-rule="evenodd" d="M215.83 44.3843C220.032 48.2011 231.965 66.3496 234.134 70.8904C234.249 71.1301 234.713 72.8325 234.713 72.8325C234.713 72.8325 230.022 73.7677 227.375 74.8875C224.728 76.0072 220.03 78.8613 220.03 78.8613C220.03 78.8613 206.509 78.9933 197.672 78.6965C180.872 78.132 160.681 77.8173 148.713 74.8875C146.114 74.2512 138.999 69.3763 136.954 66.3171C134.775 63.0576 138.553 58.5523 142.835 54.332C154.789 42.5509 183.298 14.8363 215.83 44.3843Z" fill="#FFB61D"/>
<path d="M240.465 48.1397C239.815 48.4984 238.702 48.1392 238.092 48.4576C236.859 49.1008 235.628 47.8595 234.338 48.3211C233.515 48.6157 232.707 48.8971 231.85 48.9909C231.249 49.0568 230.663 49.4461 230.067 49.4637C229.24 49.4883 228.56 49.9136 227.912 50.4613C227.309 50.9715 226.765 51.5995 226.174 52.1376C225.962 52.3309 225.698 52.4795 225.444 52.5317C225.066 52.6096 224.142 52.5789 223.757 52.6024C223.082 52.6437 222.407 52.7253 221.732 52.7264C221.056 52.7272 211.598 55.4251 210.514 56.1333C210.435 56.1848 210.348 56.2144 210.265 56.2539C210.31 56.1747 210.346 56.0837 210.4 56.0181C210.919 55.3888 211.382 54.9805 211.978 54.5165C212.766 53.9027 213.643 53.4536 214.514 53.0549C215.201 52.7411 215.935 52.5984 216.652 52.4024C217.289 52.2283 217.928 52.048 218.573 51.9387C219.344 51.8077 220.122 51.704 220.9 51.6741C221.539 51.6493 222.186 51.8392 222.82 51.7733C223.75 51.6763 225.215 51.4899 226.126 51.2285C226.466 51.1312 226.842 50.7981 227.043 50.4275C227.443 49.6917 228 49.2304 228.584 48.9213C229.116 48.6395 229.747 48.6773 230.333 48.5651C230.879 48.4603 231.425 48.3499 231.968 48.2299C232.434 48.1269 232.911 48.0643 233.358 47.8797C233.951 47.6349 234.514 47.2701 235.1 46.9933C235.409 46.8477 235.756 46.832 236.056 46.6659C236.84 46.2325 248.745 43.308 249.942 43.8112C251.139 44.3144 249.301 45.6621 248.745 45.6064C248.179 45.5501 247.602 45.6587 247.031 45.7227C246.386 45.7949 245.734 45.8408 245.101 46.004C244.486 46.1624 243.884 46.4285 243.289 46.6952C242.682 46.9669 242.089 47.2931 241.492 47.6032C241.165 47.7736 240.841 47.9603 240.465 48.1397Z" fill="white"/>
<path d="M209.551 55.4643C209.283 54.5296 210.052 54.0992 210.522 53.444C211.566 51.9896 213.041 51.0635 214.643 50.3331C215.338 50.0163 216.04 49.7016 216.766 49.4704C217.638 49.1925 218.539 49.0048 219.427 48.7773C219.551 48.7456 219.673 48.6883 219.798 48.6781C220.135 48.6515 220.459 48.3733 220.511 48.3403C220.71 48.2107 220.926 48.0125 220.994 47.7952C221.155 47.2827 221.209 46.7373 221.353 46.2187C221.617 45.2733 222.351 44.7387 223.171 44.3411C224.178 43.8533 225.211 43.4176 226.247 42.992C227.55 42.4563 228.868 41.9595 230.176 41.4349C231.394 40.9459 232.585 40.3699 233.833 39.9765C234.443 39.7843 235.157 39.92 235.824 39.9117C235.849 39.9115 235.874 39.9608 235.899 39.9872C235.855 40.0221 235.817 40.0733 235.766 40.0901C234.43 40.5411 233.085 40.9667 231.758 41.4443C230.843 41.7736 229.958 42.1856 229.051 42.5384C228.672 42.6859 228.256 42.7408 227.882 42.8981C227.099 43.228 226.337 43.6088 225.558 43.9475C224.984 44.1965 224.381 44.38 223.818 44.6496C223.056 45.0149 222.256 45.3835 222.006 46.2981C221.912 46.6387 222.044 47.0528 221.915 47.3688C221.735 47.8093 221.475 48.2651 221.127 48.5789C220.41 49.2253 219.494 49.5013 218.562 49.7131C217.994 49.8419 217.445 50.0603 216.873 50.1637C215.722 50.372 214.664 50.8237 213.65 51.3701C212.249 52.1245 210.878 52.9427 210.117 54.3445C209.91 54.7248 209.824 55.1699 209.677 55.5832C209.662 55.6275 209.611 55.6597 209.577 55.6973C209.577 55.6283 209.577 55.5592 209.551 55.4643Z" fill="white"/>
<path d="M208.68 54.9472C208.622 54.6819 208.556 54.4416 208.563 54.2035C208.579 53.7123 208.588 53.2133 208.681 52.733C209.033 50.9133 210.334 49.7712 211.637 48.6163C212.731 47.6451 213.861 46.6944 214.528 45.3341C214.788 44.804 214.753 44.2835 214.739 43.7125C214.706 42.3568 213.962 41.408 213.034 40.6253C212.081 39.8224 211 39.1675 209.95 38.4869C208.637 37.6365 207.52 36.6219 206.807 35.1968C206.381 34.3435 206.593 32.6491 207.298 31.9971C207.468 31.8392 207.738 31.7155 207.965 31.7115C208.225 31.7072 208.351 31.9405 208.29 32.2181C208.277 32.2757 208.249 32.3619 208.207 32.376C207.649 32.5653 207.104 33.9973 207.486 34.54C207.763 34.9323 207.863 35.4691 208.183 35.8064C208.817 36.472 209.534 37.0619 210.243 37.6504C211.431 38.6352 212.673 39.5557 213.827 40.5771C214.691 41.3411 215.31 42.3397 215.556 43.4621C215.68 44.0291 215.569 44.6979 215.299 45.2789C214.749 46.46 213.891 47.3717 212.906 48.2141C211.741 49.2109 210.452 50.1229 209.71 51.5146C209.378 52.1395 209.153 52.8552 209.045 53.5552C208.961 54.1003 209.137 54.6845 209.187 55.2525C209.194 55.3325 209.136 55.4184 209.108 55.5016C209.043 55.452 208.961 55.4141 208.916 55.3501C208.834 55.2325 208.775 55.0997 208.68 54.9472Z" fill="white"/>
<path fill-rule="evenodd" clip-rule="evenodd" d="M196.938 64.5104V78.5771L212.415 79.0813H216.897V65.0875H218.264L212.322 60.9989C212.322 60.9989 212.322 59.4072 212.194 58.2048C211.89 57.5792 210.972 57.4733 210.377 57.3605C209.782 57.2475 208.9 57.1088 208.9 57.5792C208.9 58.0496 208.9 59.4072 208.9 59.4072L204.871 58.7877L196.938 64.5104Z" fill="white"/>
<path fill-rule="evenodd" clip-rule="evenodd" d="M209.71 78.9925L212.415 79.0805L211.615 63.7374L209.949 62.5147L209.71 78.9925Z" fill="#E7EAEE"/>
<path fill-rule="evenodd" clip-rule="evenodd" d="M199.272 88.4373C199.388 88.1736 199.651 87.8661 199.588 87.6555C199.459 87.2216 199.246 86.7307 198.91 86.4544C197.434 85.24 195.864 84.1909 193.928 83.7973C192.903 83.5891 191.975 83.7112 191.077 84.1997C190.411 84.5624 190.355 85.1165 190.93 85.5736C191.24 85.8203 191.55 86.0661 191.867 86.3037C193.215 87.3133 194.709 88.0259 196.34 88.4293C196.957 88.5819 197.594 88.6891 198.227 88.7288C198.552 88.7491 198.889 88.5752 199.272 88.4373Z" fill="white"/>
<path fill-rule="evenodd" clip-rule="evenodd" d="M203.826 59.4749C202.431 59.4395 194.161 65.6981 193.977 65.5925C193.792 65.4869 201.854 59.3981 203.023 58.5853C203.63 58.1637 204.259 58.1861 204.897 58.636C205.784 59.2627 211.282 62.7555 212.022 63.104C212.873 63.5045 217.942 64.6733 217.678 64.996C217.529 65.0813 216.78 65.1485 216.552 65.1181C216.487 65.1096 216.356 65.1683 216.349 65.2117C216.121 66.5696 216.503 77.5488 216.556 78.1013C216.566 78.204 216.671 78.3259 216.765 78.3872C217.15 78.6371 217.574 78.6091 218.015 78.6259L218.088 78.6293C218.863 78.6696 219.565 78.5069 220.22 78.1675C221.075 77.7243 221.892 77.2077 222.721 76.7149C223.593 76.1963 224.454 75.6597 225.329 75.1464C226.539 74.4363 227.859 73.9669 229.169 73.4947C229.963 73.2083 230.807 73.0515 231.637 72.8747C232.355 72.7213 233.086 72.6221 233.811 72.4992L233.827 72.4979L234.538 72.5155C234.435 72.2997 234.341 72.0789 234.226 71.8693C233.829 71.1405 233.404 70.4253 233.026 69.6867C232.58 68.8163 232.205 67.9088 231.74 67.0493C230.695 65.1184 229.624 63.2021 228.546 61.2893C227.522 59.4717 226.477 57.6656 225.438 55.856C225.302 55.6181 225.145 55.3923 225.006 55.1557C224.97 55.0955 224.969 55.0152 224.952 54.9443C225.013 54.9901 225.09 55.0248 225.132 55.0837C225.648 55.7997 226.185 56.5016 226.665 57.2411C228.02 59.3301 229.376 61.4192 230.681 63.54C231.367 64.6565 231.949 65.8384 232.573 66.9933C233.005 67.7923 233.439 68.5904 233.853 69.3992C234.065 69.8131 234.233 70.2493 234.421 70.6752L234.726 71.3728C234.879 71.7213 235.035 72.0685 235.202 72.4099C235.238 72.4832 235.473 72.5315 235.573 72.4899C236.697 72.0219 237.859 71.6163 238.922 71.0328C240.615 70.1037 242.217 69.0101 243.905 68.0717C244.681 67.6403 245.55 67.3251 246.415 67.1211C247.01 66.9808 247.622 66.8763 248.311 67.0371C249.429 67.2979 250.447 67.7843 251.525 68.116C252.256 68.3411 253.014 68.3672 253.805 68.3064C255.321 68.1901 256.478 67.3029 257.762 66.6875C258.612 66.2797 259.433 65.8112 260.264 65.364C262.113 64.3693 263.957 63.3669 265.808 62.376C266.924 61.7787 268.048 61.1971 269.169 60.6085C269.282 60.5491 269.39 60.4755 269.51 60.4347L269.631 60.3931C269.739 60.3576 269.854 60.3285 269.893 60.3667L269.934 60.4088C270.128 60.6131 270.231 60.8307 269.838 61.0272C268.966 61.4637 268.107 61.9259 267.246 62.3843C266.128 62.9795 265.015 63.5851 263.897 64.1797C262.822 64.7512 261.74 65.3109 260.665 65.8827C259.532 66.4851 258.405 67.0984 257.273 67.7013C256.554 68.0848 255.865 68.6 255.096 68.7944C254.397 68.9712 253.692 69.3085 252.881 69.0555L252.797 69.0272C251.799 68.668 250.715 68.5533 249.701 68.2331C248.893 67.9779 248.074 67.8035 247.253 67.8688C246.305 67.944 245.341 68.0963 244.438 68.3848C242.985 68.8485 241.757 69.7491 240.549 70.6667L240.193 70.936C239.164 71.7115 238.11 72.4517 236.838 72.8107C236.51 72.9032 236.185 73.0091 235.865 73.1267C235.841 73.1357 232.268 73.2421 228.417 74.5771C224.762 75.8443 220.817 78.3427 220.827 78.368C221.095 79.0397 238.385 77.8365 238.797 77.8731C239.304 77.9179 239.813 77.9477 240.322 77.9771C240.511 77.988 240.702 77.9696 240.891 77.9808C241.382 78.0099 241.873 78.0515 242.365 78.0805C242.554 78.0915 242.745 78.0731 242.934 78.084C243.442 78.1133 243.951 78.1547 244.459 78.184C244.649 78.1947 244.839 78.1763 245.028 78.1875C245.52 78.2165 246.011 78.2576 246.502 78.2875C246.674 78.2979 246.847 78.2808 247.019 78.2907C247.528 78.32 248.037 78.3589 248.546 78.3885C248.718 78.3987 248.89 78.384 249.062 78.3939C249.588 78.4243 250.113 78.464 250.639 78.4944C250.811 78.5043 250.985 78.4875 251.156 78.4973C251.665 78.5269 252.174 78.5667 252.683 78.5963C252.854 78.6064 253.027 78.5909 253.199 78.6008C253.725 78.6312 254.251 78.6709 254.777 78.7011C254.949 78.7109 255.121 78.7027 255.294 78.7027C255.73 78.7027 256.167 78.6917 256.604 78.7072C256.814 78.7147 257.022 78.7864 257.233 78.8032C257.776 78.8461 258.319 78.8771 258.862 78.908C259.017 78.9168 259.173 78.9019 259.327 78.9109C259.854 78.9416 260.379 78.9805 260.905 79.0115C261.021 79.0181 261.138 79.0157 261.254 79.0139L261.37 79.0128C261.79 79.0128 262.211 78.9909 262.629 79.0173C263.469 79.0709 264.306 79.1611 265.146 79.2165C265.895 79.2659 266.646 79.2864 267.395 79.3237C268.025 79.3549 268.654 79.3944 269.283 79.4259L270.183 79.4717C270.633 79.4944 271.082 79.5149 271.533 79.5267C272.375 79.5491 273.218 79.5459 274.06 79.5603C274.11 79.5611 274.197 79.6149 274.2 79.6501C274.223 79.9024 274.229 80.1563 274.241 80.4099C274.107 80.3923 273.974 80.3651 273.839 80.3584C273.084 80.3208 272.327 80.3035 271.572 80.2488C270.938 80.2029 270.309 80.0875 269.675 80.0544C269.01 80.02 268.342 80.0525 267.675 80.0421C267.534 80.0397 267.395 79.9611 267.253 79.9461L266.33 79.8459C265.92 79.8021 265.509 79.7635 265.098 79.7443C264.364 79.7096 263.627 79.7483 262.891 79.7307C262.615 79.724 262.342 79.6376 262.066 79.6104C261.847 79.5888 261.624 79.6099 261.403 79.5973C261.163 79.5835 260.924 79.5515 260.685 79.5301C259.897 79.4603 259.111 79.3629 258.322 79.3309C257.467 79.2963 256.61 79.3355 255.754 79.3171C255.41 79.3096 255.067 79.2331 254.723 79.1915C254.493 79.1635 254.262 79.1355 254.03 79.1173C253.539 79.0792 253.048 79.0443 252.556 79.0144C252.385 79.004 252.211 79.0208 252.039 79.0115C251.479 78.9808 250.919 78.9307 250.358 78.9149C250.076 78.9072 249.792 78.9819 249.51 78.9768C249.047 78.9685 248.585 78.9189 248.123 78.8997C247.821 78.8872 247.518 78.9112 247.216 78.8944C246.685 78.8645 246.154 78.8072 245.622 78.7784C245.299 78.7611 244.973 78.7824 244.649 78.7741C244.406 78.768 244.162 78.7272 243.919 78.7317C243.766 78.7344 243.615 78.7923 243.463 78.8253C243.549 78.8984 243.633 78.9731 243.721 79.0445C244.661 79.8125 245.593 80.5899 246.543 81.3451C247.615 82.1979 248.71 83.0229 249.784 83.8747C250.721 84.6181 251.641 85.3832 252.571 86.1355C252.879 86.3848 253.195 86.6243 253.508 86.8675C253.699 87.0157 253.673 87.0947 253.47 87.1741L253.439 87.1853C252.75 87.4344 252.081 87.7472 251.38 87.9509C250.758 88.132 250.101 88.1936 249.462 88.3203C248.895 88.4328 248.336 88.5845 247.767 88.6768C247.407 88.7352 247.033 88.7085 246.667 88.7341C246.33 88.7579 245.992 88.7877 245.658 88.8384C245.153 88.9152 244.654 89.0355 244.146 89.0933C243.714 89.1429 243.274 89.1221 242.838 89.148C242.467 89.1701 242.095 89.2003 241.726 89.2523C241.187 89.3283 240.653 89.4512 240.112 89.5088C239.645 89.5587 239.169 89.5277 238.7 89.5637C238.2 89.6021 237.704 89.6904 237.204 89.7333C236.539 89.7907 235.873 89.8203 235.208 89.8725C235.031 89.8861 234.858 89.9595 234.682 89.9691C233.892 90.012 233.101 90.036 232.311 90.0792C232.049 90.0936 231.789 90.1592 231.526 90.1768C230.881 90.2197 230.234 90.2653 229.587 90.2797C227.649 90.3229 225.71 90.3659 223.771 90.3795C222.958 90.3853 222.143 90.268 221.333 90.2979C220.625 90.3237 219.938 90.3016 219.235 90.1997C218.582 90.1051 217.902 90.2123 217.238 90.1693C216.696 90.1341 216.16 90.0011 215.619 89.9259C214.976 89.8365 214.329 89.7685 213.686 89.6749C213.604 89.6632 213.462 89.5251 213.474 89.4947L213.581 89.2221C213.922 88.3611 214.298 87.5208 214.907 86.7939C215.658 85.8981 216.55 85.1915 217.554 84.6171L217.691 84.5395C218.059 84.3352 218.424 84.1184 218.807 83.9464L219.383 83.6861C219.832 83.4848 220.285 83.2917 220.752 83.1499C221.503 82.9216 222.288 82.8029 223.057 82.6304C223.492 82.5325 223.921 82.4024 224.359 82.3219C225.009 82.2021 225.667 82.1232 226.318 82.008C226.807 81.9213 227.294 81.8179 227.776 81.6979C228.415 81.5387 229.053 81.3733 229.682 81.1805C230.998 80.7781 232.287 80.312 233.406 79.4752C233.464 79.4312 233.533 79.4011 233.598 79.3645C233.514 79.3163 233.436 79.2515 233.346 79.2245C233.267 79.2008 233.175 79.2197 233.089 79.2197L232.021 79.2208C231.842 79.2205 231.664 79.2203 231.486 79.2192L222.849 79.1661C219.969 79.1488 217.09 79.1328 214.211 79.1219C213.036 79.1173 211.861 79.2157 210.686 79.2123C209.081 79.2075 207.475 79.1547 205.87 79.1149C204.764 79.0875 203.658 79.0307 202.552 79.0197C201.998 79.0144 201.443 79.1152 200.889 79.1093C199.645 79.0965 198.402 79.0515 197.158 79.0112C196.345 78.9848 195.533 78.9205 194.719 78.9168C194.079 78.9141 193.439 79.0021 192.798 79.0053C192.278 79.0077 191.758 78.9219 191.238 78.9275C191.13 78.9285 190.907 79.2115 190.935 79.2752C191.281 80.0437 190.859 80.6587 190.487 81.2139C189.754 82.3093 188.702 83.0037 187.425 83.3856C186.689 83.6059 185.975 83.9003 185.258 84.1824L184.989 84.2875C183.61 84.8211 182.506 85.6517 182.101 87.1547C181.895 87.9149 181.771 88.6701 181.887 89.4939C182.142 91.3107 183.034 92.76 184.215 94.0733L184.302 94.1691C184.946 94.8739 185.574 95.6021 186.282 96.2389C187.727 97.5384 189.185 98.8291 190.706 100.037C192.193 101.218 193.729 102.346 195.31 103.397C196.673 104.304 198.119 105.087 199.546 105.893C200.464 106.412 201.401 106.9 202.353 107.353C203.152 107.734 203.989 108.035 204.801 108.39C205.519 108.703 206.214 109.074 206.942 109.358C207.95 109.751 208.974 110.105 210.002 110.439C210.931 110.742 211.87 111.019 212.815 111.265C213.624 111.475 214.451 111.613 215.266 111.803C216.317 112.048 217.361 112.329 218.414 112.563C219.214 112.741 220.022 112.882 220.83 113.018C221.559 113.14 222.293 113.243 223.026 113.337C223.662 113.419 224.301 113.49 224.94 113.543C225.557 113.594 226.177 113.603 226.793 113.654C227.427 113.706 228.057 113.801 228.691 113.851C228.991 113.875 229.296 113.829 229.599 113.83C230.273 113.834 230.947 113.837 231.621 113.861C232.038 113.875 232.453 113.951 232.87 113.956C234.042 113.969 235.214 113.96 236.386 113.96C236.96 113.96 237.536 113.987 238.109 113.953C238.737 113.916 239.376 113.709 239.985 113.783C240.727 113.873 241.421 113.764 242.135 113.658C242.462 113.61 242.803 113.676 243.134 113.645C244.086 113.556 245.035 113.422 245.989 113.346C246.817 113.281 247.65 113.288 248.479 113.23C248.907 113.2 249.329 113.085 249.757 113.034C250.183 112.982 250.614 112.975 251.041 112.923C251.49 112.867 251.94 112.802 252.382 112.706C253.26 112.517 254.141 112.329 255.006 112.09C255.639 111.915 256.25 111.659 256.873 111.443C256.911 111.429 256.986 111.439 257.003 111.465C257.024 111.498 257.024 111.578 256.999 111.604C256.626 111.986 256.268 112.388 255.858 112.727C255.735 112.829 255.543 112.858 255.356 112.878L255.193 112.894C254.66 112.953 254.12 112.955 253.593 113.038C253.057 113.123 252.537 113.307 252.002 113.392C251.459 113.479 250.905 113.495 250.357 113.548C250.089 113.574 249.821 113.61 249.555 113.651C248.913 113.751 248.274 113.874 247.631 113.956C246.92 114.045 246.205 114.093 245.493 114.169C245.077 114.213 244.665 114.29 244.249 114.327C243.553 114.388 242.853 114.424 242.156 114.48C241.962 114.496 241.772 114.559 241.578 114.578L240.809 114.654C240.295 114.704 239.782 114.751 239.268 114.782C238.747 114.813 238.222 114.776 237.699 114.79C236.697 114.816 235.694 114.885 234.692 114.883C233.546 114.881 232.399 114.838 231.254 114.782C230.379 114.74 229.507 114.631 228.633 114.587C228.002 114.555 227.367 114.607 226.737 114.573C226.223 114.544 225.715 114.432 225.202 114.377C224.741 114.327 224.276 114.31 223.814 114.269C223.528 114.244 223.242 114.215 222.961 114.164C222.622 114.102 222.289 114.01 221.952 113.938C221.645 113.872 221.337 113.807 221.027 113.755C220.462 113.66 219.896 113.565 219.328 113.487C218.867 113.424 218.399 113.41 217.942 113.33C217.558 113.263 217.186 113.131 216.809 113.03L215.019 112.549C214.72 112.47 214.422 112.391 214.123 112.313C213.292 112.095 212.448 111.922 211.629 111.668C210.421 111.293 209.229 110.863 208.03 110.458C207.093 110.14 206.145 109.849 205.22 109.498L204.817 109.344C204.145 109.085 203.476 108.811 202.85 108.465L200.718 107.293C198.943 106.315 197.174 105.325 195.456 104.254C193.641 103.123 191.954 101.784 190.231 100.509C188.327 99.1013 186.663 97.4227 185.034 95.7165L184.785 95.4531C183.625 94.2184 182.543 92.9123 181.819 91.3584L181.742 91.1909C181.482 90.6048 181.132 89.988 181.117 89.3779C181.084 88.0123 181.338 86.6971 182.359 85.6277C183.169 84.78 184.151 84.2216 185.158 83.6952L185.817 83.3536C186.998 82.7411 188.189 82.1456 189.337 81.4776C189.745 81.2405 190.102 80.8531 190.372 80.4592C190.669 80.0277 190.412 79.4493 189.89 79.3341C188.993 79.136 188.086 78.9568 187.173 78.8613C185.915 78.7293 184.647 78.6781 183.383 78.6069C183.273 78.6008 183.101 78.6741 183.053 78.7624C182.379 79.9845 181.325 80.7435 180.039 81.1728C179.044 81.5053 178.008 81.7152 177.001 82.0179C176.248 82.2443 175.527 82.5811 174.768 82.7792C173.751 83.0445 172.864 83.5643 172.079 84.2013L171.855 84.3864C170.89 85.1963 170.027 86.1184 169.785 87.4624C169.606 88.4637 169.656 89.4117 169.955 90.4117C170.39 91.8619 171.284 92.9595 172.267 94.0227C172.758 94.5539 173.281 95.0565 173.8 95.56C175.406 97.1163 177.143 98.508 178.961 99.8144C181.103 101.354 183.365 102.67 185.707 103.876L186.259 104.158C187.609 104.845 188.967 105.531 190.152 106.51C191.102 107.296 191.965 108.159 192.534 109.252L192.721 109.613C193.017 110.194 193.296 110.811 193.313 111.413L193.322 111.761C193.335 112.309 193.325 112.883 193.157 113.461C192.567 115.476 191.256 116.952 189.789 118.31C188.286 119.703 186.606 120.875 184.808 121.87C184.075 122.275 183.373 122.741 182.622 123.106C181.903 123.455 181.134 123.702 180.394 124.01C179.546 124.362 178.721 124.776 177.857 125.082C176.632 125.515 175.38 125.87 174.141 126.266C173.35 126.518 172.57 126.807 171.772 127.037C170.794 127.32 169.8 127.549 168.818 127.819C168.176 127.995 167.547 128.226 166.902 128.393C166.094 128.601 165.272 128.758 164.461 128.955C163.679 129.145 162.907 129.376 162.123 129.554C161.132 129.778 160.133 129.971 159.135 130.168C158.246 130.343 157.354 130.508 156.463 130.67C155.67 130.814 154.876 130.947 154.083 131.087C153.869 131.125 153.655 131.201 153.444 131.193C153.354 131.19 153.278 131.006 153.182 130.919C153.046 130.797 152.897 130.69 152.753 130.576C152.951 130.552 153.153 130.541 153.348 130.501C153.998 130.367 154.644 130.21 155.295 130.084C156.059 129.937 156.83 129.826 157.593 129.671C158.144 129.559 158.683 129.385 159.234 129.267C159.955 129.113 160.687 129.005 161.406 128.843C161.932 128.726 162.443 128.543 162.967 128.411C163.349 128.314 163.746 128.271 164.127 128.171C164.762 128.003 165.387 127.794 166.023 127.63C166.659 127.467 167.309 127.355 167.945 127.19C168.612 127.017 169.265 126.792 169.931 126.617C170.695 126.415 171.471 126.261 172.233 126.051C172.682 125.927 173.107 125.717 173.553 125.58C174.32 125.346 175.106 125.17 175.864 124.913C176.966 124.538 178.051 124.117 179.14 123.708L179.881 123.43C180.375 123.243 180.867 123.053 181.353 122.849C183.729 121.85 185.982 120.634 187.984 118.995L188.459 118.606C189.091 118.085 189.718 117.554 190.297 116.978C191.134 116.146 191.859 115.2 192.267 114.079C192.507 113.421 192.716 112.715 192.734 112.025C192.751 111.381 192.566 110.735 192.314 110.086C191.952 109.151 191.415 108.389 190.671 107.815C189.661 107.034 188.566 106.356 187.47 105.696C185.019 104.219 182.489 102.864 180.098 101.297C178.491 100.242 177.022 98.9715 175.53 97.7451L175.25 97.5155C174.272 96.7171 173.307 95.8893 172.423 94.9896C171.202 93.7464 170.044 92.452 169.377 90.7779C169.047 89.9488 168.939 89.1472 168.976 88.2752C169.057 86.3467 170.153 85.0448 171.52 83.8568C172.821 82.7267 174.357 82.096 175.966 81.6029C176.958 81.2989 177.97 81.0587 178.966 80.7669C179.826 80.5152 180.687 80.2597 181.524 79.9445C181.783 79.8467 182.073 79.5851 182.164 79.332C182.352 78.8048 182.057 78.5501 181.485 78.5483C181.013 78.5467 180.543 78.4349 180.07 78.3957C179.487 78.3475 178.901 78.3435 178.32 78.2832C177.794 78.2285 177.276 78.0987 176.75 78.0477C176.215 77.9957 175.675 78.0024 175.138 77.9757C175.044 77.9712 174.953 77.9157 174.858 77.9083C174.227 77.8592 173.595 77.8315 172.966 77.7677C172.404 77.7109 171.848 77.5992 171.286 77.5445C170.77 77.4944 170.25 77.488 169.732 77.4613C169.666 77.4579 169.6 77.4475 169.534 77.4413C168.876 77.3792 168.216 77.3293 167.56 77.2515C167.001 77.1848 166.448 77.064 165.888 77.008C165.387 76.9581 164.881 76.9653 164.378 76.9435C164.297 76.94 164.217 76.9112 164.136 76.9043C163.475 76.8475 162.813 76.8027 162.153 76.7352C161.623 76.6808 161.097 76.5869 160.566 76.5352C160.036 76.4835 159.503 76.4672 158.972 76.4243C158.846 76.4141 158.726 76.3371 158.601 76.3283C157.983 76.2856 157.363 76.2773 156.748 76.2147C156.206 76.1595 155.672 76.0243 155.13 75.9693C154.629 75.9189 154.121 75.9333 153.617 75.9067C153.51 75.9011 153.406 75.8187 153.298 75.8115C152.663 75.7691 152.027 75.7427 151.393 75.7016C151.202 75.6893 151.013 75.6379 150.822 75.6259C150.782 75.6232 150.737 75.7157 150.694 75.7645L150.785 75.7947C150.8 75.7995 150.815 75.8037 150.831 75.8069C151.363 75.9237 151.9 76.0227 152.427 76.1595C153.053 76.3221 153.681 76.4888 154.29 76.7037C156.442 77.4627 158.471 78.4579 159.928 80.2789C160.479 80.968 160.835 81.824 161.218 82.6325C161.42 83.0565 161.57 83.5376 161.6 84.0021C161.647 84.7275 161.574 85.4611 161.548 86.1909C161.531 86.6576 161.532 87.1269 161.478 87.5896C161.427 88.0373 161.322 88.4792 161.23 88.9216L160.979 90.1411C160.853 90.7507 160.723 91.3597 160.584 91.9661C160.474 92.4432 160.282 92.9008 160.161 93.3757C160.037 93.8611 159.967 94.3605 159.847 94.8472C159.709 95.4093 159.534 95.9624 159.388 96.5227C159.228 97.1376 159.096 97.76 158.926 98.3717L158.826 98.7304C158.723 99.0888 158.614 99.4456 158.478 99.7901L158.407 99.9613C158.309 100.188 158.347 100.198 158.504 100.208L158.555 100.212C159.494 100.279 160.44 100.307 161.37 100.446C162.06 100.55 162.728 100.799 163.405 100.988C163.946 101.139 164.485 101.295 165.025 101.45C165.07 101.463 165.114 101.483 165.159 101.5C165.115 101.518 165.072 101.55 165.028 101.551C164.603 101.554 164.174 101.59 163.753 101.545C163.063 101.47 162.371 101.376 161.694 101.227C161.209 101.121 160.753 100.89 160.271 100.76C160.041 100.698 159.779 100.713 159.538 100.744L159.197 100.787C158.799 100.839 158.401 100.897 158.018 101.005C157.389 101.182 157.083 101.711 156.803 102.236L156.711 102.41C155.914 103.908 155.147 105.422 154.359 106.924C153.473 108.611 152.576 110.293 151.686 111.978L151.614 112.118C151.297 112.752 151.05 113.44 150.37 113.804C150.226 113.881 150.022 113.842 149.845 113.857C149.862 113.724 149.839 113.569 149.9 113.462C150.549 112.316 151.212 111.178 151.868 110.037C152.467 108.993 153.088 107.96 153.654 106.898C154.517 105.277 155.379 103.653 156.17 101.995C156.778 100.722 157.289 99.4011 157.819 98.0915L158.153 97.2704C158.541 96.312 158.923 95.3507 159.254 94.3723C159.634 93.2437 159.914 92.0803 160.22 90.9275C160.403 90.2416 160.61 89.5541 160.701 88.8536L160.762 88.3832C160.893 87.3624 161.013 86.3341 160.994 85.3125C160.977 84.4213 160.799 83.4901 160.483 82.6565C159.801 80.8592 158.54 79.4936 156.898 78.5003C155.816 77.8461 154.686 77.3019 153.431 77.0344C152.729 76.8848 152.058 76.5949 151.356 76.4421C150.766 76.3133 150.153 76.2416 149.549 76.2331C148.696 76.2208 147.842 76.2997 146.989 76.3213C146.357 76.3373 145.723 76.3005 145.093 76.3336C144.717 76.3533 144.345 76.4624 143.971 76.5315C143.411 76.6347 142.842 76.7083 142.29 76.8477C141.144 77.1373 139.979 77.3869 138.87 77.7867C136.019 78.8149 133.345 80.2139 130.86 81.9472C129.177 83.1213 127.605 84.4445 126.217 85.9635C124.725 87.5971 123.442 89.3835 122.57 91.4299C122.231 92.2253 121.962 93.0541 121.713 93.8832C121.537 94.4709 121.374 95.0811 121.339 95.6888C121.296 96.4515 121.395 97.2216 121.422 97.9891C121.435 98.3795 121.397 98.7731 121.432 99.1611C121.465 99.5267 121.534 99.8947 121.638 100.247C121.784 100.746 121.97 101.235 122.149 101.724C123.134 104.422 124.82 106.521 127.427 107.8C128.017 108.09 128.657 108.302 129.295 108.465C129.725 108.574 130.115 108.45 130.372 107.974C131.384 106.097 132.713 104.481 134.516 103.311C135.431 102.717 136.395 102.197 137.345 101.659C138.138 101.21 139.003 100.979 139.897 100.822C140.445 100.726 140.976 100.489 141.526 100.445C142.147 100.394 142.779 100.488 143.407 100.519L143.562 100.519C144.519 100.553 145.478 100.645 146.432 100.606C147.3 100.57 148.139 100.406 148.98 100.051C150.194 99.5384 150.808 98.6693 151.118 97.4947L151.311 96.7293C151.425 96.2765 151.533 95.8221 151.602 95.3624C151.677 94.8635 151.574 94.3387 151.642 93.8373C151.736 93.1371 151.871 92.4355 152.07 91.7581C152.221 91.2459 152.473 90.764 152.683 90.2683L152.751 90.1024C153.18 89.0197 153.92 88.1448 154.727 87.3536C155.683 86.4179 156.772 85.6405 158.073 85.2128C158.582 85.0453 159.075 84.8291 159.581 84.6536C159.658 84.6269 159.77 84.7013 159.865 84.7291L159.753 84.8032C159.734 84.8155 159.715 84.8272 159.696 84.8384L159.353 85.0381C157.585 86.0712 155.846 87.1475 154.483 88.7187L154.347 88.8765C153.826 89.4832 153.336 90.1149 153.138 90.9339C153.002 91.4925 152.693 92.0152 152.601 92.5768C152.477 93.3211 152.493 94.0877 152.439 94.844C152.428 95.0035 152.362 95.1587 152.341 95.3187C152.262 95.9365 152.281 96.5837 152.098 97.1685C151.709 98.4176 151.058 99.532 149.872 100.199C149.231 100.559 148.557 100.915 147.853 101.093C147.223 101.253 146.543 101.231 145.879 101.236L145.737 101.237C144.456 101.256 143.175 101.233 141.894 101.245C140.227 101.262 138.585 101.504 137.073 102.212C135.311 103.038 133.74 104.147 132.506 105.703C131.704 106.716 130.977 107.759 130.59 108.997C130.428 109.515 129.997 109.412 129.731 109.365L129.458 109.314C128.819 109.193 128.172 109.038 127.602 108.753C126.687 108.297 125.791 107.754 124.998 107.112C123.618 105.995 122.479 104.633 121.791 102.981C121.345 101.91 120.975 100.787 120.75 99.6523C120.594 98.8653 120.725 98.0264 120.697 97.2093L120.69 97.0464C120.64 96.248 120.773 95.4864 120.963 94.7261L121 94.5835C121.252 93.6123 121.406 92.6037 121.771 91.6779C122.108 90.8251 122.617 90.0381 123.085 89.2395L123.185 89.068C124.146 87.3992 125.373 85.9328 126.754 84.6048C128.541 82.8861 130.527 81.4173 132.661 80.1523L133.53 79.6347C134.11 79.2909 134.695 78.9539 135.296 78.6512C135.977 78.3088 136.696 78.0403 137.41 77.7645L137.647 77.672C138.266 77.4299 138.89 77.1984 139.523 76.9984C140.399 76.7216 141.282 76.4669 142.168 76.2251C142.791 76.0552 143.417 75.8875 144.052 75.7813C144.825 75.6525 145.609 75.6 146.385 75.4939C147.02 75.4072 147.65 75.2912 148.282 75.1856C148.325 75.1784 148.365 75.1499 148.406 75.1312C148.361 75.1155 148.315 75.0832 148.271 75.0864C147.837 75.1165 147.402 75.1893 146.97 75.1789C146.247 75.1619 145.526 75.0949 144.805 75.044C144.658 75.0336 144.513 74.9845 144.367 74.9835C143.568 74.9771 142.769 74.9923 141.971 74.976C141.502 74.9661 141.035 74.8915 140.566 74.8816C139.785 74.8651 139.003 74.8891 138.222 74.8725C137.754 74.8627 137.286 74.7883 136.817 74.7781C136.206 74.7648 135.595 74.7699 134.983 74.7725L134.525 74.7736C133.761 74.7736 132.995 74.8003 132.233 74.7653C131.588 74.736 130.947 74.6075 130.302 74.5771C129.888 74.5573 129.469 74.6707 129.053 74.6627C128.311 74.648 127.571 74.5755 126.83 74.5485C126.391 74.5328 125.949 74.5789 125.51 74.5605C124.771 74.5299 124.034 74.4717 123.296 74.4208C123.149 74.4107 123.003 74.3637 122.856 74.3629C121.954 74.3573 121.052 74.3712 120.15 74.3555C119.682 74.3472 119.214 74.2709 118.746 74.2611C117.947 74.2448 117.149 74.2565 116.35 74.2565L114.718 74.2568C114.446 74.2571 114.174 74.2579 113.902 74.2589C113.826 74.2595 113.749 74.2931 113.672 74.3112L113.815 74.3832C113.839 74.3955 113.862 74.408 113.885 74.4213C115.537 75.3731 117.037 76.5211 118.323 77.9325C119.183 78.8771 119.97 79.88 120.441 81.0861C120.662 81.6507 120.88 82.2232 121.015 82.8115C121.097 83.1675 120.982 83.5643 121.019 83.9365C121.068 84.4285 120.977 84.8883 120.801 85.3336C120.257 86.7069 119.333 87.7493 118.079 88.5339C117.23 89.0643 116.342 89.48 115.365 89.6592C114.603 89.7989 113.824 89.8728 113.048 89.9101C112.357 89.9435 111.657 89.9277 110.968 89.8568C110.38 89.796 109.806 89.6123 109.221 89.5091C108.594 89.3987 107.961 89.3317 107.335 89.2211C106.934 89.1501 106.544 89.0176 106.144 88.9421C105.303 88.784 104.455 88.6584 103.616 88.4933C103.204 88.4123 102.804 88.2683 102.397 88.1629L102.19 88.1091C102.051 88.0739 101.912 88.0419 101.772 88.0248L101.667 88.0152C101.326 87.9939 101.123 87.7019 101.268 87.3768C101.275 87.3611 101.368 87.3757 101.418 87.3891C101.842 87.5011 102.265 87.6197 102.69 87.7293L103.727 87.9968C104.073 88.0848 104.42 88.1715 104.767 88.2533C105.627 88.456 106.489 88.6555 107.356 88.8309C107.877 88.9363 108.402 89.0213 108.929 89.0973L109.657 89.1997C110.139 89.2669 110.623 89.3288 111.107 89.3408C111.769 89.3573 112.434 89.2733 113.098 89.2523C113.609 89.236 114.122 89.2741 114.632 89.2403C114.974 89.2173 115.326 89.1525 115.647 89.0339C116.416 88.7493 117.18 88.4472 117.925 88.1051C118.831 87.6883 119.498 86.9523 120.126 86.2147C120.346 85.956 120.352 85.4792 120.36 85.1C120.362 85.0048 120.003 84.8613 119.793 84.8099C118.877 84.5859 117.947 84.412 117.035 84.1717C116.31 83.9808 115.608 83.7077 114.889 83.4941C114.357 83.336 113.81 83.2275 113.277 83.0736C112.476 82.8424 112 82.1667 112.062 81.3875C112.063 81.3763 112.027 81.3603 112.029 81.3515C112.149 80.8277 111.907 80.7037 111.269 80.828C110.703 80.9384 110.113 80.9267 109.535 80.9795C109.235 81.0072 108.933 81.0408 108.638 81.1021C107.925 81.2501 107.222 81.5096 106.505 81.5496C105.735 81.5925 104.954 81.4117 104.331 80.8856C103.687 80.3421 103.066 79.7717 102.44 79.2067C101.974 78.7859 101.517 78.3557 101.057 77.9275C100.986 77.8608 100.925 77.7821 100.86 77.7091C100.988 77.7064 101.157 77.6493 101.236 77.7101C101.773 78.1227 102.351 78.5048 102.799 79.0019L103.129 79.3699C103.684 79.9797 104.265 80.5515 105.074 80.7792C105.717 80.96 106.424 80.9808 107.098 80.9595C107.736 80.9392 108.375 80.7952 109.004 80.6589C109.4 80.5728 109.795 80.4536 110.171 80.2995L110.311 80.24C111.029 79.9243 111.846 79.9792 112.406 80.5181L112.597 80.7117C112.783 80.9032 112.966 81.1293 112.908 81.4464L112.897 81.4971C112.876 81.5792 112.886 81.6763 112.845 81.7445L112.742 81.9184C112.568 82.22 112.605 82.2645 112.989 82.3853L113.115 82.4243C113.911 82.668 114.702 82.9291 115.506 83.1427C116.386 83.3765 117.282 83.5459 118.162 83.7789C118.784 83.9435 119.391 84.1635 120.002 84.3656C120.254 84.4488 120.572 84.1541 120.593 83.7728C120.613 83.4003 120.666 83.0091 120.581 82.656C120.459 82.1541 120.295 81.6363 120.026 81.2013C118.882 79.352 117.557 77.6344 115.935 76.1789C114.93 75.2765 111.902 73.6051 109.527 73.1061C107.152 72.6072 103.418 72.8888 102.69 73.3123C101.962 73.7357 100.87 74.2237 100.384 74.3525C100.342 74.3637 100.246 74.3115 100.233 74.2707C100.095 73.8128 100.433 73.5976 100.74 73.4389C101.463 73.0645 102.205 72.7213 102.954 72.4003C103.941 71.9768 105.016 71.9221 106.06 71.8043C106.627 71.74 107.23 71.9605 107.812 72.0739C108.388 72.1859 108.965 72.2984 109.527 72.4613C109.83 72.5491 110.103 72.7405 110.388 72.8888C111.52 73.4773 112.611 73.4515 113.7 72.7453C114.045 72.5221 114.492 72.4648 114.865 72.2773C116.497 71.4571 118.12 70.62 119.744 69.7837C121.325 68.9688 122.903 68.1475 124.483 67.3296C124.684 67.2256 124.892 67.1333 125.085 67.0165C125.117 66.9971 125.119 66.8387 125.083 66.8104C124.331 66.2195 123.58 65.6267 122.812 65.0568C121.272 63.9141 119.699 62.8144 118.184 61.6389C117.358 60.9973 116.579 60.2797 115.857 59.5216C114.268 57.852 112.759 56.1056 111.16 54.4464C109.758 52.9925 108.291 51.6 106.812 50.2248C106.65 50.0744 106.093 50.0901 105.927 50.2477C105.126 51.0064 104.395 51.8397 103.641 52.6483C103.562 52.7331 103.5 52.8344 103.418 52.916C103.371 52.9632 103.299 52.9861 103.238 53.0203C103.234 52.9528 103.216 52.8824 103.229 52.8184C103.328 52.3261 103.338 51.7845 103.564 51.3581C103.788 50.9347 105.434 49.2187 106.266 49.2187C107.098 49.2187 114.511 56.9725 114.511 56.9725C115.636 58.1968 116.771 59.412 117.956 60.5752C119.787 62.3728 121.745 64.0389 123.875 65.4869C124.873 66.1659 125.989 66.4904 127.185 66.3808C127.756 66.3283 128.302 66.0373 128.874 65.9445C129.423 65.8552 129.991 65.8859 130.551 65.8571C131.259 65.8208 131.925 66.0152 132.604 66.1805C133.424 66.38 134.203 66.6627 134.967 67.0149C136.898 67.9056 138.55 69.2256 140.291 70.4131C141.679 71.3597 143.092 72.2792 144.553 73.1061C145.365 73.5656 146.28 73.8704 147.182 74.1352C147.95 74.3605 148.764 74.4261 149.557 74.5685C149.801 74.6125 150.039 74.6872 150.282 74.7307L151.106 74.8781C151.518 74.9509 151.93 75.0208 152.344 75.08C153.178 75.1992 154.016 75.2939 154.853 75.3931C155.758 75.5005 156.663 75.6021 157.569 75.7037C158.207 75.7752 158.845 75.8413 159.483 75.9112C160.104 75.9792 160.724 76.0699 161.346 76.1125C162.158 76.1683 162.974 76.1699 163.786 76.2275C164.265 76.2616 164.738 76.3787 165.218 76.4229C165.817 76.4781 166.419 76.4923 167.019 76.5349C167.145 76.544 167.265 76.6229 167.39 76.6309C168.059 76.6733 168.732 76.6763 169.398 76.7461C170.003 76.8096 170.598 76.9816 171.204 77.0317C171.831 77.0835 172.466 77.0411 173.098 77.0528C173.222 77.0552 173.343 77.1411 173.469 77.1477C174.258 77.1899 175.049 77.2168 175.839 77.2589C175.964 77.2656 176.084 77.3413 176.21 77.3555C176.876 77.4307 177.542 77.5245 178.21 77.5576C178.91 77.5923 179.612 77.5592 180.313 77.5699C180.471 77.5725 180.627 77.6501 180.787 77.6659C181.54 77.7411 182.291 77.8368 183.046 77.8675C183.901 77.9021 184.758 77.8683 185.614 77.8803C185.842 77.8832 186.067 77.9579 186.295 77.9765L187.384 78.0667C187.929 78.1107 188.474 78.1512 189.019 78.18C189.592 78.2101 190.168 78.1736 190.743 78.1883C191.717 78.2131 192.69 78.2624 193.664 78.2861C194.29 78.3013 194.918 78.3056 195.542 78.2741C195.656 78.2683 195.849 78.0688 195.852 77.9547C195.862 77.5909 196.104 65.9976 196.08 65.6491C196.076 65.5856 196.136 65.5176 196.166 65.4517C196.205 65.5093 196.272 65.5645 196.278 65.6251C196.32 66.1216 196.558 77.2784 196.559 78.18C196.559 78.2165 196.751 78.2877 196.851 78.2829C197.286 78.2627 210.464 78.3448 211.081 78.3029C211.327 78.2864 211.515 78.2147 211.486 77.8899C211.434 77.2853 211.479 63.7384 211.479 63.7384C211.479 63.7384 205.657 59.5216 203.826 59.4749ZM237.624 78.7237C236.983 78.8061 236.369 79.1384 235.729 79.1925C234.904 79.2621 234.24 79.6864 233.528 79.9923C232.395 80.4784 231.317 81.0869 230.189 81.5843C229.695 81.8021 229.134 81.8661 228.608 82.0147C228.374 82.0808 227.789 82.2181 227.758 82.2232L227.063 82.3384C226.715 82.3968 226.369 82.4587 226.024 82.5317C225.166 82.7141 224.31 82.9128 223.457 83.1176C222.751 83.2867 222.052 83.4805 221.347 83.6488L220.923 83.7464C219.647 84.028 218.457 84.5211 217.367 85.2245C216.122 86.028 215.029 86.9992 214.371 88.3736C214.126 88.8851 214.256 89.1824 214.766 89.2493C214.918 89.2693 215.069 89.2963 215.221 89.3179C215.552 89.3645 215.883 89.4243 216.216 89.4525C216.763 89.4989 217.313 89.5227 217.862 89.5597C218.33 89.5912 218.798 89.6437 219.267 89.6584C219.823 89.6757 220.381 89.652 220.938 89.6648C222.13 89.692 223.322 89.7485 224.514 89.7589C225.137 89.7643 225.76 89.6771 226.383 89.6669C227.406 89.6504 228.429 89.676 229.451 89.6587C230.004 89.6491 230.557 89.6291 231.11 89.6059L232.217 89.5576C232.846 89.5304 233.476 89.5032 234.104 89.4523C234.755 89.3992 235.403 89.3213 236.052 89.2464C236.195 89.2299 236.333 89.1576 236.475 89.1493C237.195 89.1067 237.917 89.0805 238.638 89.0384C238.763 89.0309 238.885 88.9467 239.009 88.9435C239.502 88.9301 240 88.9739 240.488 88.9224C240.991 88.8693 241.481 88.6909 241.984 88.6379C242.689 88.5637 243.402 88.5699 244.109 88.5125C244.578 88.4744 245.043 88.3835 245.51 88.3189C245.842 88.2728 246.178 88.2477 246.506 88.1837C246.853 88.116 247.189 87.9877 247.537 87.9317C248.328 87.8043 249.123 87.7035 249.917 87.5952C250.458 87.5213 251.003 87.4723 251.539 87.3749C251.905 87.3091 252.259 87.1829 252.614 87.0696C252.641 87.0611 252.665 86.9032 252.635 86.8765C252.286 86.5648 251.932 86.2576 251.568 85.9635C250.162 84.8272 248.749 83.6997 247.343 82.5621C246.206 81.6416 245.116 80.6579 243.932 79.8032C243.046 79.164 242.284 79.2816 241.84 79.9533L241.72 80.1339C241.275 80.7917 240.797 81.3949 240.087 81.7928C240.021 81.8296 239.98 81.9115 239.927 81.9723C240.011 82.0197 240.101 82.116 240.178 82.1064C240.516 82.0635 240.849 81.9611 241.188 81.9405C241.36 81.9299 241.544 82.0384 241.711 82.1184C241.731 82.128 241.704 82.3232 241.648 82.3891C240.548 83.6837 239.1 84.4277 237.516 84.9325C236.861 85.1413 236.175 85.2552 235.511 85.4392C234.993 85.5827 234.494 85.7968 233.973 85.9269C233.385 86.0744 232.783 86.1691 232.185 86.2749C231.781 86.3464 231.371 86.3861 230.967 86.46C230.446 86.5555 229.93 86.6803 229.409 86.7747C229.082 86.8339 228.749 86.8741 228.417 86.8992C227.848 86.9419 227.278 86.9851 226.708 86.9933C225.958 87.0045 225.208 86.9853 224.458 86.9715C224.343 86.9693 224.23 86.9259 224.116 86.9016C224.27 86.8568 224.421 86.7939 224.578 86.7717C224.832 86.7357 225.09 86.7325 225.345 86.7051C225.709 86.6661 226.071 86.6101 226.435 86.5755C226.834 86.5376 227.237 86.5384 227.633 86.4811C228.236 86.3933 228.832 86.256 229.435 86.1659C229.964 86.0869 230.502 86.0661 231.028 85.9787C231.474 85.9045 231.907 85.7547 232.351 85.6696C232.891 85.5664 233.445 85.5272 233.98 85.4032C234.595 85.2605 235.202 85.076 235.8 84.872C236.503 84.632 237.193 84.3501 237.889 84.0888C238.658 83.8008 239.43 83.5232 240.194 83.2232C240.357 83.1589 240.491 83.0187 240.639 82.9133C240.424 82.8195 240.212 82.7147 239.991 82.6392C239.934 82.6197 239.849 82.7013 239.772 82.7205C239.464 82.7976 239.158 82.9075 238.845 82.9301C238.568 82.9504 238.251 82.8904 238.269 82.4976C238.276 82.3419 238.345 82.0877 238.446 82.0523C239.851 81.5611 240.83 80.5685 241.647 79.3843C241.699 79.3085 241.644 79.044 241.591 79.0283C241.262 78.9307 240.922 78.8472 240.58 78.8203C240.139 78.7853 239.693 78.8203 239.251 78.8029C238.707 78.7816 238.154 78.6555 237.624 78.7237ZM212.022 63.7384L212.047 64.1213C212.1 64.9776 212.317 76.7037 212.38 77.4101C212.392 77.544 212.61 77.7963 212.731 77.8133C213.143 77.872 215.824 78.4944 215.824 77.4101C215.789 75.8059 215.864 64.8707 215.809 64.8557C215.296 64.7173 212.142 63.7635 212.022 63.7384ZM128.55 66.5859C127.415 66.9107 126.289 67.2941 125.204 67.7579C123.959 68.2901 122.754 68.9187 121.549 69.5381C120.141 70.2611 118.752 71.0216 117.352 71.7611C116.943 71.9773 116.529 72.1872 116.109 72.3821C115.425 72.6995 114.734 73.0008 114.048 73.3123C113.985 73.3411 113.933 73.3952 113.876 73.4376C113.941 73.4693 114.003 73.5213 114.07 73.5296L114.661 73.6051C115.055 73.6547 115.45 73.7013 115.845 73.7317C116.067 73.7488 116.297 73.6459 116.522 73.6512C117.17 73.6661 117.817 73.7056 118.464 73.7411C118.697 73.7539 118.929 73.7843 119.162 73.8032C119.762 73.852 120.362 73.9147 120.963 73.9424C121.702 73.9765 122.442 73.9808 123.234 74.0499C123.891 74.0155 124.55 73.9381 125.206 73.9573C126.041 73.9816 126.871 74.1091 127.706 74.1435C128.171 74.1629 128.643 74.0419 129.109 74.0579C130.425 74.1037 131.739 74.224 133.056 74.2456C134.195 74.2643 135.335 74.1653 136.475 74.1579C138.818 74.1424 141.162 74.1469 143.505 74.1579C144.042 74.1605 144.579 74.2256 145.116 74.252C145.178 74.2549 145.244 74.1925 145.308 74.1605C145.266 74.1235 145.228 74.0797 145.181 74.0509C143.71 73.1536 142.236 72.2595 140.765 71.3611C139.515 70.5973 138.289 69.7912 137.02 69.0619L136.595 68.8216C135.243 68.0707 134.06 66.988 132.487 66.6587C131.873 66.5299 131.256 66.328 130.638 66.3187C129.941 66.308 129.219 66.3944 128.55 66.5859Z" fill="#00160A"/>
<path fill-rule="evenodd" clip-rule="evenodd" d="M139.751 60.2205C140.544 59.1168 141.268 58.0043 142.09 56.9691C143.405 55.3112 144.773 53.6952 146.142 52.0805C146.809 51.2936 147.514 50.5384 148.223 49.7888C149.211 48.7445 150.169 47.664 151.23 46.6979C152.939 45.1403 154.714 43.6539 156.477 42.1552C158.471 40.4595 160.662 39.0379 162.907 37.7069C164.127 36.9835 165.42 36.3781 166.701 35.7637C167.621 35.3221 168.572 34.944 169.517 34.5555C170.445 34.1739 171.372 33.7845 172.319 33.4552C173.066 33.1957 173.837 33 174.606 32.8168C175.422 32.6229 176.247 32.4683 177.07 32.3133C177.729 32.1893 178.391 32.0781 179.055 31.984C179.689 31.8944 180.326 31.8203 180.963 31.7651C181.574 31.712 182.187 31.6603 182.799 31.6648C183.767 31.672 184.735 31.7552 185.703 31.7515C186.405 31.7488 187.095 31.7477 187.801 31.8269C188.505 31.9056 189.214 31.9888 189.92 32.0483C190.632 32.1083 191.321 32.216 192.017 32.3672C192.652 32.5051 193.327 32.4613 193.958 32.6085C194.86 32.8192 195.736 33.1405 196.629 33.3963C197.555 33.6619 198.498 33.8707 199.413 34.1704C200.045 34.3776 200.635 34.7144 201.257 34.9616C201.918 35.2245 202.615 35.4048 203.258 35.7043C204.038 36.0675 204.779 36.5139 205.533 36.9315C207.508 38.0253 209.418 39.2187 211.19 40.6221C211.75 41.0656 212.3 41.5216 212.853 41.9747C212.932 42.0397 213.026 42.1075 213.067 42.1955C213.138 42.3501 213.173 42.5213 213.222 42.6856C213.09 42.6117 212.942 42.5568 212.829 42.4608C211.119 41.0069 209.232 39.8061 207.329 38.6344C206.446 38.0912 205.508 37.6365 204.587 37.1579C204.097 36.904 203.6 36.6605 203.089 36.4549C201.973 36.0061 200.848 35.5805 199.724 35.1531C198.905 34.8419 198.09 34.5179 197.258 34.2448C196.335 33.9416 195.401 33.6637 194.46 33.4232C193.639 33.2133 192.804 33.044 191.967 32.908C191.438 32.8219 190.89 32.8581 190.357 32.7859C189.923 32.7269 189.504 32.5403 189.07 32.4971C188.546 32.4451 188.013 32.4925 187.485 32.48C187.326 32.4763 187.169 32.3877 187.01 32.3859C186.109 32.3765 185.206 32.3917 184.305 32.3765C183.905 32.3701 183.505 32.2787 183.107 32.2867C182.643 32.296 182.181 32.3837 181.717 32.4157C181.199 32.4515 180.677 32.4496 180.159 32.4891C179.776 32.5184 179.394 32.5741 179.016 32.6424C178.47 32.7413 177.93 32.8731 177.384 32.9701C176.971 33.0435 176.548 33.0627 176.138 33.1461C175.633 33.2485 175.134 33.3803 174.638 33.5219C174.028 33.696 173.426 33.8979 172.818 34.0789C172.29 34.2363 171.743 34.3387 171.233 34.5395C169.593 35.1848 167.944 35.8139 166.341 36.5424C164.012 37.6013 161.805 38.8947 159.701 40.3509C158.379 41.2661 157.102 42.2475 155.823 43.2227C153.261 45.1763 150.998 47.46 148.772 49.7739C147.635 50.956 146.595 52.2344 145.55 53.5016C144.487 54.7907 143.449 56.1016 142.444 57.436C141.44 58.7677 140.466 60.1229 139.526 61.5C138.696 62.7147 137.931 63.9739 137.134 65.2107C137.097 65.2667 137.015 65.2931 136.954 65.3333C136.965 65.2744 136.961 65.2085 136.988 65.1579C137.521 64.1379 138.044 63.1117 138.599 62.1037C138.949 61.4704 139.348 60.8645 139.751 60.2205Z" fill="#00160A"/>
<path fill-rule="evenodd" clip-rule="evenodd" d="M239.398 47.1664C238.748 47.4421 238.16 47.7435 237.549 47.9883C236.316 48.4827 235.094 49.0011 233.805 49.3557C232.981 49.5824 232.173 49.7987 231.317 49.8709C230.716 49.9216 230.13 50.2208 229.533 50.2344C228.707 50.2531 228.027 50.58 227.379 51.0011C226.775 51.3933 226.231 51.876 225.641 52.2899C225.429 52.4384 225.165 52.5525 224.911 52.5928C224.533 52.6525 224.142 52.6291 223.757 52.6472C223.082 52.6789 222.407 52.7416 221.732 52.7424C221.056 52.7429 220.381 52.6832 219.705 52.6509C219.602 52.6461 219.498 52.6365 219.397 52.6483C218.827 52.7133 218.25 52.7445 217.691 52.8632C216.991 53.0117 216.305 53.2264 215.616 53.4256C214.996 53.6048 214.353 53.7397 213.771 54.0037C212.666 54.504 211.598 55.0837 210.514 55.628C210.435 55.6677 210.348 55.6904 210.265 55.7208C210.31 55.66 210.346 55.5901 210.4 55.5395C210.919 55.0557 211.382 54.4752 211.978 54.1187C212.766 53.6467 213.643 53.3013 214.514 52.9949C215.201 52.7536 215.935 52.644 216.652 52.4933C217.289 52.3595 217.928 52.2208 218.573 52.1368C219.344 52.0363 220.122 51.9565 220.9 51.9336C221.539 51.9144 222.186 52.0605 222.82 52.0096C223.75 51.9352 224.681 51.7917 225.593 51.5909C225.933 51.516 226.308 51.26 226.51 50.9752C226.91 50.4096 227.467 50.0549 228.05 49.8173C228.582 49.6005 229.214 49.6299 229.8 49.5435C230.346 49.4629 230.891 49.3781 231.435 49.2856C231.901 49.2067 232.378 49.1584 232.825 49.0165C233.418 48.8283 233.981 48.548 234.566 48.3352C234.875 48.2232 235.223 48.2112 235.523 48.0835C236.306 47.7504 237.068 47.3659 237.849 47.0259C238.494 46.7448 239.152 46.4923 239.808 46.2371C240.842 45.8349 241.867 45.4 242.921 45.0592C243.552 44.8555 244.233 44.8112 244.888 44.6827C245.353 44.5917 245.81 44.4216 246.277 44.3928C246.81 44.3597 247.352 44.4317 247.888 44.4821C248.308 44.5219 248.725 44.5965 249.142 44.6589C249.355 44.6909 249.335 44.7984 249.181 44.8733C248.709 45.1019 248.235 45.2619 247.678 45.2192C247.112 45.1757 246.535 45.2592 245.965 45.3083C245.319 45.364 244.667 45.3992 244.035 45.5245C243.419 45.6464 242.817 45.8509 242.222 46.056C241.615 46.2651 241.022 46.5157 240.426 46.7541C240.098 46.8851 239.775 47.0285 239.398 47.1664Z" fill="#00160A"/>
<path fill-rule="evenodd" clip-rule="evenodd" d="M239.734 106.8C239.991 107.264 240.349 107.684 240.415 108.146C240.473 108.549 240.642 109.045 240.243 109.463C239.835 109.891 239.507 110.395 239.137 110.859C238.442 111.731 237.496 112.044 236.422 112.103C235.582 112.15 234.745 112.247 233.906 112.303C233.158 112.352 232.408 112.376 231.658 112.409C230.84 112.445 230.022 112.499 229.204 112.505C228.667 112.51 228.129 112.399 227.594 112.419C226.52 112.459 225.556 112.169 224.875 111.349C224.25 110.595 223.998 109.744 224.228 108.666C224.653 106.683 225.817 105.246 227.244 103.956C227.683 103.559 228.215 103.249 228.742 102.969C229.419 102.611 230.106 102.166 230.837 102.042C231.838 101.872 232.82 101.621 233.917 101.813C235.669 102.122 236.946 103.004 237.984 104.339C238.594 105.123 239.136 105.961 239.734 106.8ZM239.76 107.757C238.84 106.165 237.918 104.556 236.427 103.426C235.811 102.959 235.05 102.615 234.301 102.411C233.615 102.224 232.879 102.279 232.129 102.413C231.211 102.578 230.325 102.777 229.48 103.152C228.276 103.687 227.26 104.492 226.426 105.493C225.209 106.953 224.216 108.491 224.963 110.552C225.243 111.326 226.231 111.939 227.061 111.805C227.563 111.723 228.089 111.786 228.604 111.803C229.039 111.818 229.476 111.903 229.908 111.883C230.656 111.848 231.4 111.722 232.148 111.694C233.082 111.659 234.019 111.686 234.955 111.686C235.288 111.686 235.629 111.733 235.952 111.675C236.516 111.575 237.102 111.485 237.619 111.257C238.895 110.694 240.286 109.562 239.76 107.757Z" fill="#00160A"/>
<path fill-rule="evenodd" clip-rule="evenodd" d="M160.43 109.954C160.93 109.35 161.461 108.808 161.866 108.185C162.378 107.394 162.422 106.497 162.311 105.559C162.214 104.738 162.523 103.998 163.084 103.361C163.711 102.647 164.54 102.268 165.379 101.912C166.134 101.593 166.894 101.84 167.591 102.11C167.91 102.234 168.173 102.629 168.353 102.96C168.845 103.862 169.096 104.862 169.434 105.827C169.701 106.586 169.481 107.191 169.13 107.718C168.79 108.229 168.244 108.635 167.719 108.982C167.069 109.413 166.374 109.804 165.649 110.085C164.873 110.385 164.04 110.542 163.23 110.753C162.912 110.835 162.59 110.912 162.265 110.955C162.022 110.987 161.772 110.952 161.525 110.963C160.75 110.998 159.975 111.054 159.199 111.077C158.588 111.095 157.975 111.077 157.363 111.074C156.711 111.072 156.057 111.054 155.405 111.069C154.747 111.085 154.091 111.135 153.434 111.167C153.296 111.174 153.158 111.161 153.021 111.171C152.935 111.178 152.853 111.213 152.769 111.236C152.838 111.144 152.889 111.003 152.979 110.97C153.529 110.766 154.09 110.594 154.69 110.651C154.707 110.653 154.725 110.653 154.742 110.651C155.464 110.593 156.186 110.53 156.908 110.479C157.229 110.456 157.552 110.454 157.874 110.449C158.225 110.444 158.576 110.44 158.926 110.447C159.18 110.452 159.458 110.548 159.68 110.472C159.946 110.381 160.165 110.15 160.43 109.954ZM163.041 104.758C163.035 105.131 163.038 105.505 163.02 105.877C162.995 106.407 163.071 106.98 162.893 107.456C162.524 108.442 161.922 109.31 161.161 110.056C161.046 110.168 160.972 110.321 160.879 110.455C161.062 110.486 161.245 110.545 161.427 110.541C161.643 110.537 161.862 110.495 162.073 110.442C162.716 110.278 163.377 110.155 163.993 109.916C165.227 109.438 166.448 108.922 167.648 108.365C168.289 108.068 168.746 107.542 168.768 106.79C168.781 106.344 168.705 105.895 168.636 105.447C168.516 104.673 168.162 104.034 167.85 103.358C167.623 102.868 167.181 102.56 166.716 102.515C166.17 102.461 165.574 102.566 165.046 102.743C164.091 103.061 163.402 103.712 163.041 104.758Z" fill="#00160A"/>
<path fill-rule="evenodd" clip-rule="evenodd" d="M209.284 55.4643C209.017 54.5296 209.518 53.8325 209.989 53.1773C211.033 51.7229 212.507 50.7968 214.109 50.0664C214.804 49.7496 215.507 49.4349 216.233 49.2037C217.105 48.9259 218.006 48.7381 218.894 48.5107C219.018 48.4789 219.139 48.4216 219.265 48.4115C219.602 48.3848 219.455 48.2555 219.327 48.1389C218.554 47.4304 217.778 46.7245 217.002 46.0187C216.652 45.7008 216.295 45.3904 215.951 45.0653C215.847 44.9661 215.752 44.8392 215.7 44.7064C215.651 44.58 215.665 44.4296 215.651 44.2896C215.781 44.3387 215.941 44.3544 216.035 44.4416C217.206 45.528 218.365 46.6259 219.531 47.7176C219.676 47.8536 219.926 48.1067 219.977 48.0736C220.177 47.944 220.393 47.7459 220.461 47.5285C220.622 47.016 220.675 46.4707 220.82 45.952C221.084 45.0067 221.818 44.472 222.638 44.0744C223.645 43.5867 224.678 43.1509 225.713 42.7253C227.016 42.1896 228.335 41.6928 229.642 41.1683C230.861 40.6792 232.051 40.1032 233.299 39.7099C233.91 39.5176 234.624 39.6533 235.291 39.6451C235.315 39.6448 235.341 39.6941 235.365 39.7205C235.322 39.7555 235.283 39.8067 235.233 39.8235C233.897 40.2744 232.552 40.7 231.225 41.1776C230.31 41.5069 229.425 41.9189 228.518 42.2717C228.139 42.4192 227.722 42.4741 227.349 42.6315C226.565 42.9613 225.804 43.3421 225.024 43.6808C224.451 43.9299 223.847 44.1133 223.285 44.3829C222.522 44.7483 221.723 45.1168 221.472 46.0315C221.379 46.372 221.511 46.7861 221.381 47.1021C221.201 47.5427 220.941 47.9984 220.593 48.3123C219.877 48.9587 218.961 49.2347 218.029 49.4464C217.461 49.5752 216.911 49.7936 216.34 49.8971C215.189 50.1053 214.131 50.5571 213.117 51.1035C211.716 51.8579 210.611 52.9427 209.85 54.3445C209.644 54.7248 209.557 55.1699 209.411 55.5832C209.395 55.6275 209.345 55.6597 209.31 55.6973C209.31 55.6283 209.31 55.5592 209.284 55.4643Z" fill="#00160A"/>
<path fill-rule="evenodd" clip-rule="evenodd" d="M196.179 89.8693C195.394 89.8347 194.662 89.7699 193.929 89.7744C193.177 89.7787 192.446 89.7096 191.7 89.5901C191.088 89.4923 190.487 89.4576 189.922 89.1592C189.631 89.0058 189.526 88.8613 189.545 88.5155C189.573 87.9989 189.458 87.476 189.465 86.9568C189.482 85.6395 189.806 84.4205 190.823 83.5016C191.3 83.0704 191.921 82.9194 192.52 82.6914C193.458 82.3341 194.272 82.7429 195.086 82.8938C195.899 83.0445 196.642 83.6069 197.401 84.0155C197.997 84.3363 198.636 84.6243 199.137 85.0624C199.58 85.4496 199.909 85.9973 200.195 86.5248C200.414 86.9296 200.59 87.4123 200.593 87.8619C200.597 88.2472 200.394 88.6805 200.165 89.0112C199.774 89.5765 199.156 89.7221 198.489 89.6632C198.42 89.6573 198.35 89.6565 198.282 89.6635C197.598 89.7307 196.914 89.8003 196.179 89.8693ZM199.539 87.9048C199.654 87.6411 199.917 87.3336 199.855 87.1229C199.726 86.6891 199.512 86.1981 199.177 85.9219C197.701 84.7075 196.131 83.6584 194.194 83.2648C193.17 83.0565 192.242 83.1787 191.344 83.6672C190.678 84.0299 190.622 84.584 191.197 85.0411C191.506 85.2877 191.817 85.5336 192.134 85.7712C193.481 86.7808 194.975 87.4933 196.607 87.8968C197.224 88.0493 197.86 88.1565 198.493 88.1963C198.818 88.2165 199.156 88.0427 199.539 87.9048ZM199.229 89.0421C199.373 88.9101 199.517 88.7784 199.661 88.6466C199.472 88.6506 199.283 88.6496 199.095 88.6624C199.035 88.6664 198.975 88.7328 198.919 88.7277C198.229 88.6648 197.534 88.6296 196.852 88.5141C196.279 88.4171 195.695 88.288 195.166 88.0587C194.467 87.7555 193.804 87.3608 193.147 86.9693C192.272 86.448 191.371 85.9499 190.792 85.0579C190.723 84.9531 190.596 84.8869 190.496 84.8029C190.426 84.9178 190.32 85.0248 190.291 85.1493C190.173 85.6659 190.066 86.1859 189.979 86.7088C189.922 87.0522 189.875 87.4032 189.879 87.7501C189.885 88.3488 190.309 88.9109 190.739 88.9373C191.397 88.9773 192.077 88.9133 192.707 89.0645C193.617 89.2827 194.524 89.2384 195.434 89.2419C196.074 89.244 196.714 89.1739 197.355 89.1472C197.962 89.1219 198.57 89.1109 199.229 89.0421Z" fill="#00160A"/>
<path fill-rule="evenodd" clip-rule="evenodd" d="M208.147 54.9472C208.088 54.6819 208.022 54.4416 208.03 54.2035C208.046 53.7123 208.055 53.2133 208.147 52.7331C208.5 50.9133 209.801 49.7712 211.103 48.6163C212.198 47.6451 213.328 46.6944 213.995 45.3341C214.255 44.804 214.22 44.2835 214.206 43.7125C214.172 42.3568 213.429 41.408 212.5 40.6253C211.548 39.8224 210.467 39.1675 209.416 38.4869C208.103 37.6365 206.987 36.6219 206.274 35.1968C205.847 34.3435 206.059 32.6491 206.764 31.9971C206.935 31.8392 207.205 31.7155 207.432 31.7115C207.692 31.7072 207.818 31.9405 207.757 32.2181C207.744 32.2757 207.715 32.3619 207.674 32.376C207.115 32.5653 206.571 33.9973 206.953 34.54C207.23 34.9323 207.329 35.4691 207.65 35.8064C208.283 36.472 209.001 37.0619 209.71 37.6504C210.897 38.6352 212.14 39.5557 213.294 40.5771C214.158 41.3411 214.777 42.3397 215.023 43.4621C215.147 44.0291 215.036 44.6979 214.765 45.2789C214.215 46.46 213.357 47.3717 212.373 48.2141C211.207 49.2109 209.919 50.1229 209.177 51.5147C208.845 52.1395 208.619 52.8552 208.511 53.5552C208.427 54.1003 208.604 54.6845 208.654 55.2525C208.661 55.3325 208.602 55.4184 208.575 55.5016C208.51 55.452 208.427 55.4141 208.383 55.3501C208.301 55.2325 208.242 55.0997 208.147 54.9472Z" fill="#00160A"/>
<path fill-rule="evenodd" clip-rule="evenodd" d="M264.445 88.5507C264.37 89.0392 264.369 89.5133 264.261 89.9619C264.099 90.6341 263.898 91.3021 263.647 91.9464C263.356 92.6957 263.015 93.428 262.654 94.1469C262.416 94.6208 262.121 95.0683 261.819 95.5056C261.713 95.6595 261.511 95.7464 261.354 95.8661C261.02 96.1219 260.937 95.7147 260.939 95.6237C260.956 94.7973 260.913 93.9725 261.162 93.1528C261.344 92.5539 261.329 91.8976 261.433 91.2725C261.504 90.8512 261.639 90.4413 261.73 90.0229C261.866 89.3955 261.982 88.7637 262.12 88.1365C262.354 87.0685 262.602 86.0107 263.66 85.3936C263.872 85.2701 263.97 85.2709 264.183 85.4096C264.664 85.7224 264.866 86.0835 264.74 86.6683C264.608 87.2779 264.557 87.9053 264.445 88.5507ZM264.213 87.6461C264.237 87.1739 264.278 86.7019 264.274 86.2299C264.273 86.0981 264.166 85.9203 264.054 85.8523C263.97 85.8005 263.747 85.8448 263.677 85.9256C263.453 86.1824 263.223 86.4539 263.085 86.76C262.659 87.6989 262.415 88.68 262.321 89.7203C262.244 90.5709 261.971 91.404 261.785 92.2448C261.732 92.4869 261.67 92.7275 261.63 92.9715C261.521 93.6221 261.419 94.2739 261.319 94.9259C261.299 95.0587 261.297 95.1944 261.286 95.3288C261.434 95.2357 261.658 95.1771 261.719 95.0437C262.189 94.0296 262.655 93.0117 263.066 91.9728C263.356 91.2376 263.582 90.4736 263.789 89.7096C263.887 89.3456 263.845 88.9453 263.918 88.5717C263.974 88.2893 264.111 88.0229 264.213 87.6461Z" fill="#00160A"/>
<path fill-rule="evenodd" clip-rule="evenodd" d="M138.898 112.202C138.524 112.133 138.205 112.051 137.88 111.998C137.376 111.917 136.863 111.886 136.365 111.779C135.761 111.651 135.165 111.481 134.575 111.301C134.041 111.138 133.517 110.939 132.991 110.75C132.973 110.744 132.958 110.649 132.972 110.639C133.089 110.558 133.207 110.437 133.335 110.421C134.399 110.292 135.297 110.905 136.29 111.102C137.118 111.266 137.927 111.525 138.757 111.673C139.317 111.773 139.899 111.745 140.47 111.793C140.734 111.815 140.996 111.878 141.258 111.926C141.941 112.051 142.62 112.206 143.308 112.297C143.874 112.373 144.455 112.344 145.021 112.419C145.454 112.476 145.878 112.614 146.302 112.733C147.125 112.963 147.944 113.205 148.764 113.444C148.815 113.459 148.862 113.488 148.911 113.511C148.865 113.522 148.817 113.548 148.771 113.544C148.278 113.502 147.783 113.471 147.293 113.407C146.715 113.332 146.141 113.222 145.564 113.137C145.258 113.092 144.948 113.065 144.639 113.033C143.962 112.962 143.28 112.916 142.607 112.815C142.02 112.728 141.446 112.552 140.859 112.467C140.265 112.38 139.661 112.358 139.062 112.302C139.022 112.298 138.987 112.237 138.898 112.202Z" fill="#00160A"/>
<path fill-rule="evenodd" clip-rule="evenodd" d="M203.937 62.0045C204.815 61.6928 206.701 63.1307 206.088 64.6045C205.381 66.3069 203.187 65.9827 202.605 65.2467C201.512 63.8651 202.267 62.5973 203.937 62.0045ZM202.917 63.3259C201.817 64.3787 203.661 65.6088 204.48 65.3339C206.65 64.6043 205.277 61.0675 202.917 63.3259Z" fill="#00160A"/>
<path fill-rule="evenodd" clip-rule="evenodd" d="M264.6 90.9803C265.129 90.0128 265.554 89.0144 266.482 88.3821C266.593 88.3061 266.816 88.2104 266.859 88.2533C266.979 88.3715 267.096 88.5579 267.097 88.7181C267.109 90.2144 266.136 91.3312 265.552 92.5949C265.243 93.2616 264.804 93.868 264.417 94.4979C264.34 94.6235 264.245 94.7416 264.141 94.8464C264.044 94.9445 263.841 95.1064 263.828 95.0936C263.665 94.9352 263.459 94.7685 263.405 94.5661C263.351 94.3637 263.429 94.1109 263.494 93.8936C263.724 93.1163 263.963 92.3408 264.224 91.5736C264.294 91.3685 264.455 91.1944 264.6 90.9803ZM264.058 93.0741C263.989 93.4531 263.918 93.8317 263.852 94.2112C263.835 94.3051 263.834 94.4016 263.826 94.4968C263.921 94.4147 264.048 94.3509 264.104 94.248C264.832 92.9157 265.565 91.5853 266.26 90.2363C266.451 89.8656 266.532 89.4365 266.645 89.0291C266.66 88.9744 266.579 88.8475 266.519 88.8299C266.453 88.8099 266.317 88.8528 266.287 88.9088C265.555 90.2768 264.833 91.6501 264.058 93.0741Z" fill="#00160A"/>
<path fill-rule="evenodd" clip-rule="evenodd" d="M207.853 57.2541C207.853 55.6979 211.221 56.9467 211.507 57.3976C211.578 57.5107 211.725 61.7979 211.474 61.1949C211.207 60.5203 211.392 57.8005 211.099 57.6136C210.152 57.1456 209.006 56.9037 208.555 57.0632C207.778 57.2453 208.606 60.5408 208.115 59.9827C208.087 59.8853 208.061 59.7869 208.029 59.6907C207.994 59.5821 207.853 58.0085 207.853 57.2541Z" fill="#00160A"/>
<path fill-rule="evenodd" clip-rule="evenodd" d="M222.441 51.4061C222.211 51.3659 221.966 51.3859 221.866 51.2749C221.391 50.7448 220.955 50.1803 220.507 49.6256C220.436 49.5373 220.381 49.4363 220.319 49.3411C220.531 49.3107 220.823 49.1776 220.941 49.2691C221.254 49.5128 221.521 49.8323 221.751 50.16C222.028 50.5547 222.248 50.9891 222.441 51.4061Z" fill="#00160A"/>
<path fill-rule="evenodd" clip-rule="evenodd" d="M209.827 57.5504C209.839 57.4179 210.166 57.7123 210.174 57.8181C210.221 58.4109 210.45 61.0256 210.237 60.7501C210.117 60.4955 210.007 59.7885 209.954 59.5093C209.901 59.2299 209.827 58.424 209.827 57.5504Z" fill="#00160A"/>
<path fill-rule="evenodd" clip-rule="evenodd" d="M214.93 69.8211C214.923 70.4208 214.944 71.0205 214.93 71.6203C214.922 71.9747 213.971 72.1155 213.553 71.904C213.133 71.692 213.264 70.0659 213.241 69.8211C213.167 69.0523 213.137 68.2771 213.019 67.5155C212.942 67.0139 212.891 66.4101 213.13 66.3328C213.997 66.0523 214.769 67.1331 214.731 67.1709C214.83 67.9485 214.931 69.7357 214.93 69.8211ZM213.653 68.104C213.687 68.2445 213.731 70.6941 213.791 71.5677C213.801 71.7128 214.361 71.7128 214.483 71.4589C214.599 70.7589 214.356 68.2568 214.361 67.4216C214.362 67.2877 214.193 67.0968 214.055 67.0285C213.599 66.8037 213.518 66.8672 213.553 67.372C213.567 67.5827 213.618 67.7912 213.653 68.104Z" fill="#00160A"/>
<path fill-rule="evenodd" clip-rule="evenodd" d="M184.467 82.3003C184.604 82.2472 184.759 82.3155 184.812 82.4531C184.865 82.5904 184.797 82.7448 184.659 82.7979C178.553 85.1568 178.553 89.7744 184.764 96.8944C190.318 103.261 200.704 109.15 215.919 114.549C216.058 114.598 216.131 114.751 216.081 114.889C216.032 115.028 215.88 115.101 215.741 115.051C200.447 109.625 189.989 103.694 184.362 97.2451C177.941 89.8843 177.941 84.8216 184.467 82.3003Z" fill="#E7EAEE"/>
<path d="M194.777 113.458C194.825 113.318 194.977 113.245 195.116 113.293C195.255 113.341 195.329 113.493 195.281 113.632C194.096 117.059 191.931 119.915 188.794 122.195C185.667 124.467 180.501 126.524 173.289 128.374C173.146 128.41 173.001 128.324 172.964 128.182C172.927 128.039 173.013 127.894 173.156 127.857L173.657 127.727C180.548 125.926 185.491 123.936 188.48 121.763C191.531 119.547 193.628 116.78 194.777 113.458Z" fill="#09EEE3"/>
<path fill-rule="evenodd" clip-rule="evenodd" d="M195.073 116.377C195.107 116.234 195.25 116.145 195.394 116.178C195.537 116.211 195.626 116.355 195.593 116.498C194.523 121.082 192.247 124.362 188.768 126.32C185.331 128.254 181.626 129.569 177.656 130.265C177.511 130.291 177.373 130.194 177.347 130.049C177.322 129.903 177.419 129.765 177.564 129.74C181.475 129.054 185.122 127.759 188.506 125.855C191.849 123.975 194.036 120.822 195.073 116.377Z" fill="#E7EAEE"/>
<path fill-rule="evenodd" clip-rule="evenodd" d="M211.763 116.107C211.797 115.964 211.941 115.876 212.084 115.911C217.352 117.179 222.015 117.887 226.073 118.035L226.377 118.046C230.43 118.168 236.285 117.844 243.938 117.074C244.085 117.059 244.215 117.166 244.23 117.313C244.245 117.459 244.138 117.59 243.991 117.605L242.839 117.718C235.537 118.427 229.942 118.711 226.053 118.569C221.957 118.419 217.259 117.705 211.959 116.429C211.816 116.395 211.728 116.251 211.763 116.107Z" fill="#E7EAEE"/>
<path fill-rule="evenodd" clip-rule="evenodd" d="M172.791 84.7464C172.911 84.6619 173.078 84.6907 173.162 84.8112C173.247 84.9317 173.218 85.0981 173.098 85.1827C171.615 86.2243 170.838 87.2773 170.739 88.3347C170.64 89.4045 171.238 90.8797 172.551 92.7419C172.636 92.8621 172.607 93.0285 172.487 93.1133C172.366 93.1984 172.2 93.1696 172.115 93.0491C170.736 91.0928 170.094 89.5109 170.209 88.2851C170.324 87.0464 171.193 85.8693 172.791 84.7464Z" fill="#00160A"/>
<path fill-rule="evenodd" clip-rule="evenodd" d="M173.365 85.9707C173.45 85.9109 173.568 85.9315 173.628 86.0165C173.688 86.1019 173.667 86.2195 173.582 86.2795C172.533 87.0163 171.983 87.7613 171.914 88.5093C171.843 89.2664 172.266 90.3101 173.195 91.6275C173.255 91.7125 173.235 91.8301 173.15 91.8904C173.065 91.9504 172.947 91.9299 172.887 91.8448C171.911 90.4608 171.457 89.3416 171.538 88.4744C171.619 87.5981 172.234 86.7653 173.365 85.9707Z" fill="#00160A"/>
<defs>
<linearGradient id="paint0_linear_21_76" x1="187.5" y1="0" x2="187.5" y2="150" gradientUnits="userSpaceOnUse">
<stop stop-color="#FFF61D"/>
<stop offset="0.992453" stop-color="#BCAD88"/>
</linearGradient>
</defs>
</svg>
