<svg width="260" height="530" viewBox="0 0 260 530" fill="none" xmlns="http://www.w3.org/2000/svg">
<rect width="260" height="530" fill="url(#paint0_linear_20_6)" fill-opacity="0.45"/>
<path fill-rule="evenodd" clip-rule="evenodd" d="M24.0976 224.879C34.6132 242.37 65.9901 263.626 72.1708 264.096C91.7218 265.581 119.555 268.866 144.414 269.748L145.167 269.774C153.95 270.07 165.871 270.099 180.932 269.862C183.903 267.201 186.676 265.307 189.25 264.183L189.452 264.096C190.83 263.513 194.381 259.802 203.326 255.993C205.787 254.945 213.064 257.287 218.151 255.422L218.4 255.329C222.51 253.76 229.287 249.687 238.731 243.11C238.674 242.957 238.615 242.804 238.555 242.651C238.778 243.025 238.998 243.4 239.215 243.776C239.431 244.152 256.177 284.139 225.47 315.108C204.532 336.226 148.87 356.122 100.522 344.748C-22.4518 318.175 18.9561 216.327 24.0976 224.879Z" fill="#EBD8A9"/>
<path fill-rule="evenodd" clip-rule="evenodd" d="M230.577 286.468C231.264 285.21 231.817 283.912 233.023 283.09C233.168 282.991 233.458 282.867 233.514 282.923C233.669 283.076 233.821 283.319 233.823 283.527C233.839 285.472 232.573 286.924 231.814 288.567C231.413 289.433 230.841 290.222 230.339 291.041C230.239 291.204 230.115 291.357 229.98 291.494C229.854 291.621 229.59 291.832 229.573 291.815C229.362 291.609 229.094 291.392 229.023 291.129C228.953 290.866 229.054 290.538 229.138 290.255C229.438 289.244 229.748 288.236 230.088 287.239C230.179 286.972 230.388 286.746 230.577 286.468Z" fill="white"/>
<path fill-rule="evenodd" clip-rule="evenodd" d="M230.376 283.309C230.278 283.944 230.276 284.561 230.136 285.144C229.925 286.018 229.664 286.886 229.338 287.724C228.96 288.698 228.516 289.65 228.047 290.584C227.738 291.2 227.354 291.782 226.962 292.351C226.824 292.551 226.561 292.664 226.357 292.819C225.923 293.152 225.815 292.622 225.817 292.504C225.839 291.43 225.784 290.358 226.107 289.292C226.344 288.513 226.324 287.66 226.46 286.848C226.552 286.3 226.727 285.767 226.845 285.223C227.023 284.407 227.173 283.586 227.352 282.771C227.657 281.382 227.98 280.007 229.355 279.205C229.63 279.045 229.758 279.046 230.035 279.226C230.66 279.632 230.923 280.102 230.758 280.862C230.587 281.655 230.521 282.47 230.376 283.309Z" fill="white"/>
<path fill-rule="evenodd" clip-rule="evenodd" d="M198.978 308.97C197.782 306.9 196.583 304.809 194.645 303.34C193.844 302.733 192.855 302.286 191.882 302.021C190.989 301.778 190.033 301.849 189.058 302.024C187.864 302.237 186.713 302.497 185.614 302.984C184.049 303.679 182.728 304.726 181.643 306.028C180.062 307.925 178.77 309.925 179.741 312.604C180.106 313.609 181.39 314.406 182.47 314.232C183.122 314.127 183.806 314.208 184.475 314.23C185.041 314.25 185.608 314.361 186.171 314.334C187.143 314.288 188.11 314.124 189.082 314.088C190.297 314.043 191.515 314.077 192.731 314.077C193.164 314.077 193.608 314.139 194.027 314.064C194.76 313.933 195.522 313.817 196.195 313.521C197.854 312.789 199.662 311.317 198.978 308.97Z" fill="white"/>
<path fill-rule="evenodd" clip-rule="evenodd" d="M94.3453 312.589C94.3453 312.589 97.2064 312.853 100.852 311.415C104.497 309.976 105.405 307.363 105.405 307.363C105.405 307.363 104.623 303.615 103.883 302.735C103.106 301.81 101.646 301.762 100.852 302.137C100.108 302.489 98.5795 302.798 97.551 304.417C97.0095 305.269 97.3277 306.881 96.4413 309.383C96.1109 310.316 94.3453 312.589 94.3453 312.589Z" fill="white"/>
<path fill-rule="evenodd" clip-rule="evenodd" d="M54.9772 310.234C54.9772 310.234 63.4036 313.192 67.9851 314.105C72.5663 315.02 80.9928 315.424 80.9928 315.424C80.9928 315.424 87.8107 304.853 90.3261 298.05C92.8415 291.246 94.7187 278.298 94.7187 278.298C94.7187 278.298 87.7379 280.605 85.2654 284.163C82.7934 287.72 84.8501 294.307 80.9928 298.05C76.4324 302.475 69.4006 297.949 63.2504 300.829C57.0998 303.709 54.9772 310.234 54.9772 310.234Z" fill="white"/>
<path fill-rule="evenodd" clip-rule="evenodd" d="M84.3457 338.051C93.5626 338.868 126.919 327.334 134.292 319.388C136.6 316.901 138.71 311.955 136.544 309.527C130 302.194 101.571 292.567 107.201 279.571C109.081 275.231 120.736 272.141 120.736 272.141C120.736 272.141 122.782 271.122 123.063 270.631C123.343 270.14 122.18 269.612 122.18 269.612L134.292 269.814C134.292 269.814 134.135 272.824 132.554 274.028C128.182 277.358 123.063 277.358 122.18 282.157C120.948 288.859 133.218 298.268 139.788 301.874C156.458 311.024 161.518 319.647 219.774 313.757C212.045 318.592 191.692 330.813 161.371 337.132C111.843 347.455 76.7898 337.382 84.3457 338.051Z" fill="white"/>
<path fill-rule="evenodd" clip-rule="evenodd" d="M166.829 225.2C172.292 230.161 187.805 253.754 190.625 259.658C190.774 259.969 191.377 262.182 191.377 262.182C191.377 262.182 185.278 263.398 181.837 264.854C178.397 266.309 172.29 270.02 172.29 270.02C172.29 270.02 154.711 270.191 143.224 269.805C121.384 269.072 95.135 268.663 79.5773 264.854C76.198 264.027 66.949 257.689 64.2904 253.712C61.4578 249.475 66.3686 243.618 71.9354 238.132C87.4754 222.816 124.537 186.787 166.829 225.2Z" fill="#FFB61D"/>
<path d="M198.854 230.082C198.009 230.548 196.563 230.081 195.77 230.495C194.166 231.331 192.566 229.717 190.89 230.317C189.819 230.7 188.769 231.066 187.655 231.188C186.874 231.274 186.112 231.78 185.337 231.803C184.262 231.835 183.378 232.388 182.536 233.1C181.751 233.763 181.044 234.579 180.277 235.279C180.001 235.53 179.658 235.723 179.327 235.791C178.836 235.892 177.634 235.853 177.134 235.883C176.256 235.937 175.379 236.043 174.502 236.044C173.623 236.045 161.328 239.553 159.918 240.473C159.816 240.54 159.702 240.579 159.594 240.63C159.652 240.527 159.7 240.409 159.77 240.324C160.445 239.505 161.046 238.975 161.821 238.371C162.846 237.573 163.985 236.99 165.118 236.471C166.011 236.063 166.966 235.878 167.898 235.623C168.726 235.397 169.556 235.162 170.394 235.02C171.398 234.85 172.409 234.715 173.42 234.676C174.25 234.644 175.092 234.891 175.916 234.805C177.126 234.679 179.029 234.437 180.214 234.097C180.656 233.971 181.144 233.538 181.406 233.056C181.926 232.099 182.65 231.5 183.409 231.098C184.1 230.731 184.921 230.781 185.683 230.635C186.393 230.498 187.102 230.355 187.809 230.199C188.414 230.065 189.035 229.984 189.616 229.744C190.386 229.425 191.118 228.951 191.88 228.591C192.281 228.402 192.733 228.382 193.123 228.166C194.142 227.602 209.618 223.8 211.174 224.455C212.731 225.109 210.342 226.861 209.618 226.788C208.883 226.715 208.132 226.856 207.391 226.939C206.552 227.033 205.704 227.093 204.882 227.305C204.082 227.511 203.299 227.857 202.525 228.204C201.736 228.557 200.965 228.981 200.19 229.384C199.764 229.606 199.344 229.848 198.854 230.082Z" fill="white"/>
<path d="M158.666 239.604C158.319 238.388 159.317 237.829 159.929 236.977C161.286 235.086 163.203 233.883 165.285 232.933C166.189 232.521 167.102 232.112 168.046 231.812C169.18 231.45 170.351 231.206 171.505 230.911C171.667 230.869 171.824 230.795 171.988 230.782C172.426 230.747 172.847 230.385 172.914 230.342C173.173 230.174 173.454 229.916 173.543 229.634C173.752 228.967 173.821 228.259 174.009 227.584C174.352 226.355 175.307 225.66 176.373 225.143C177.682 224.509 179.025 223.943 180.371 223.39C182.064 222.693 183.779 222.047 185.478 221.365C187.063 220.73 188.61 219.981 190.232 219.469C191.026 219.22 191.954 219.396 192.822 219.385C192.853 219.385 192.886 219.449 192.918 219.483C192.861 219.529 192.812 219.595 192.746 219.617C191.009 220.203 189.261 220.757 187.536 221.378C186.347 221.806 185.196 222.341 184.017 222.8C183.524 222.992 182.982 223.063 182.496 223.268C181.478 223.696 180.489 224.191 179.475 224.632C178.73 224.955 177.945 225.194 177.214 225.544C176.223 226.019 175.183 226.499 174.857 227.688C174.736 228.13 174.907 228.669 174.739 229.079C174.505 229.652 174.167 230.245 173.715 230.653C172.783 231.493 171.593 231.852 170.38 232.127C169.642 232.294 168.928 232.578 168.185 232.713C166.688 232.984 165.314 233.571 163.995 234.281C162.174 235.262 160.392 236.325 159.402 238.148C159.134 238.642 159.021 239.221 158.831 239.758C158.81 239.816 158.745 239.858 158.7 239.907C158.7 239.817 158.7 239.727 158.666 239.604Z" fill="white"/>
<path d="M157.534 238.931C157.458 238.586 157.372 238.274 157.382 237.965C157.403 237.326 157.414 236.677 157.535 236.053C157.993 233.687 159.684 232.203 161.377 230.701C162.801 229.439 164.269 228.203 165.137 226.434C165.475 225.745 165.429 225.069 165.411 224.326C165.367 222.564 164.401 221.33 163.194 220.313C161.956 219.269 160.55 218.418 159.184 217.533C157.478 216.427 156.026 215.108 155.1 213.256C154.545 212.147 154.821 209.944 155.737 209.096C155.958 208.891 156.31 208.73 156.605 208.725C156.943 208.719 157.107 209.023 157.027 209.384C157.011 209.458 156.973 209.57 156.92 209.589C156.193 209.835 155.485 211.697 155.982 212.402C156.342 212.912 156.471 213.61 156.888 214.048C157.712 214.914 158.644 215.68 159.566 216.446C161.11 217.726 162.725 218.922 164.226 220.25C165.349 221.243 166.153 222.542 166.473 224.001C166.634 224.738 166.49 225.607 166.138 226.363C165.423 227.898 164.308 229.083 163.028 230.178C161.513 231.474 159.838 232.66 158.873 234.469C158.441 235.281 158.148 236.212 158.008 237.122C157.899 237.83 158.129 238.59 158.193 239.328C158.202 239.432 158.127 239.544 158.09 239.652C158.006 239.588 157.899 239.538 157.841 239.455C157.735 239.302 157.657 239.13 157.534 238.931Z" fill="white"/>
<path fill-rule="evenodd" clip-rule="evenodd" d="M142.269 251.364V269.65L162.389 270.306H168.216V252.114H169.994L162.269 246.799C162.269 246.799 162.269 244.729 162.103 243.166C161.707 242.353 160.513 242.215 159.74 242.069C158.966 241.922 157.82 241.741 157.82 242.353C157.82 242.964 157.82 244.729 157.82 244.729L152.583 243.924L142.269 251.364Z" fill="white"/>
<path fill-rule="evenodd" clip-rule="evenodd" d="M158.872 270.19L162.389 270.305L161.349 250.359L159.183 248.769L158.872 270.19Z" fill="#E7EAEE"/>
<path fill-rule="evenodd" clip-rule="evenodd" d="M145.304 282.469C145.454 282.126 145.796 281.726 145.714 281.452C145.547 280.888 145.269 280.25 144.833 279.891C142.914 278.312 140.873 276.948 138.356 276.437C137.024 276.166 135.818 276.325 134.651 276.96C133.784 277.431 133.712 278.151 134.459 278.746C134.862 279.066 135.266 279.386 135.677 279.695C137.429 281.007 139.371 281.934 141.492 282.458C142.294 282.656 143.122 282.796 143.945 282.847C144.367 282.874 144.806 282.648 145.304 282.469Z" fill="white"/>
<path fill-rule="evenodd" clip-rule="evenodd" d="M151.224 244.817C149.41 244.771 138.66 252.908 138.42 252.77C138.18 252.633 148.66 244.718 150.181 243.661C150.969 243.113 151.787 243.142 152.616 243.727C153.77 244.541 160.916 249.082 161.878 249.535C162.985 250.056 169.574 251.575 169.232 251.995C169.037 252.106 168.064 252.193 167.768 252.154C167.683 252.142 167.513 252.219 167.503 252.275C167.207 254.04 167.704 268.313 167.773 269.032C167.786 269.165 167.922 269.324 168.045 269.403C168.545 269.728 169.097 269.692 169.669 269.714L169.764 269.718C170.772 269.77 171.684 269.559 172.536 269.118C173.647 268.542 174.71 267.87 175.787 267.229C176.921 266.555 178.04 265.858 179.177 265.19C180.75 264.267 182.466 263.657 184.17 263.043C185.202 262.671 186.299 262.467 187.378 262.237C188.312 262.038 189.261 261.909 190.204 261.749L190.226 261.747L191.15 261.77C191.015 261.49 190.893 261.203 190.744 260.93C190.227 259.983 189.676 259.053 189.184 258.093C188.604 256.961 188.116 255.781 187.512 254.664C186.154 252.154 184.761 249.663 183.36 247.176C182.028 244.813 180.67 242.465 179.32 240.113C179.142 239.804 178.938 239.51 178.757 239.202C178.712 239.124 178.709 239.02 178.687 238.928C178.767 238.987 178.867 239.032 178.922 239.109C179.592 240.04 180.291 240.952 180.914 241.913C182.676 244.629 184.439 247.345 186.135 250.102C187.027 251.553 187.783 253.09 188.595 254.591C189.157 255.63 189.721 256.668 190.259 257.719C190.534 258.257 190.752 258.824 190.997 259.378L191.394 260.285C191.593 260.738 191.795 261.189 192.013 261.633C192.06 261.728 192.364 261.791 192.494 261.737C193.957 261.128 195.467 260.601 196.849 259.843C199.049 258.635 201.132 257.213 203.326 255.993C204.335 255.432 205.465 255.023 206.59 254.757C207.363 254.575 208.159 254.439 209.055 254.648C210.507 254.987 211.831 255.62 213.233 256.051C214.183 256.343 215.169 256.377 216.196 256.298C218.168 256.147 219.672 254.994 221.34 254.194C222.446 253.664 223.513 253.055 224.594 252.473C226.997 251.18 229.395 249.877 231.8 248.589C233.251 247.812 234.712 247.056 236.169 246.291C236.316 246.214 236.458 246.118 236.613 246.065L236.771 246.011C236.911 245.965 237.06 245.927 237.111 245.977L237.164 246.031C237.417 246.297 237.55 246.58 237.04 246.835C235.906 247.403 234.789 248.004 233.67 248.6C232.217 249.373 230.77 250.161 229.316 250.934C227.918 251.677 226.512 252.404 225.114 253.147C223.642 253.931 222.177 254.728 220.705 255.512C219.77 256.01 218.875 256.68 217.875 256.933C216.967 257.163 216.049 257.601 214.995 257.272L214.886 257.235C213.589 256.768 212.18 256.619 210.861 256.203C209.811 255.871 208.746 255.645 207.678 255.729C206.446 255.827 205.193 256.025 204.019 256.4C202.131 257.003 200.535 258.174 198.963 259.367L198.501 259.717C197.164 260.725 195.793 261.687 194.139 262.154C193.713 262.274 193.29 262.412 192.875 262.565C192.843 262.576 188.198 262.715 183.193 264.45C178.44 266.098 173.312 269.345 173.325 269.378C173.673 270.252 196.151 268.687 196.686 268.735C197.346 268.793 198.007 268.832 198.669 268.87C198.915 268.884 199.162 268.86 199.408 268.875C200.047 268.913 200.685 268.967 201.325 269.005C201.57 269.019 201.818 268.995 202.064 269.009C202.725 269.047 203.386 269.101 204.047 269.139C204.293 269.153 204.541 269.129 204.786 269.144C205.426 269.182 206.064 269.235 206.703 269.274C206.926 269.287 207.151 269.265 207.375 269.278C208.037 269.316 208.698 269.367 209.36 269.405C209.583 269.418 209.808 269.399 210.03 269.412C210.714 269.452 211.397 269.503 212.081 269.543C212.305 269.556 212.53 269.534 212.753 269.547C213.415 269.585 214.076 269.637 214.738 269.675C214.961 269.688 215.186 269.668 215.409 269.681C216.093 269.721 216.776 269.772 217.46 269.811C217.683 269.824 217.908 269.813 218.132 269.813C218.7 269.813 219.268 269.799 219.835 269.819C220.109 269.829 220.379 269.922 220.653 269.944C221.358 270 222.065 270.04 222.771 270.08C222.972 270.092 223.175 270.072 223.376 270.084C224.06 270.124 224.743 270.175 225.427 270.215C225.577 270.224 225.729 270.22 225.88 270.218L226.032 270.217C226.577 270.217 227.124 270.188 227.667 270.223C228.759 270.292 229.848 270.409 230.94 270.482C231.913 270.546 232.889 270.572 233.864 270.621C234.682 270.661 235.5 270.713 236.318 270.754L237.488 270.813C238.072 270.843 238.657 270.869 239.242 270.885C240.337 270.914 241.433 270.91 242.528 270.928C242.593 270.929 242.706 270.999 242.71 271.045C242.741 271.373 242.748 271.703 242.763 272.033C242.589 272.01 242.416 271.975 242.241 271.966C241.259 271.917 240.275 271.895 239.294 271.823C238.47 271.764 237.652 271.614 236.827 271.571C235.963 271.526 235.095 271.568 234.228 271.555C234.044 271.552 233.864 271.449 233.679 271.43L232.479 271.3C231.946 271.243 231.412 271.193 230.877 271.168C229.923 271.122 228.965 271.173 228.009 271.15C227.65 271.141 227.295 271.029 226.936 270.994C226.651 270.965 226.361 270.993 226.074 270.977C225.762 270.959 225.452 270.917 225.14 270.889C224.117 270.798 223.095 270.672 222.069 270.63C220.958 270.585 219.843 270.636 218.73 270.612C218.283 270.602 217.837 270.503 217.39 270.449C217.09 270.413 216.79 270.376 216.489 270.353C215.851 270.303 215.212 270.258 214.573 270.219C214.35 270.205 214.125 270.227 213.901 270.215C213.173 270.175 212.445 270.11 211.716 270.089C211.349 270.079 210.98 270.176 210.613 270.17C210.011 270.159 209.411 270.095 208.81 270.07C208.417 270.053 208.023 270.085 207.631 270.063C206.94 270.024 206.25 269.949 205.559 269.912C205.138 269.889 204.715 269.917 204.294 269.906C203.977 269.898 203.661 269.845 203.345 269.851C203.146 269.855 202.949 269.93 202.751 269.973C202.863 270.068 202.973 270.165 203.087 270.258C204.309 271.256 205.521 272.267 206.755 273.249C208.15 274.357 209.573 275.43 210.969 276.537C212.187 277.504 213.383 278.498 214.592 279.476C214.993 279.8 215.403 280.112 215.81 280.428C216.059 280.62 216.025 280.723 215.761 280.826L215.721 280.841C214.826 281.165 213.956 281.571 213.044 281.836C212.235 282.072 211.381 282.152 210.55 282.316C209.814 282.463 209.087 282.66 208.347 282.78C207.879 282.856 207.393 282.821 206.917 282.854C206.479 282.885 206.04 282.924 205.606 282.99C204.949 283.09 204.3 283.246 203.64 283.321C203.078 283.386 202.506 283.359 201.94 283.392C201.457 283.421 200.973 283.46 200.494 283.528C199.793 283.627 199.099 283.787 198.396 283.861C197.788 283.926 197.17 283.886 196.56 283.933C195.91 283.983 195.265 284.098 194.615 284.153C193.751 284.228 192.885 284.266 192.02 284.334C191.79 284.352 191.566 284.447 191.336 284.46C190.309 284.516 189.281 284.547 188.255 284.603C187.913 284.622 187.576 284.707 187.234 284.73C186.395 284.786 185.554 284.845 184.713 284.864C182.193 284.92 179.673 284.976 177.152 284.993C176.096 285.001 175.036 284.848 173.982 284.887C173.063 284.921 172.169 284.892 171.255 284.76C170.406 284.637 169.523 284.776 168.66 284.72C167.954 284.674 167.258 284.501 166.555 284.404C165.718 284.287 164.877 284.199 164.041 284.077C163.935 284.062 163.75 283.883 163.766 283.843L163.905 283.489C164.349 282.369 164.838 281.277 165.63 280.332C166.606 279.168 167.765 278.249 169.07 277.502L169.248 277.401C169.727 277.136 170.201 276.854 170.699 276.63L171.448 276.292C172.032 276.03 172.62 275.779 173.227 275.595C174.205 275.298 175.224 275.144 176.224 274.92C176.79 274.792 177.347 274.623 177.917 274.518C178.762 274.363 179.617 274.26 180.463 274.11C181.099 273.998 181.732 273.863 182.358 273.707C183.189 273.5 184.019 273.285 184.837 273.035C186.547 272.512 188.223 271.906 189.677 270.818C189.754 270.761 189.843 270.721 189.927 270.674C189.818 270.611 189.716 270.527 189.6 270.492C189.497 270.461 189.378 270.486 189.265 270.486L187.877 270.487C187.645 270.487 187.414 270.486 187.182 270.485L175.953 270.416C172.21 270.393 168.467 270.373 164.724 270.358C163.197 270.353 161.669 270.48 160.142 270.476C158.055 270.47 155.968 270.401 153.881 270.349C152.443 270.314 151.006 270.24 149.568 270.226C148.848 270.219 148.126 270.35 147.406 270.342C145.789 270.326 144.172 270.267 142.556 270.215C141.499 270.18 140.442 270.097 139.385 270.092C138.553 270.088 137.72 270.203 136.887 270.207C136.212 270.21 135.535 270.098 134.86 270.106C134.719 270.107 134.429 270.475 134.466 270.558C134.915 271.557 134.366 272.356 133.883 273.078C132.93 274.502 131.562 275.405 129.903 275.901C128.946 276.188 128.018 276.57 127.086 276.937L126.736 277.074C124.943 277.767 123.508 278.847 122.981 280.801C122.714 281.789 122.553 282.771 122.703 283.842C123.034 286.204 124.194 288.088 125.729 289.795L125.842 289.92C126.68 290.836 127.496 291.783 128.417 292.611C130.295 294.3 132.19 295.978 134.168 297.549C136.101 299.084 138.098 300.549 140.153 301.917C141.924 303.095 143.805 304.113 145.66 305.161C146.853 305.836 148.071 306.47 149.309 307.059C150.348 307.554 151.435 307.946 152.491 308.406C153.425 308.813 154.328 309.297 155.275 309.666C156.585 310.176 157.916 310.636 159.253 311.071C160.461 311.464 161.681 311.825 162.909 312.145C163.961 312.418 165.036 312.597 166.095 312.844C167.462 313.162 168.819 313.528 170.188 313.833C171.228 314.064 172.279 314.246 173.33 314.423C174.277 314.582 175.23 314.715 176.184 314.839C177.011 314.945 177.841 315.038 178.672 315.106C179.474 315.172 180.28 315.183 181.081 315.25C181.905 315.318 182.724 315.441 183.548 315.507C183.938 315.537 184.334 315.477 184.728 315.48C185.604 315.484 186.481 315.489 187.357 315.519C187.899 315.538 188.439 315.636 188.982 315.642C190.504 315.66 192.028 315.648 193.551 315.648C194.298 315.648 195.047 315.683 195.792 315.639C196.608 315.59 197.438 315.321 198.23 315.417C199.195 315.535 200.097 315.393 201.026 315.256C201.45 315.193 201.895 315.279 202.324 315.239C203.562 315.122 204.796 314.948 206.035 314.85C207.112 314.765 208.196 314.774 209.273 314.698C209.83 314.66 210.378 314.511 210.934 314.444C211.488 314.376 212.049 314.367 212.603 314.299C213.187 314.228 213.772 314.142 214.347 314.018C215.488 313.771 216.633 313.528 217.758 313.218C218.581 312.99 219.375 312.656 220.184 312.375C220.235 312.358 220.332 312.371 220.354 312.404C220.382 312.448 220.382 312.552 220.349 312.585C219.863 313.082 219.398 313.605 218.866 314.045C218.706 314.178 218.456 314.216 218.213 314.241L218 314.263C217.308 314.338 216.606 314.342 215.921 314.45C215.224 314.56 214.549 314.799 213.853 314.91C213.147 315.022 212.427 315.043 211.714 315.113C211.365 315.147 211.017 315.193 210.671 315.247C209.837 315.377 209.007 315.537 208.17 315.642C207.246 315.759 206.316 315.821 205.39 315.92C204.851 315.977 204.315 316.077 203.774 316.125C202.868 316.204 201.959 316.251 201.053 316.324C200.8 316.345 200.554 316.427 200.301 316.452L199.301 316.55C198.634 316.615 197.966 316.676 197.298 316.716C196.621 316.756 195.938 316.709 195.259 316.727C193.956 316.761 192.653 316.851 191.35 316.849C189.86 316.846 188.369 316.79 186.88 316.717C185.743 316.662 184.61 316.521 183.473 316.463C182.653 316.421 181.828 316.489 181.008 316.444C180.34 316.408 179.679 316.262 179.012 316.19C178.413 316.126 177.809 316.102 177.208 316.049C176.837 316.017 176.464 315.98 176.099 315.913C175.658 315.832 175.225 315.713 174.787 315.619C174.388 315.533 173.988 315.449 173.586 315.382C172.85 315.258 172.115 315.134 171.376 315.033C170.777 314.951 170.169 314.932 169.574 314.828C169.076 314.741 168.592 314.571 168.102 314.439L165.774 313.814C165.386 313.71 164.998 313.608 164.609 313.506C163.53 313.224 162.433 312.999 161.368 312.669C159.797 312.181 158.248 311.623 156.689 311.095C155.47 310.682 154.239 310.304 153.036 309.848L152.513 309.648C151.639 309.311 150.769 308.954 149.955 308.505L147.184 306.981C144.876 305.71 142.576 304.422 140.343 303.03C137.983 301.56 135.791 299.819 133.55 298.162C131.075 296.332 128.912 294.149 126.795 291.932L126.47 291.589C124.962 289.984 123.556 288.286 122.614 286.266L122.515 286.048C122.177 285.286 121.722 284.484 121.703 283.691C121.659 281.916 121.989 280.206 123.317 278.816C124.37 277.714 125.646 276.988 126.956 276.304L127.812 275.86C129.347 275.063 130.895 274.289 132.388 273.421C132.919 273.113 133.382 272.609 133.734 272.097C134.119 271.536 133.786 270.784 133.107 270.634C131.941 270.377 130.762 270.144 129.575 270.02C127.939 269.848 126.291 269.782 124.648 269.689C124.505 269.681 124.281 269.776 124.218 269.891C123.343 271.48 121.972 272.467 120.301 273.025C119.007 273.457 117.66 273.73 116.351 274.123C115.373 274.418 114.435 274.855 113.449 275.113C112.127 275.458 110.974 276.134 109.953 276.962L109.661 277.202C108.407 278.255 107.285 279.454 106.971 281.201C106.737 282.503 106.803 283.735 107.192 285.035C107.757 286.92 108.919 288.347 110.198 289.729C110.836 290.42 111.515 291.074 112.19 291.728C114.278 293.751 116.537 295.56 118.899 297.259C121.684 299.26 124.625 300.97 127.669 302.539L128.386 302.906C130.142 303.799 131.907 304.691 133.447 305.964C134.682 306.985 135.805 308.106 136.544 309.528L136.787 309.997C137.172 310.752 137.535 311.554 137.557 312.337L137.569 312.79C137.585 313.502 137.573 314.247 137.354 314.999C136.588 317.619 134.883 319.538 132.976 321.304C131.022 323.114 128.838 324.638 126.5 325.931C125.548 326.458 124.635 327.063 123.658 327.538C122.724 327.992 121.725 328.313 120.762 328.712C119.66 329.17 118.587 329.709 117.464 330.106C115.872 330.669 114.244 331.131 112.634 331.645C111.605 331.974 110.591 332.349 109.554 332.649C108.282 333.016 106.99 333.313 105.714 333.664C104.878 333.894 104.062 334.194 103.223 334.41C102.172 334.681 101.104 334.886 100.049 335.142C99.033 335.388 98.0297 335.689 97.0105 335.92C95.7213 336.211 94.4227 336.463 93.1258 336.718C91.9697 336.946 90.8107 337.16 89.6515 337.37C88.6212 337.558 87.5888 337.731 86.5575 337.913C86.2798 337.962 86.0018 338.062 85.7272 338.051C85.6101 338.046 85.5116 337.807 85.3865 337.695C85.2093 337.537 85.0155 337.397 84.8287 337.249C85.0869 337.218 85.3487 337.204 85.6024 337.151C86.4473 336.977 87.2869 336.774 88.1338 336.61C89.1266 336.417 90.1295 336.274 91.1203 336.073C91.8376 335.927 92.5382 335.7 93.2544 335.547C94.1921 335.346 95.1427 335.206 96.078 334.997C96.762 334.843 97.4265 334.606 98.1067 334.434C98.6042 334.308 99.1197 334.253 99.6154 334.122C100.441 333.905 101.253 333.632 102.08 333.419C102.907 333.207 103.752 333.062 104.579 332.847C105.446 332.622 106.295 332.33 107.16 332.102C108.153 331.839 109.163 331.639 110.153 331.366C110.737 331.205 111.289 330.931 111.869 330.754C112.866 330.449 113.888 330.222 114.874 329.887C116.305 329.4 117.716 328.852 119.132 328.32L120.095 327.958C120.737 327.716 121.377 327.469 122.009 327.204C125.097 325.906 128.026 324.325 130.629 322.194L131.247 321.687C132.069 321.01 132.883 320.32 133.636 319.571C134.724 318.489 135.667 317.26 136.197 315.802C136.509 314.947 136.781 314.029 136.804 313.133C136.826 312.295 136.585 311.455 136.259 310.612C135.788 309.397 135.089 308.406 134.122 307.659C132.809 306.645 131.386 305.763 129.961 304.904C126.775 302.984 123.486 301.224 120.378 299.185C118.288 297.815 116.378 296.163 114.44 294.569L114.076 294.27C112.804 293.232 111.55 292.156 110.4 290.986C108.812 289.37 107.307 287.688 106.441 285.511C106.011 284.433 105.871 283.391 105.919 282.258C106.024 279.751 107.449 278.058 109.226 276.514C110.917 275.045 112.914 274.225 115.006 273.584C116.296 273.189 117.611 272.876 118.906 272.497C120.024 272.17 121.143 271.838 122.231 271.428C122.569 271.301 122.945 270.961 123.063 270.632C123.308 269.946 122.924 269.615 122.18 269.613C121.567 269.611 120.956 269.465 120.341 269.414C119.584 269.352 118.821 269.347 118.066 269.268C117.383 269.197 116.709 269.028 116.025 268.962C115.33 268.894 114.628 268.903 113.93 268.868C113.807 268.863 113.688 268.79 113.565 268.781C112.746 268.717 111.923 268.681 111.106 268.598C110.375 268.524 109.652 268.379 108.922 268.308C108.251 268.243 107.575 268.234 106.902 268.2C106.816 268.195 106.73 268.182 106.644 268.174C105.788 268.093 104.931 268.028 104.078 267.927C103.351 267.84 102.632 267.683 101.905 267.61C101.254 267.546 100.596 267.555 99.9409 267.527C99.8359 267.522 99.7326 267.485 99.6272 267.476C98.7681 267.402 97.9074 267.343 97.0494 267.256C96.3602 267.185 95.6759 267.063 94.9863 266.996C94.2972 266.929 93.6038 266.907 92.9133 266.852C92.75 266.838 92.5937 266.738 92.4307 266.727C91.6282 266.671 90.8215 266.661 90.0221 266.579C89.3173 266.507 88.6233 266.332 87.9189 266.26C87.2675 266.195 86.6078 266.213 85.9526 266.179C85.8125 266.171 85.6777 266.064 85.5373 266.055C84.7122 266 83.8857 265.965 83.0607 265.912C82.8121 265.896 82.567 265.829 82.3185 265.814C82.2668 265.81 82.2075 265.93 82.1517 265.994L82.2703 266.033C82.29 266.039 82.3101 266.045 82.3302 266.049C83.0222 266.201 83.7204 266.329 84.4054 266.507C85.219 266.719 86.0347 266.935 86.8269 267.215C89.6248 268.201 92.2622 269.495 94.1564 271.863C94.8733 272.758 95.3351 273.871 95.834 274.922C96.0957 275.474 96.2905 276.099 96.3297 276.703C96.3907 277.646 96.2968 278.599 96.2628 279.548C96.2409 280.155 96.2413 280.765 96.172 281.366C96.1047 281.949 95.9681 282.523 95.8492 283.098L95.5226 284.683C95.3583 285.476 95.1905 286.268 95.0089 287.056C94.8657 287.676 94.6172 288.271 94.4591 288.888C94.2975 289.519 94.2077 290.169 94.0517 290.801C93.8715 291.532 93.6444 292.251 93.4544 292.979C93.2461 293.779 93.0748 294.588 92.8537 295.383L92.7233 295.85C92.5905 296.315 92.4487 296.779 92.2709 297.227L92.179 297.45C92.0518 297.745 92.1007 297.757 92.3052 297.771L92.3714 297.775C93.5927 297.863 94.8224 297.899 96.0305 298.08C96.9277 298.214 97.7968 298.539 98.677 298.784C99.3797 298.98 100.081 299.184 100.782 299.385C100.842 299.402 100.898 299.428 100.957 299.45C100.9 299.473 100.844 299.515 100.787 299.516C100.234 299.521 99.6757 299.567 99.129 299.508C98.2318 299.412 97.3329 299.288 96.4528 299.095C95.8222 298.957 95.2283 298.657 94.6022 298.488C94.3034 298.408 93.9626 298.427 93.6496 298.467L93.2066 298.524C92.6893 298.59 92.1718 298.666 91.674 298.806C90.8555 299.037 90.4575 299.724 90.0945 300.407L89.9742 300.634C88.9381 302.58 87.9414 304.548 86.9163 306.501C85.765 308.695 84.5992 310.881 83.4413 313.071L83.3481 313.253C82.9359 314.078 82.6145 314.972 81.7309 315.445C81.5443 315.545 81.2781 315.495 81.0486 315.514C81.0701 315.341 81.0413 315.14 81.1204 315C81.9635 313.51 82.8256 312.032 83.6781 310.547C84.4574 309.191 85.2644 307.848 85.9997 306.468C87.1222 304.36 88.2423 302.248 89.2705 300.094C90.0609 298.438 90.7255 296.721 91.415 295.019L91.8483 293.952C92.3531 292.706 92.8505 291.456 93.2797 290.184C93.7747 288.717 94.1381 287.204 94.5364 285.706C94.7735 284.814 95.0432 283.92 95.1611 283.01L95.2405 282.398C95.411 281.071 95.5663 279.734 95.5417 278.406C95.5202 277.248 95.2886 276.037 94.8778 274.954C93.9918 272.617 92.352 270.842 90.2169 269.55C88.8108 268.7 87.3417 267.992 85.7102 267.645C84.7982 267.45 83.9249 267.073 83.0132 266.875C82.2457 266.707 81.4487 266.614 80.6631 266.603C79.5548 266.587 78.4452 266.69 77.3358 266.718C76.5142 266.739 75.6905 266.691 74.8707 266.734C74.3815 266.759 73.8986 266.901 73.4129 266.991C72.6839 267.125 71.9448 267.221 71.2276 267.402C69.7372 267.779 68.223 268.103 66.7816 268.623C63.0753 269.959 59.599 271.778 56.3684 274.031C54.1799 275.558 52.1366 277.278 50.3322 279.253C48.3919 281.376 46.7245 283.699 45.5912 286.359C45.1506 287.393 44.8005 288.47 44.4774 289.548C44.2482 290.312 44.0364 291.105 43.9913 291.895C43.9348 292.887 44.0638 293.888 44.0981 294.886C44.1158 295.393 44.0666 295.905 44.1116 296.409C44.1539 296.885 44.2448 297.363 44.3789 297.821C44.5689 298.47 44.8112 299.105 45.0435 299.742C46.3241 303.248 48.5157 305.977 51.9054 307.64C52.6726 308.016 53.5035 308.292 54.3331 308.504C54.8926 308.647 55.3991 308.485 55.7333 307.866C57.0496 305.427 58.7767 303.326 61.1208 301.805C62.3106 301.033 63.5634 300.356 64.799 299.657C65.8289 299.074 66.9535 298.772 68.1155 298.569C68.829 298.444 69.5192 298.136 70.2333 298.078C71.0407 298.013 71.8633 298.135 72.6797 298.174L72.8811 298.175C74.125 298.219 75.3716 298.338 76.6113 298.287C77.7404 298.242 78.8306 298.028 79.9244 297.566C81.5021 296.9 82.3004 295.77 82.7029 294.243L82.9549 293.248C83.103 292.659 83.2427 292.069 83.3325 291.471C83.4295 290.823 83.2968 290.14 83.3845 289.489C83.5068 288.578 83.6826 287.666 83.9412 286.786C84.1371 286.12 84.4654 285.493 84.7375 284.849L84.8259 284.633C85.384 283.226 86.3457 282.088 87.3957 281.06C88.6375 279.843 90.054 278.833 91.7443 278.277C92.4061 278.059 93.0471 277.778 93.7058 277.55C93.8053 277.515 93.9505 277.612 94.0746 277.648L93.929 277.744C93.9044 277.76 93.8798 277.775 93.8548 277.79L93.4094 278.05C91.1106 279.393 88.8493 280.792 87.0778 282.834L86.9007 283.039C86.2244 283.828 85.5872 284.649 85.3289 285.714C85.1528 286.44 84.7514 287.12 84.6307 287.85C84.4706 288.817 84.491 289.814 84.421 290.797C84.4064 291.005 84.3205 291.206 84.2938 291.414C84.1905 292.218 84.2147 293.059 83.9776 293.819C83.4715 295.443 82.6249 296.892 81.0836 297.758C80.2502 298.227 79.3742 298.689 78.4583 298.921C77.6398 299.128 76.7555 299.1 75.8926 299.106L75.7082 299.109C74.0432 299.133 72.3774 299.102 70.7121 299.119C68.5454 299.14 66.4099 299.456 64.4454 300.376C62.1539 301.45 60.1124 302.891 58.508 304.915C57.4649 306.23 56.5199 307.587 56.0172 309.195C55.8068 309.87 55.2455 309.736 54.9006 309.674L54.5456 309.609C53.715 309.451 52.8736 309.25 52.1321 308.879C50.9427 308.286 49.7782 307.581 48.7469 306.746C46.9529 305.293 45.473 303.523 44.5786 301.375C43.999 299.983 43.5174 298.523 43.2252 297.048C43.0224 296.025 43.1926 294.934 43.1566 293.872L43.1465 293.66C43.082 292.622 43.2547 291.632 43.5025 290.644L43.5497 290.459C43.8773 289.196 44.0777 287.885 44.5526 286.681C44.9901 285.573 45.6515 284.55 46.2603 283.511L46.3899 283.288C47.6393 281.119 49.2347 279.213 51.0297 277.486C53.3531 275.252 55.9354 273.343 58.7087 271.698L59.8389 271.025C60.5936 270.578 61.3534 270.14 62.1352 269.747C63.0202 269.301 63.9552 268.952 64.8825 268.594L65.1914 268.474C65.9953 268.159 66.8069 267.858 67.6298 267.598C68.7683 267.238 69.9168 266.907 71.0688 266.593C71.8779 266.372 72.6926 266.154 73.518 266.016C74.5219 265.848 75.5418 265.78 76.551 265.642C77.376 265.529 78.1956 265.379 79.0168 265.241C79.073 265.232 79.1243 265.195 79.1777 265.171C79.1191 265.15 79.0591 265.108 79.0019 265.112C78.4379 265.152 77.8728 265.246 77.3105 265.233C76.3714 265.21 75.434 265.123 74.4966 265.057C74.3056 265.044 74.1167 264.98 73.9267 264.979C72.8888 264.97 71.8502 264.99 70.8122 264.969C70.2032 264.956 69.5954 264.859 68.986 264.846C67.9706 264.825 66.9542 264.856 65.9388 264.834C65.3297 264.821 64.722 264.725 64.1126 264.712C63.3184 264.694 62.5234 264.701 61.7285 264.704L61.1326 264.706C60.1394 264.706 59.1441 264.74 58.153 264.695C57.3141 264.657 56.481 264.49 55.6421 264.45C55.1041 264.425 54.5591 264.572 54.0187 264.561C53.0546 264.542 52.0926 264.448 51.1289 264.413C50.5579 264.393 49.9838 264.453 49.4132 264.429C48.4529 264.389 47.4937 264.313 46.5348 264.247C46.3431 264.234 46.1538 264.173 45.9632 264.172C44.7908 264.165 43.6176 264.183 42.4456 264.162C41.8361 264.151 41.2288 264.052 40.6193 264.039C39.5814 264.018 38.5431 264.034 37.5049 264.034L35.3836 264.034C35.0304 264.034 34.6768 264.035 34.3232 264.037C34.2234 264.037 34.1238 264.081 34.0241 264.105L34.2097 264.198C34.2404 264.214 34.2708 264.23 34.3008 264.248C36.4486 265.485 38.3975 266.977 40.0695 268.812C41.1885 270.04 42.2112 271.344 42.8234 272.912C43.1101 273.646 43.394 274.39 43.5694 275.155C43.6759 275.618 43.5272 276.134 43.575 276.617C43.6384 277.257 43.5206 277.855 43.2911 278.434C42.5839 280.219 41.383 281.574 39.7523 282.594C38.6496 283.284 37.4945 283.824 36.225 284.057C35.2338 284.239 34.2206 284.335 33.213 284.383C32.3139 284.427 31.4037 284.406 30.5087 284.314C29.7441 284.235 28.9973 283.996 28.2367 283.862C27.4229 283.718 26.599 283.631 25.7852 283.487C25.264 283.395 24.7572 283.223 24.2366 283.125C23.1434 282.919 22.0421 282.756 20.9507 282.541C20.4149 282.436 19.8957 282.249 19.3655 282.112L19.0965 282.042C18.9166 281.996 18.7354 281.954 18.5534 281.932L18.4167 281.92C17.9735 281.892 17.7104 281.512 17.8982 281.09C17.9072 281.069 18.0286 281.088 18.0934 281.106C18.6452 281.251 19.1948 281.406 19.7474 281.548L21.0955 281.896C21.5452 282.01 21.9954 282.123 22.447 282.229C23.5657 282.493 24.6861 282.752 25.8125 282.98C26.4896 283.117 27.1728 283.228 27.8572 283.327L28.8045 283.46C29.4312 283.547 30.0599 283.627 30.689 283.643C31.5501 283.665 32.4138 283.555 33.2772 283.528C33.9415 283.507 34.6093 283.556 35.2713 283.512C35.7164 283.483 36.174 283.398 36.591 283.244C37.5905 282.874 38.5844 282.481 39.5523 282.037C40.7306 281.495 41.5973 280.538 42.414 279.579C42.7004 279.243 42.708 278.623 42.7184 278.13C42.7208 278.006 42.2542 277.82 41.981 277.753C40.7895 277.462 39.581 277.236 38.3954 276.923C37.4536 276.675 36.5401 276.32 35.6051 276.042C34.9139 275.837 34.2033 275.696 33.5101 275.496C32.4687 275.195 31.8495 274.317 31.9305 273.304C31.9316 273.289 31.8847 273.268 31.8874 273.257C32.0441 272.576 31.7286 272.415 30.9 272.576C30.1638 272.72 29.3974 272.705 28.6456 272.773C28.2549 272.809 27.8624 272.853 27.4788 272.933C26.5527 273.125 25.6382 273.462 24.7063 273.514C23.7052 273.57 22.6904 273.335 21.8801 272.651C21.0431 271.945 20.2355 271.203 19.4224 270.469C18.8166 269.922 18.2216 269.362 17.6245 268.806C17.5316 268.719 17.453 268.617 17.3678 268.522C17.5338 268.518 17.7545 268.444 17.8572 268.523C18.5544 269.059 19.3062 269.556 19.8881 270.202L20.3183 270.681C21.0388 271.474 21.7941 272.217 22.8466 272.513C23.6819 272.748 24.6007 272.775 25.4775 272.747C26.3072 272.721 27.1379 272.534 27.9549 272.357C28.47 272.245 28.984 272.09 29.4728 271.889L29.6548 271.812C30.5882 271.402 31.6501 271.473 32.3779 272.174L32.6264 272.425C32.8673 272.674 33.1057 272.968 33.031 273.38L33.0166 273.446C32.9894 273.553 33.002 273.679 32.9486 273.768L32.8141 273.994C32.589 274.386 32.6363 274.444 33.136 274.601L33.2997 274.652C34.3343 274.968 35.3632 275.308 36.4084 275.585C37.5517 275.89 38.7172 276.11 39.8605 276.413C40.6689 276.627 41.4582 276.913 42.2532 277.175C42.5808 277.283 42.9936 276.9 43.0203 276.405C43.0463 275.92 43.1157 275.412 43.0047 274.953C42.8466 274.3 42.6331 273.627 42.2833 273.062C40.7965 270.658 39.0739 268.425 36.9654 266.533C35.6585 265.359 31.7222 263.187 28.6351 262.538C25.5479 261.889 20.6935 262.255 19.7474 262.806C18.8012 263.356 17.3804 263.991 16.7493 264.158C16.6948 264.173 16.5695 264.105 16.5535 264.052C16.3735 263.457 16.8128 263.177 17.2114 262.971C18.1521 262.484 19.116 262.038 20.0898 261.62C21.3734 261.07 22.7707 260.999 24.1278 260.846C24.865 260.762 25.6487 261.049 26.406 261.196C27.1538 261.342 27.9047 261.488 28.6351 261.7C29.029 261.814 29.3844 262.063 29.7548 262.255C31.2263 263.021 32.6442 262.987 34.0604 262.069C34.5082 261.779 35.09 261.704 35.5746 261.461C37.6962 260.394 39.8064 259.306 41.9169 258.219C43.973 257.159 46.0245 256.092 48.0785 255.028C48.3396 254.893 48.6096 254.773 48.8606 254.622C48.9019 254.596 48.9043 254.39 48.8575 254.354C47.8799 253.585 46.904 252.815 45.9056 252.074C43.9033 250.588 41.8583 249.159 39.8896 247.631C38.8153 246.797 37.8026 245.864 36.8646 244.878C34.7988 242.708 32.8373 240.437 30.7579 238.28C28.9357 236.39 27.0288 234.58 25.1054 232.792C24.8951 232.597 24.1712 232.617 23.955 232.822C22.9134 233.808 21.9635 234.892 20.9832 235.943C20.8804 236.053 20.8001 236.185 20.6935 236.291C20.6317 236.352 20.5383 236.382 20.4591 236.426C20.4542 236.339 20.4307 236.247 20.4475 236.164C20.5765 235.524 20.5892 234.82 20.8829 234.266C21.1745 233.715 23.3139 231.484 24.3957 231.484C25.4775 231.484 35.1146 241.564 35.1146 241.564C36.5772 243.156 38.0522 244.736 39.5928 246.248C41.9734 248.585 44.519 250.751 47.2874 252.633C48.585 253.516 50.0355 253.938 51.5906 253.795C52.3328 253.727 53.0425 253.349 53.7861 253.228C54.4998 253.112 55.2386 253.152 55.9662 253.114C56.887 253.067 57.7526 253.32 58.6356 253.535C59.7012 253.794 60.7142 254.161 61.7067 254.619C64.2176 255.777 66.3649 257.493 68.6282 259.037C70.4326 260.268 72.2693 261.463 74.1687 262.538C75.2239 263.135 76.4144 263.532 77.5861 263.876C78.5845 264.169 79.6436 264.254 80.6742 264.439C80.9907 264.496 81.3003 264.593 81.6168 264.65L82.6873 264.842C83.2229 264.936 83.7589 265.027 84.2969 265.104C85.3813 265.259 86.4705 265.382 87.5587 265.511C88.7353 265.651 89.9125 265.783 91.0898 265.915C91.919 266.008 92.749 266.094 93.5782 266.185C94.3856 266.273 95.1909 266.391 96.0004 266.446C97.0556 266.519 98.1161 266.521 99.1713 266.596C99.795 266.64 100.41 266.792 101.033 266.85C101.812 266.922 102.595 266.94 103.375 266.995C103.538 267.007 103.695 267.11 103.858 267.12C104.727 267.175 105.602 267.179 106.468 267.27C107.255 267.352 108.028 267.576 108.816 267.641C109.631 267.709 110.456 267.653 111.277 267.669C111.438 267.672 111.597 267.783 111.759 267.792C112.786 267.847 113.814 267.882 114.841 267.937C115.003 267.945 115.16 268.044 115.323 268.062C116.189 268.16 117.054 268.282 117.923 268.325C118.833 268.37 119.746 268.327 120.657 268.341C120.863 268.344 121.066 268.445 121.274 268.466C122.252 268.563 123.229 268.688 124.21 268.728C125.321 268.773 126.436 268.729 127.548 268.744C127.844 268.748 128.137 268.845 128.434 268.869L129.85 268.987C130.558 269.044 131.266 269.097 131.975 269.134C132.72 269.173 133.469 269.126 134.216 269.145C135.482 269.177 136.747 269.241 138.014 269.272C138.827 269.292 139.643 269.297 140.455 269.256C140.603 269.249 140.854 268.989 140.858 268.841C140.87 268.368 141.186 253.297 141.154 252.844C141.149 252.761 141.227 252.673 141.266 252.587C141.316 252.662 141.404 252.734 141.411 252.813C141.466 253.458 141.776 267.962 141.777 269.134C141.777 269.181 142.027 269.274 142.157 269.268C142.721 269.241 159.853 269.348 160.656 269.294C160.975 269.272 161.219 269.179 161.182 268.757C161.114 267.971 161.173 250.36 161.173 250.36C161.173 250.36 153.604 244.878 151.224 244.817ZM195.162 269.841C194.328 269.948 193.53 270.38 192.698 270.45C191.625 270.541 190.762 271.092 189.836 271.49C188.364 272.122 186.962 272.913 185.495 273.56C184.853 273.843 184.124 273.926 183.44 274.119C183.136 274.205 182.375 274.384 182.336 274.39L181.432 274.54C180.98 274.616 180.529 274.696 180.082 274.791C178.965 275.028 177.854 275.287 176.744 275.553C175.827 275.773 174.918 276.025 174.001 276.243L173.45 276.37C171.791 276.736 170.244 277.377 168.827 278.292C167.208 279.336 165.788 280.599 164.933 282.386C164.614 283.051 164.783 283.437 165.446 283.524C165.644 283.55 165.84 283.585 166.037 283.613C166.468 283.674 166.897 283.752 167.33 283.788C168.043 283.849 168.757 283.879 169.47 283.928C170.08 283.969 170.687 284.037 171.297 284.056C172.02 284.078 172.746 284.048 173.47 284.064C175.019 284.1 176.568 284.173 178.118 284.187C178.928 284.194 179.738 284.08 180.549 284.067C181.877 284.046 183.207 284.079 184.536 284.056C185.255 284.044 185.975 284.018 186.694 283.988L188.132 283.925C188.95 283.89 189.769 283.854 190.585 283.788C191.431 283.719 192.274 283.618 193.117 283.52C193.303 283.499 193.482 283.405 193.667 283.394C194.604 283.339 195.542 283.305 196.479 283.25C196.642 283.24 196.8 283.131 196.961 283.127C197.603 283.109 198.25 283.166 198.884 283.099C199.539 283.03 200.175 282.798 200.829 282.729C201.746 282.633 202.673 282.641 203.592 282.566C204.202 282.517 204.806 282.399 205.413 282.315C205.845 282.255 206.281 282.222 206.708 282.139C207.159 282.051 207.595 281.884 208.048 281.811C209.076 281.646 210.11 281.515 211.142 281.374C211.845 281.278 212.554 281.214 213.251 281.087C213.726 281.002 214.187 280.838 214.648 280.69C214.683 280.679 214.714 280.474 214.675 280.439C214.221 280.034 213.761 279.635 213.288 279.253C211.46 277.775 209.623 276.31 207.797 274.831C206.318 273.634 204.9 272.355 203.361 271.244C202.21 270.413 201.219 270.566 200.642 271.439L200.486 271.674C199.908 272.529 199.286 273.313 198.363 273.831C198.277 273.878 198.224 273.985 198.156 274.064C198.265 274.126 198.381 274.251 198.481 274.238C198.921 274.183 199.354 274.049 199.794 274.023C200.018 274.009 200.258 274.15 200.474 274.254C200.5 274.266 200.466 274.52 200.393 274.606C198.962 276.289 197.08 277.256 195.021 277.912C194.169 278.184 193.277 278.332 192.414 278.571C191.741 278.757 191.092 279.036 190.415 279.205C189.651 279.397 188.868 279.52 188.091 279.657C187.565 279.75 187.032 279.802 186.507 279.898C185.83 280.022 185.159 280.184 184.482 280.307C184.056 280.384 183.624 280.436 183.193 280.469C182.453 280.524 181.712 280.581 180.97 280.591C179.996 280.606 179.02 280.581 178.045 280.563C177.897 280.56 177.749 280.504 177.601 280.472C177.801 280.414 177.998 280.332 178.202 280.303C178.532 280.256 178.867 280.252 179.199 280.217C179.671 280.166 180.142 280.093 180.615 280.048C181.134 279.999 181.658 280 182.172 279.925C182.957 279.811 183.732 279.633 184.516 279.516C185.203 279.413 185.902 279.386 186.587 279.272C187.166 279.176 187.729 278.981 188.307 278.87C189.009 278.736 189.729 278.685 190.424 278.524C191.223 278.339 192.013 278.099 192.79 277.834C193.705 277.522 194.601 277.155 195.506 276.815C196.505 276.441 197.509 276.08 198.502 275.69C198.715 275.607 198.889 275.424 199.08 275.287C198.801 275.165 198.526 275.029 198.238 274.931C198.165 274.906 198.053 275.012 197.954 275.037C197.554 275.137 197.155 275.28 196.749 275.309C196.389 275.336 195.977 275.258 196 274.747C196.009 274.544 196.099 274.214 196.23 274.168C198.056 273.529 199.329 272.239 200.391 270.7C200.459 270.601 200.387 270.257 200.319 270.237C199.89 270.11 199.448 270.001 199.004 269.966C198.431 269.921 197.851 269.966 197.276 269.944C196.569 269.916 195.85 269.752 195.162 269.841ZM161.878 250.36L161.911 250.858C161.98 251.971 162.262 267.215 162.344 268.133C162.36 268.307 162.643 268.635 162.8 268.657C163.336 268.734 166.821 269.543 166.821 268.133C166.776 266.048 166.873 251.832 166.802 251.812C166.135 251.633 162.034 250.393 161.878 250.36ZM53.3649 254.062C51.8898 254.484 50.4258 254.982 49.0156 255.585C47.3973 256.277 45.8308 257.094 44.2635 257.9C42.4327 258.839 40.6273 259.828 38.8076 260.789C38.2755 261.071 37.7378 261.343 37.1922 261.597C36.303 262.009 35.4044 262.401 34.5121 262.806C34.4301 262.843 34.3631 262.914 34.2891 262.969C34.373 263.01 34.4535 263.078 34.5412 263.088L35.3094 263.187C35.8218 263.251 36.3345 263.312 36.849 263.351C37.1374 263.373 37.4359 263.24 37.7281 263.247C38.5705 263.266 39.4122 263.317 40.2536 263.363C40.5566 263.38 40.8578 263.42 41.1601 263.444C41.9405 263.508 42.7205 263.589 43.5022 263.625C44.4628 263.669 45.4248 263.675 46.4537 263.765C47.3086 263.72 48.1652 263.62 49.0184 263.645C50.1027 263.676 51.1829 263.842 52.2673 263.887C52.8729 263.912 53.4858 263.754 54.0922 263.775C55.803 263.835 57.5113 263.991 59.2225 264.019C60.7031 264.044 62.1861 263.915 63.6681 263.905C66.714 263.885 69.7601 263.891 72.8063 263.905C73.5045 263.909 74.2023 263.993 74.9008 264.028C74.982 264.031 75.0676 263.95 75.1508 263.909C75.096 263.861 75.0468 263.804 74.9858 263.766C73.0729 262.6 71.1572 261.437 69.245 260.269C67.6198 259.277 66.0255 258.229 64.3757 257.28L63.8234 256.968C62.0662 255.992 60.5284 254.584 58.4834 254.156C57.6843 253.989 56.8825 253.726 56.0789 253.714C55.1738 253.7 54.2346 253.813 53.3649 254.062Z" fill="#00160A"/>
<path fill-rule="evenodd" clip-rule="evenodd" d="M67.9262 245.787C68.9576 244.352 69.8988 242.906 70.9665 241.56C72.6763 239.405 74.4554 237.304 76.2345 235.205C77.1015 234.182 78.0188 233.2 78.9405 232.225C80.2249 230.868 81.4695 229.463 82.8485 228.207C85.071 226.182 87.3784 224.25 89.6699 222.302C92.2622 220.097 95.1112 218.249 98.0287 216.519C99.615 215.579 101.296 214.792 102.961 213.993C104.157 213.419 105.394 212.927 106.622 212.422C107.829 211.926 109.034 211.42 110.265 210.992C111.235 210.654 112.238 210.4 113.238 210.162C114.298 209.91 115.371 209.709 116.442 209.507C117.298 209.346 118.158 209.202 119.021 209.079C119.845 208.963 120.673 208.866 121.503 208.795C122.296 208.726 123.093 208.658 123.889 208.664C125.147 208.674 126.405 208.782 127.664 208.777C128.577 208.773 129.473 208.772 130.392 208.875C131.307 208.977 132.228 209.085 133.146 209.163C134.071 209.241 134.968 209.381 135.873 209.577C136.697 209.757 137.575 209.7 138.396 209.891C139.568 210.165 140.707 210.583 141.867 210.915C143.071 211.26 144.298 211.532 145.486 211.922C146.309 212.191 147.075 212.629 147.884 212.95C148.743 213.292 149.65 213.526 150.486 213.916C151.499 214.388 152.463 214.968 153.443 215.511C156.01 216.933 158.493 218.484 160.797 220.309C161.525 220.885 162.24 221.478 162.958 222.067C163.062 222.152 163.184 222.24 163.237 222.354C163.329 222.555 163.374 222.778 163.439 222.991C163.268 222.895 163.075 222.824 162.928 222.699C160.705 220.809 158.252 219.248 155.777 217.725C154.63 217.019 153.41 216.428 152.213 215.805C151.577 215.475 150.93 215.159 150.265 214.891C148.815 214.308 147.353 213.755 145.892 213.199C144.827 212.794 143.767 212.373 142.685 212.018C141.485 211.624 140.272 211.263 139.048 210.95C137.98 210.677 136.896 210.457 135.807 210.28C135.119 210.168 134.407 210.216 133.714 210.122C133.149 210.045 132.605 209.802 132.041 209.746C131.36 209.679 130.667 209.74 129.98 209.724C129.774 209.719 129.569 209.604 129.364 209.602C128.191 209.59 127.018 209.609 125.846 209.59C125.326 209.581 124.807 209.462 124.289 209.473C123.686 209.485 123.086 209.599 122.483 209.64C121.808 209.687 121.13 209.684 120.457 209.736C119.959 209.774 119.462 209.846 118.971 209.935C118.262 210.064 117.559 210.235 116.849 210.361C116.312 210.457 115.762 210.481 115.229 210.59C114.573 210.723 113.924 210.894 113.28 211.078C112.487 211.305 111.704 211.567 110.913 211.803C110.228 212.007 109.515 212.14 108.853 212.401C106.721 213.24 104.578 214.058 102.494 215.005C99.4656 216.382 96.5959 218.063 93.8614 219.956C92.143 221.146 90.4832 222.422 88.8202 223.689C85.4887 226.229 82.548 229.198 79.654 232.206C78.1754 233.743 76.8234 235.405 75.4652 237.052C74.0834 238.728 72.7338 240.432 71.4269 242.167C70.1224 243.898 68.856 245.66 67.6337 247.45C66.5548 249.029 65.5609 250.666 64.5237 252.274C64.4766 252.347 64.3694 252.381 64.2904 252.433C64.3039 252.357 64.2998 252.271 64.3341 252.205C65.0274 250.879 65.7069 249.545 66.429 248.235C66.8831 247.412 67.4024 246.624 67.9262 245.787Z" fill="#00160A"/>
<path fill-rule="evenodd" clip-rule="evenodd" d="M197.467 228.816C196.622 229.175 195.858 229.567 195.064 229.885C193.461 230.527 191.873 231.201 190.196 231.662C189.126 231.957 188.075 232.238 186.962 232.332C186.18 232.398 185.419 232.787 184.643 232.805C183.569 232.829 182.685 233.254 181.843 233.801C181.058 234.311 180.351 234.939 179.583 235.477C179.307 235.67 178.965 235.818 178.634 235.871C178.142 235.948 177.634 235.918 177.134 235.941C176.256 235.983 175.379 236.064 174.502 236.065C173.623 236.066 172.745 235.988 171.867 235.946C171.733 235.94 171.598 235.928 171.466 235.943C170.725 236.027 169.975 236.068 169.249 236.222C168.339 236.415 167.446 236.694 166.551 236.953C165.745 237.186 164.909 237.362 164.152 237.705C162.716 238.355 161.328 239.109 159.918 239.816C159.816 239.868 159.702 239.898 159.594 239.937C159.653 239.858 159.7 239.767 159.77 239.701C160.445 239.072 161.046 238.318 161.821 237.854C162.846 237.241 163.985 236.792 165.118 236.393C166.011 236.08 166.966 235.937 167.898 235.741C168.726 235.567 169.556 235.387 170.394 235.278C171.398 235.147 172.409 235.044 173.42 235.014C174.25 234.989 175.092 235.179 175.916 235.112C177.126 235.016 178.336 234.829 179.521 234.568C179.963 234.471 180.451 234.138 180.713 233.768C181.233 233.032 181.957 232.571 182.716 232.263C183.407 231.981 184.228 232.019 184.99 231.907C185.7 231.802 186.409 231.692 187.115 231.571C187.721 231.469 188.342 231.406 188.922 231.222C189.693 230.977 190.425 230.612 191.186 230.336C191.588 230.19 192.039 230.175 192.429 230.009C193.448 229.576 194.438 229.076 195.453 228.634C196.292 228.268 197.147 227.94 198 227.608C199.345 227.085 200.677 226.52 202.048 226.077C202.867 225.812 203.752 225.755 204.605 225.587C205.209 225.469 205.803 225.248 206.41 225.211C207.104 225.168 207.808 225.261 208.505 225.327C209.05 225.378 209.592 225.476 210.134 225.557C210.412 225.598 210.386 225.738 210.185 225.835C209.571 226.132 208.955 226.34 208.231 226.285C207.496 226.228 206.745 226.337 206.004 226.401C205.165 226.473 204.318 226.519 203.495 226.682C202.695 226.84 201.912 227.106 201.138 227.373C200.349 227.645 199.579 227.97 198.803 228.28C198.377 228.451 197.957 228.637 197.467 228.816Z" fill="#00160A"/>
<path fill-rule="evenodd" clip-rule="evenodd" d="M197.904 306.34C198.238 306.943 198.704 307.489 198.79 308.089C198.865 308.613 199.085 309.259 198.566 309.802C198.035 310.358 197.609 311.013 197.128 311.617C196.225 312.75 194.994 313.157 193.598 313.234C192.507 313.295 191.419 313.422 190.328 313.493C189.355 313.558 188.38 313.589 187.406 313.632C186.342 313.678 185.279 313.749 184.215 313.757C183.518 313.762 182.817 313.618 182.122 313.645C180.726 313.697 179.472 313.32 178.587 312.253C177.775 311.274 177.447 310.167 177.747 308.766C178.298 306.188 179.812 304.319 181.667 302.643C182.238 302.127 182.93 301.724 183.615 301.36C184.494 300.894 185.388 300.316 186.338 300.155C187.639 299.934 188.916 299.607 190.342 299.857C192.62 300.258 194.28 301.406 195.63 303.141C196.423 304.16 197.126 305.249 197.904 306.34ZM197.938 307.583C196.742 305.514 195.543 303.423 193.605 301.954C192.804 301.347 191.815 300.9 190.842 300.635C189.949 300.392 188.993 300.463 188.017 300.637C186.824 300.851 185.673 301.11 184.574 301.598C183.009 302.293 181.688 303.339 180.603 304.641C179.022 306.539 177.73 308.539 178.701 311.217C179.066 312.223 180.35 313.02 181.43 312.846C182.082 312.741 182.766 312.821 183.435 312.844C184.001 312.864 184.568 312.974 185.131 312.948C186.103 312.902 187.07 312.738 188.042 312.702C189.257 312.657 190.475 312.691 191.691 312.691C192.124 312.691 192.568 312.752 192.987 312.678C193.72 312.547 194.482 312.431 195.155 312.134C196.814 311.402 198.622 309.931 197.938 307.583Z" fill="#00160A"/>
<path fill-rule="evenodd" clip-rule="evenodd" d="M94.8089 310.44C95.4595 309.654 96.1494 308.95 96.6753 308.14C97.3413 307.113 97.3988 305.946 97.2542 304.726C97.1277 303.659 97.5298 302.698 98.2589 301.869C99.0749 300.941 100.152 300.448 101.243 299.986C102.225 299.57 103.212 299.892 104.118 300.243C104.533 300.404 104.875 300.917 105.109 301.348C105.748 302.521 106.074 303.82 106.515 305.075C106.861 306.062 106.576 306.848 106.12 307.533C105.677 308.197 104.967 308.725 104.284 309.177C103.439 309.736 102.536 310.245 101.594 310.61C100.585 311.001 99.5024 311.205 98.4492 311.478C98.0356 311.586 97.6172 311.686 97.1946 311.742C96.8791 311.784 96.5533 311.738 96.233 311.753C95.2245 311.798 94.2174 311.87 93.2086 311.9C92.4141 311.923 91.6178 311.9 90.8225 311.897C89.9739 311.893 89.1246 311.87 88.2766 311.89C87.4217 311.91 86.5682 311.976 85.7137 312.018C85.5352 312.026 85.3549 312.009 85.1771 312.023C85.0661 312.032 84.9583 312.077 84.8491 312.106C84.9389 311.988 85.0051 311.805 85.123 311.761C85.8382 311.496 86.5669 311.273 87.3475 311.347C87.3697 311.349 87.3926 311.348 87.4148 311.347C88.3532 311.271 89.2917 311.189 90.2308 311.123C90.6482 311.093 91.068 311.09 91.4867 311.084C91.9426 311.077 92.3988 311.072 92.8543 311.081C93.1837 311.087 93.5449 311.212 93.8337 311.113C94.18 310.995 94.4643 310.695 94.8089 310.44ZM98.2027 303.685C98.1951 304.17 98.1999 304.656 98.1764 305.14C98.1431 305.829 98.2429 306.574 98.0114 307.193C97.5316 308.474 96.7491 309.603 95.7591 310.572C95.6103 310.718 95.514 310.917 95.3933 311.091C95.6305 311.132 95.8683 311.208 96.1047 311.203C96.3858 311.198 96.6708 311.144 96.9447 311.074C97.7812 310.861 98.6406 310.701 99.441 310.391C101.045 309.77 102.632 309.099 104.193 308.375C105.025 307.988 105.62 307.305 105.648 306.327C105.665 305.747 105.567 305.164 105.476 304.581C105.321 303.575 104.86 302.745 104.455 301.866C104.16 301.228 103.585 300.828 102.981 300.769C102.271 300.7 101.496 300.836 100.81 301.065C99.5682 301.48 98.6725 302.325 98.2027 303.685Z" fill="#00160A"/>
<path fill-rule="evenodd" clip-rule="evenodd" d="M158.319 239.604C157.972 238.388 158.624 237.482 159.236 236.631C160.593 234.74 162.509 233.536 164.592 232.586C165.496 232.174 166.409 231.765 167.352 231.465C168.486 231.104 169.657 230.86 170.812 230.564C170.973 230.523 171.131 230.448 171.294 230.435C171.732 230.4 171.541 230.232 171.375 230.081C170.37 229.16 169.361 228.242 168.352 227.324C167.897 226.911 167.433 226.508 166.987 226.085C166.851 225.956 166.727 225.791 166.66 225.618C166.597 225.454 166.614 225.258 166.596 225.076C166.765 225.14 166.974 225.161 167.096 225.274C168.618 226.686 170.125 228.114 171.64 229.533C171.829 229.71 172.154 230.039 172.221 229.996C172.48 229.827 172.761 229.57 172.849 229.287C173.058 228.621 173.128 227.912 173.316 227.238C173.659 226.009 174.613 225.314 175.679 224.797C176.988 224.163 178.332 223.596 179.677 223.043C181.371 222.346 183.085 221.701 184.785 221.019C186.369 220.383 187.917 219.634 189.539 219.123C190.333 218.873 191.261 219.049 192.128 219.039C192.16 219.038 192.193 219.102 192.225 219.137C192.168 219.182 192.118 219.249 192.053 219.271C190.316 219.857 188.567 220.41 186.843 221.031C185.653 221.459 184.503 221.995 183.323 222.453C182.83 222.645 182.289 222.716 181.803 222.921C180.785 223.35 179.795 223.845 178.782 224.285C178.036 224.609 177.252 224.847 176.52 225.198C175.529 225.673 174.489 226.152 174.164 227.341C174.043 227.784 174.214 228.322 174.046 228.733C173.812 229.305 173.474 229.898 173.021 230.306C172.09 231.146 170.899 231.505 169.687 231.78C168.949 231.948 168.235 232.232 167.492 232.366C165.995 232.637 164.62 233.224 163.302 233.935C161.48 234.915 160.045 236.325 159.055 238.148C158.787 238.642 158.675 239.221 158.484 239.758C158.463 239.816 158.398 239.858 158.354 239.907C158.353 239.817 158.353 239.727 158.319 239.604Z" fill="#00160A"/>
<path fill-rule="evenodd" clip-rule="evenodd" d="M141.282 284.33C140.263 284.285 139.31 284.201 138.358 284.207C137.381 284.212 136.429 284.122 135.46 283.967C134.664 283.84 133.883 283.795 133.148 283.407C132.771 283.208 132.634 283.02 132.659 282.57C132.695 281.899 132.546 281.219 132.554 280.544C132.576 278.831 132.998 277.247 134.32 276.052C134.94 275.492 135.748 275.295 136.526 274.999C137.746 274.534 138.804 275.066 139.862 275.262C140.919 275.458 141.884 276.189 142.871 276.72C143.646 277.137 144.476 277.512 145.128 278.081C145.704 278.584 146.132 279.297 146.503 279.982C146.788 280.508 147.016 281.136 147.021 281.72C147.026 282.221 146.763 282.785 146.465 283.215C145.956 283.949 145.153 284.139 144.285 284.062C144.196 284.055 144.105 284.053 144.016 284.063C143.128 284.15 142.238 284.24 141.282 284.33ZM145.651 281.776C145.801 281.433 146.143 281.034 146.061 280.76C145.894 280.196 145.616 279.558 145.18 279.198C143.261 277.62 141.22 276.256 138.702 275.744C137.37 275.473 136.164 275.632 134.997 276.267C134.131 276.739 134.058 277.459 134.806 278.053C135.208 278.374 135.612 278.694 136.024 279.003C137.776 280.315 139.718 281.241 141.839 281.766C142.641 281.964 143.468 282.103 144.291 282.155C144.714 282.181 145.152 281.955 145.651 281.776ZM145.247 283.255C145.435 283.083 145.622 282.912 145.809 282.741C145.564 282.746 145.318 282.744 145.073 282.761C144.995 282.766 144.917 282.853 144.844 282.846C143.947 282.764 143.044 282.718 142.158 282.568C141.413 282.442 140.654 282.274 139.966 281.976C139.057 281.582 138.195 281.069 137.341 280.56C136.203 279.882 135.033 279.235 134.279 278.075C134.191 277.939 134.025 277.853 133.895 277.744C133.804 277.893 133.666 278.032 133.629 278.194C133.475 278.866 133.336 279.542 133.223 280.221C133.149 280.668 133.087 281.124 133.092 281.575C133.101 282.353 133.652 283.084 134.211 283.119C135.066 283.171 135.95 283.087 136.769 283.284C137.953 283.567 139.132 283.51 140.315 283.514C141.147 283.517 141.979 283.426 142.811 283.391C143.601 283.358 144.391 283.344 145.247 283.255Z" fill="#00160A"/>
<path fill-rule="evenodd" clip-rule="evenodd" d="M156.841 238.931C156.765 238.586 156.679 238.274 156.689 237.965C156.71 237.326 156.721 236.677 156.842 236.053C157.3 233.687 158.991 232.203 160.684 230.701C162.108 229.439 163.576 228.203 164.443 226.434C164.781 225.745 164.736 225.069 164.718 224.326C164.674 222.564 163.707 221.33 162.5 220.313C161.262 219.269 159.857 218.418 158.491 217.533C156.785 216.428 155.333 215.108 154.406 213.256C153.852 212.147 154.127 209.944 155.044 209.096C155.265 208.891 155.617 208.73 155.911 208.725C156.249 208.719 156.414 209.023 156.334 209.384C156.317 209.458 156.28 209.57 156.226 209.589C155.499 209.835 154.792 211.697 155.289 212.402C155.648 212.912 155.778 213.61 156.195 214.048C157.019 214.914 157.951 215.68 158.873 216.446C160.417 217.726 162.032 218.922 163.532 220.25C164.655 221.243 165.46 222.542 165.779 224.001C165.941 224.738 165.796 225.607 165.445 226.363C164.73 227.898 163.615 229.083 162.334 230.178C160.82 231.474 159.144 232.66 158.18 234.469C157.748 235.281 157.455 236.212 157.315 237.122C157.205 237.83 157.435 238.59 157.5 239.328C157.509 239.432 157.433 239.544 157.397 239.652C157.312 239.588 157.206 239.538 157.148 239.455C157.041 239.302 156.964 239.13 156.841 238.931Z" fill="#00160A"/>
<path fill-rule="evenodd" clip-rule="evenodd" d="M230.029 282.616C229.932 283.251 229.93 283.867 229.789 284.45C229.579 285.324 229.318 286.193 228.992 287.03C228.613 288.004 228.169 288.956 227.7 289.891C227.391 290.507 227.007 291.089 226.615 291.657C226.477 291.857 226.214 291.97 226.01 292.126C225.576 292.458 225.468 291.929 225.47 291.811C225.493 290.737 225.437 289.664 225.761 288.599C225.997 287.82 225.977 286.967 226.113 286.154C226.205 285.607 226.381 285.074 226.499 284.53C226.676 283.714 226.826 282.893 227.006 282.077C227.311 280.689 227.633 279.314 229.008 278.512C229.283 278.351 229.411 278.352 229.688 278.532C230.313 278.939 230.576 279.409 230.412 280.169C230.24 280.961 230.175 281.777 230.029 282.616ZM229.726 281.44C229.758 280.826 229.811 280.212 229.806 279.599C229.804 279.428 229.666 279.196 229.521 279.108C229.411 279.041 229.121 279.098 229.03 279.203C228.739 279.537 228.44 279.89 228.26 280.288C227.707 281.509 227.39 282.784 227.267 284.136C227.167 285.242 226.812 286.325 226.571 287.418C226.502 287.733 226.422 288.046 226.369 288.363C226.227 289.209 226.095 290.056 225.965 290.904C225.938 291.076 225.936 291.253 225.922 291.427C226.115 291.306 226.405 291.23 226.485 291.057C227.096 289.738 227.702 288.415 228.236 287.065C228.613 286.109 228.907 285.116 229.175 284.122C229.303 283.649 229.248 283.129 229.344 282.643C229.416 282.276 229.595 281.93 229.726 281.44Z" fill="#00160A"/>
<path fill-rule="evenodd" clip-rule="evenodd" d="M66.8173 313.363C66.3316 313.273 65.9159 313.166 65.494 313.098C64.8388 312.993 64.1715 312.952 63.5243 312.813C62.7398 312.646 61.965 312.425 61.1971 312.191C60.5027 311.98 59.8226 311.721 59.1386 311.476C59.1143 311.467 59.0953 311.343 59.1136 311.331C59.2655 311.225 59.4187 311.067 59.5861 311.047C60.9683 310.879 62.1359 311.677 63.4275 311.933C64.5033 312.146 65.555 312.482 66.6335 312.675C67.3615 312.805 68.1186 312.769 68.8605 312.83C69.2047 312.859 69.5445 312.941 69.8853 313.004C70.7734 313.167 71.6564 313.368 72.5501 313.487C73.2867 313.584 74.0411 313.547 74.7778 313.645C75.3407 313.719 75.8919 313.899 76.4425 314.053C77.5119 314.353 78.5772 314.667 79.6436 314.977C79.7098 314.996 79.7711 315.034 79.8346 315.064C79.7739 315.079 79.7115 315.112 79.6526 315.108C79.0116 315.053 78.3685 315.013 77.731 314.929C76.9794 314.831 76.2338 314.689 75.4836 314.578C75.0849 314.519 74.6824 314.485 74.2813 314.443C73.4001 314.35 72.5144 314.29 71.639 314.16C70.876 314.046 70.1303 313.818 69.3673 313.707C68.5946 313.594 67.8098 313.566 67.0308 313.492C66.9785 313.487 66.933 313.407 66.8173 313.363Z" fill="#00160A"/>
<path fill-rule="evenodd" clip-rule="evenodd" d="M151.368 248.106C152.51 247.701 154.961 249.57 154.165 251.486C153.245 253.699 150.393 253.277 149.636 252.321C148.215 250.525 149.197 248.877 151.368 248.106ZM150.042 249.824C148.612 251.192 151.01 252.791 152.074 252.434C154.895 251.486 153.11 246.888 150.042 249.824Z" fill="#00160A"/>
<path fill-rule="evenodd" clip-rule="evenodd" d="M230.23 285.774C230.917 284.517 231.47 283.219 232.676 282.397C232.821 282.298 233.111 282.174 233.167 282.229C233.322 282.383 233.475 282.625 233.477 282.834C233.492 284.779 232.226 286.231 231.467 287.873C231.067 288.74 230.495 289.528 229.993 290.347C229.892 290.511 229.768 290.664 229.633 290.8C229.507 290.928 229.244 291.138 229.226 291.122C229.015 290.916 228.747 290.699 228.677 290.436C228.606 290.173 228.707 289.844 228.792 289.562C229.092 288.551 229.402 287.543 229.741 286.546C229.832 286.279 230.042 286.053 230.23 285.774ZM229.525 288.496C229.435 288.989 229.343 289.481 229.257 289.975C229.236 290.097 229.234 290.222 229.224 290.346C229.347 290.239 229.512 290.156 229.586 290.022C230.532 288.29 231.484 286.561 232.388 284.807C232.637 284.325 232.742 283.767 232.888 283.238C232.908 283.167 232.802 283.002 232.725 282.979C232.639 282.953 232.462 283.009 232.423 283.081C231.471 284.86 230.533 286.645 229.525 288.496Z" fill="#00160A"/>
<path fill-rule="evenodd" clip-rule="evenodd" d="M156.458 241.93C156.458 239.907 160.838 241.531 161.209 242.117C161.302 242.264 161.492 247.837 161.166 247.053C160.819 246.176 161.059 242.641 160.679 242.398C159.447 241.789 157.958 241.475 157.372 241.682C156.361 241.919 157.438 246.203 156.8 245.477C156.763 245.351 156.729 245.223 156.688 245.098C156.642 244.957 156.458 242.911 156.458 241.93Z" fill="#00160A"/>
<path fill-rule="evenodd" clip-rule="evenodd" d="M175.423 234.328C175.125 234.276 174.805 234.302 174.676 234.157C174.059 233.468 173.491 232.734 172.91 232.013C172.817 231.899 172.745 231.767 172.664 231.643C172.941 231.604 173.321 231.431 173.473 231.55C173.88 231.867 174.227 232.282 174.526 232.708C174.886 233.221 175.172 233.786 175.423 234.328Z" fill="#00160A"/>
<path fill-rule="evenodd" clip-rule="evenodd" d="M159.025 242.316C159.04 242.143 159.466 242.526 159.477 242.664C159.538 243.434 159.835 246.833 159.559 246.475C159.402 246.144 159.259 245.225 159.19 244.862C159.121 244.499 159.025 243.451 159.025 242.316Z" fill="#00160A"/>
<path fill-rule="evenodd" clip-rule="evenodd" d="M165.659 258.267C165.65 259.047 165.677 259.827 165.659 260.606C165.648 261.067 164.412 261.25 163.868 260.975C163.323 260.7 163.493 258.586 163.463 258.267C163.367 257.268 163.328 256.26 163.175 255.27C163.074 254.618 163.008 253.833 163.319 253.733C164.447 253.368 165.449 254.773 165.4 254.822C165.529 255.833 165.66 258.156 165.659 258.267ZM163.998 256.035C164.043 256.218 164.1 259.402 164.179 260.538C164.192 260.727 164.92 260.727 165.078 260.397C165.229 259.487 164.913 256.234 164.92 255.148C164.921 254.974 164.701 254.726 164.522 254.637C163.929 254.345 163.823 254.427 163.868 255.084C163.887 255.357 163.954 255.629 163.998 256.035Z" fill="#00160A"/>
<path fill-rule="evenodd" clip-rule="evenodd" d="M126.057 274.49C126.236 274.421 126.436 274.51 126.505 274.689C126.574 274.868 126.485 275.068 126.307 275.137C118.368 278.204 118.368 284.207 126.443 293.463C133.664 301.739 147.165 309.396 166.945 316.414C167.126 316.478 167.22 316.676 167.156 316.856C167.092 317.037 166.894 317.131 166.713 317.067C146.831 310.013 133.235 302.303 125.921 293.919C117.573 284.35 117.573 277.768 126.057 274.49Z" fill="#E7EAEE"/>
<path d="M139.46 314.995C139.523 314.814 139.72 314.718 139.901 314.781C140.082 314.843 140.178 315.041 140.115 315.222C138.574 319.677 135.761 323.39 131.682 326.353C127.617 329.307 120.901 331.981 111.525 334.386C111.34 334.434 111.151 334.322 111.103 334.136C111.055 333.951 111.167 333.762 111.353 333.714L112.005 333.545C120.962 331.204 127.388 328.616 131.274 325.792C135.241 322.911 137.966 319.314 139.46 314.995Z" fill="#09EEE3"/>
<path fill-rule="evenodd" clip-rule="evenodd" d="M139.845 318.79C139.889 318.604 140.075 318.488 140.262 318.531C140.448 318.575 140.564 318.761 140.521 318.948C139.13 324.907 136.171 329.171 131.648 331.716C127.18 334.23 122.364 335.939 117.203 336.845C117.015 336.878 116.835 336.752 116.802 336.563C116.769 336.375 116.895 336.195 117.083 336.162C122.168 335.27 126.909 333.587 131.308 331.111C135.653 328.667 138.497 324.568 139.845 318.79Z" fill="#E7EAEE"/>
<path fill-rule="evenodd" clip-rule="evenodd" d="M161.541 318.44C161.586 318.254 161.773 318.139 161.96 318.184C168.807 319.833 174.869 320.753 180.144 320.946L180.54 320.959C185.809 321.118 193.421 320.698 203.37 319.696C203.56 319.677 203.73 319.816 203.749 320.006C203.768 320.197 203.63 320.367 203.439 320.386L201.941 320.534C192.448 321.456 185.175 321.824 180.119 321.639C174.794 321.444 168.687 320.517 161.797 318.858C161.611 318.813 161.497 318.626 161.541 318.44Z" fill="#E7EAEE"/>
<path fill-rule="evenodd" clip-rule="evenodd" d="M110.878 277.67C111.035 277.56 111.251 277.598 111.361 277.755C111.471 277.911 111.433 278.128 111.277 278.237C109.35 279.592 108.339 280.961 108.211 282.335C108.082 283.726 108.86 285.644 110.566 288.064C110.676 288.221 110.639 288.437 110.483 288.547C110.326 288.658 110.11 288.62 110 288.464C108.206 285.921 107.373 283.864 107.521 282.271C107.671 280.66 108.801 279.13 110.878 277.67Z" fill="#00160A"/>
<path fill-rule="evenodd" clip-rule="evenodd" d="M111.625 279.262C111.735 279.184 111.888 279.211 111.966 279.322C112.044 279.432 112.017 279.585 111.906 279.663C110.543 280.621 109.828 281.59 109.738 282.562C109.646 283.546 110.196 284.903 111.404 286.616C111.482 286.726 111.455 286.879 111.345 286.958C111.234 287.036 111.081 287.009 111.003 286.898C109.734 285.099 109.145 283.644 109.249 282.517C109.355 281.378 110.155 280.295 111.625 279.262Z" fill="#00160A"/>
<defs>
<linearGradient id="paint0_linear_20_6" x1="130" y1="0" x2="130" y2="530" gradientUnits="userSpaceOnUse">
<stop stop-color="#FFF61D"/>
<stop offset="0.992453" stop-color="#BCAD88"/>
</linearGradient>
</defs>
</svg>
