<svg width="200" height="200" viewBox="0 0 200 200" fill="none" xmlns="http://www.w3.org/2000/svg">
<path d="M100 18.75C55 18.75 18.75 55 18.75 100C18.75 145 55 181.25 100 181.25C145 181.25 181.25 145 181.25 100C181.25 91.2625 180.075 82.5438 176.95 74.4125L166.8 84.375C168.05 89.375 168.756 94.3875 168.756 100C168.756 138.138 138.144 168.75 100.006 168.75C61.8687 168.75 31.25 138.138 31.25 100C31.25 61.8625 61.8625 31.25 100 31.25C118.75 31.25 135.594 38.7187 147.462 50.5875L156.25 41.8C141.875 27.4125 121.875 18.75 100 18.75ZM170.506 45.5063L100 116.019L73.2437 89.2563L64.2563 98.2437L95.5063 129.494L100 133.788L104.494 129.494L179.494 54.4937L170.506 45.5063Z" fill="black"/>
</svg>
