<svg width="40" height="40" viewBox="0 0 40 40" fill="none" xmlns="http://www.w3.org/2000/svg">
<rect width="40" height="40" rx="20" fill="#EBD8A9"/>
<path d="M14.1667 8.33333H9.49999C9.19058 8.33333 8.89383 8.45625 8.67504 8.67504C8.45624 8.89384 8.33333 9.19058 8.33333 9.5V30.5C8.33333 30.8094 8.45624 31.1062 8.67504 31.325C8.89383 31.5438 9.19058 31.6667 9.49999 31.6667H14.1667C14.4761 31.6667 14.7728 31.5438 14.9916 31.325C15.2104 31.1062 15.3333 30.8094 15.3333 30.5V9.5C15.3333 9.19058 15.2104 8.89384 14.9916 8.67504C14.7728 8.45625 14.4761 8.33333 14.1667 8.33333ZM11.8333 30.5C11.3718 30.5 10.9207 30.3632 10.537 30.1068C10.1533 29.8504 9.85421 29.486 9.67761 29.0596C9.501 28.6332 9.4548 28.1641 9.54483 27.7115C9.63486 27.2588 9.85709 26.8431 10.1834 26.5168C10.5097 26.1904 10.9255 25.9682 11.3781 25.8782C11.8307 25.7881 12.2999 25.8343 12.7263 26.0109C13.1526 26.1876 13.517 26.4866 13.7734 26.8703C14.0298 27.2541 14.1667 27.7052 14.1667 28.1667C14.1667 28.7855 13.9208 29.379 13.4832 29.8166C13.0457 30.2542 12.4522 30.5 11.8333 30.5ZM14.1667 20H9.49999V9.5H14.1667V20Z" fill="black"/>
<path d="M11.845 29.345C12.4893 29.345 13.0117 28.8227 13.0117 28.1783C13.0117 27.534 12.4893 27.0117 11.845 27.0117C11.2007 27.0117 10.6783 27.534 10.6783 28.1783C10.6783 28.8227 11.2007 29.345 11.845 29.345Z" fill="black"/>
<path d="M22.3333 8.33333H31.6667V10.69H22.3333V8.33333ZM17.6667 8.33333H20.0117V10.69H17.6667V8.33333ZM22.3333 13H31.6667V15.3567H22.3333V13ZM17.6667 13H20.0117V15.3567H17.6667V13ZM22.3333 17.6667H31.6667V20.0233H22.3333V17.6667ZM17.6667 17.6667H20.0117V20.0233H17.6667V17.6667Z" fill="black"/>
</svg>
