<svg width="400" height="400" viewBox="0 0 400 400" fill="none" xmlns="http://www.w3.org/2000/svg">
<path fill-rule="evenodd" clip-rule="evenodd" d="M37.0732 138.276C53.251 165.185 101.523 197.886 111.032 198.609C141.11 200.893 183.931 205.948 222.176 207.305L223.334 207.345C236.846 207.8 255.187 207.844 278.357 207.48C282.928 203.386 287.193 200.473 291.153 198.742L291.465 198.609C293.585 197.712 299.048 192.003 312.809 186.143C316.595 184.531 327.79 188.134 335.618 185.265L335.999 185.122C342.323 182.707 352.749 176.442 367.278 166.324C367.19 166.088 367.1 165.852 367.008 165.617C367.351 166.192 367.689 166.769 368.023 167.348C368.356 167.926 394.118 229.444 346.877 277.089C314.664 309.578 229.031 340.187 154.649 322.69C-34.5413 281.808 29.1632 125.118 37.0732 138.276Z" fill="#EBD8A9"/>
<path fill-rule="evenodd" clip-rule="evenodd" d="M354.734 233.027C355.79 231.092 356.642 229.095 358.497 227.831C358.719 227.679 359.166 227.487 359.252 227.573C359.491 227.81 359.725 228.182 359.728 228.503C359.752 231.495 357.805 233.729 356.637 236.256C356.02 237.59 355.141 238.803 354.368 240.062C354.214 240.314 354.023 240.55 353.815 240.759C353.621 240.956 353.216 241.279 353.189 241.254C352.864 240.937 352.452 240.604 352.343 240.199C352.235 239.794 352.391 239.289 352.521 238.854C352.982 237.299 353.459 235.748 353.981 234.214C354.121 233.804 354.444 233.455 354.734 233.027Z" fill="white"/>
<path fill-rule="evenodd" clip-rule="evenodd" d="M354.424 228.168C354.274 229.145 354.271 230.093 354.055 230.99C353.731 232.335 353.33 233.671 352.828 234.959C352.246 236.458 351.563 237.923 350.842 239.361C350.366 240.308 349.775 241.203 349.172 242.078C348.96 242.386 348.555 242.559 348.242 242.799C347.574 243.31 347.407 242.496 347.411 242.314C347.445 240.661 347.359 239.012 347.858 237.372C348.221 236.174 348.191 234.862 348.401 233.612C348.541 232.769 348.811 231.949 348.993 231.113C349.266 229.858 349.497 228.594 349.773 227.34C350.242 225.204 350.738 223.088 352.853 221.854C353.277 221.607 353.474 221.609 353.9 221.886C354.861 222.511 355.266 223.234 355.013 224.403C354.749 225.622 354.648 226.877 354.424 228.168Z" fill="white"/>
<path fill-rule="evenodd" clip-rule="evenodd" d="M306.12 267.646C304.28 264.462 302.435 261.245 299.454 258.985C298.222 258.051 296.7 257.363 295.203 256.955C293.83 256.581 292.359 256.691 290.858 256.959C289.022 257.287 287.25 257.687 285.56 258.437C283.153 259.506 281.121 261.116 279.451 263.119C277.018 266.038 275.032 269.115 276.525 273.236C277.086 274.783 279.061 276.01 280.723 275.742C281.726 275.58 282.779 275.704 283.808 275.739C284.679 275.769 285.552 275.94 286.417 275.899C287.913 275.828 289.4 275.576 290.896 275.521C292.765 275.451 294.638 275.503 296.509 275.503C297.176 275.503 297.858 275.598 298.503 275.483C299.631 275.282 300.803 275.103 301.838 274.647C304.391 273.521 307.173 271.257 306.12 267.646Z" fill="white"/>
<path fill-rule="evenodd" clip-rule="evenodd" d="M145.147 273.214C145.147 273.214 149.548 273.62 155.156 271.407C160.764 269.194 162.162 265.174 162.162 265.174C162.162 265.174 160.958 259.407 159.82 258.054C158.624 256.631 156.379 256.556 155.156 257.134C154.012 257.675 151.661 258.151 150.078 260.641C149.245 261.952 149.735 264.433 148.371 268.282C147.863 269.716 145.147 273.214 145.147 273.214Z" fill="white"/>
<path fill-rule="evenodd" clip-rule="evenodd" d="M84.5803 269.591C84.5803 269.591 97.544 274.141 104.593 275.547C111.641 276.953 124.604 277.575 124.604 277.575C124.604 277.575 135.093 261.313 138.963 250.846C142.833 240.379 145.721 220.458 145.721 220.458C145.721 220.458 134.981 224.008 131.178 229.481C127.374 234.954 130.539 245.087 124.604 250.846C117.588 257.654 106.77 250.69 97.3083 255.122C87.8459 259.553 84.5803 269.591 84.5803 269.591Z" fill="white"/>
<path fill-rule="evenodd" clip-rule="evenodd" d="M129.763 312.387C143.942 313.644 195.26 295.899 206.604 283.674C210.154 279.847 213.399 272.238 210.067 268.503C200 257.221 156.263 242.411 164.924 222.418C167.817 215.74 185.747 210.986 185.747 210.986C185.747 210.986 188.895 209.419 189.327 208.663C189.759 207.908 187.97 207.096 187.97 207.096L206.604 207.406C206.604 207.406 206.362 212.037 203.929 213.89C197.203 219.012 189.327 219.012 187.97 226.395C186.074 236.706 204.95 251.181 215.058 256.728C240.705 270.806 248.489 284.072 338.114 275.011C326.222 282.449 294.911 301.251 248.263 310.973C172.067 326.853 118.138 311.356 129.763 312.387Z" fill="white"/>
<path fill-rule="evenodd" clip-rule="evenodd" d="M256.66 138.769C265.065 146.402 288.93 182.699 293.269 191.781C293.498 192.26 294.427 195.665 294.427 195.665C294.427 195.665 285.043 197.536 279.75 199.775C274.457 202.014 265.061 207.723 265.061 207.723C265.061 207.723 238.017 207.987 220.345 207.393C186.744 206.264 146.362 205.635 122.427 199.775C117.228 198.502 102.998 188.753 98.9083 182.634C94.5504 176.115 102.106 167.105 110.67 158.664C134.578 135.102 191.596 79.6726 256.66 138.769Z" fill="#FFB61D"/>
<path d="M305.929 146.279C304.629 146.997 302.405 146.278 301.184 146.915C298.717 148.202 296.255 145.719 293.676 146.642C292.029 147.231 290.413 147.794 288.7 147.982C287.498 148.114 286.326 148.892 285.134 148.927C283.48 148.976 282.12 149.827 280.824 150.923C279.618 151.943 278.53 153.199 277.349 154.275C276.924 154.662 276.397 154.959 275.888 155.063C275.132 155.219 273.284 155.158 272.514 155.205C271.164 155.287 269.814 155.451 268.464 155.453C267.112 155.454 248.196 160.85 246.028 162.267C245.87 162.37 245.696 162.429 245.53 162.508C245.619 162.349 245.692 162.167 245.8 162.036C246.839 160.778 247.764 159.961 248.956 159.033C250.533 157.805 252.285 156.907 254.028 156.11C255.402 155.482 256.871 155.197 258.304 154.805C259.579 154.456 260.855 154.096 262.145 153.877C263.688 153.615 265.245 153.408 266.799 153.348C268.077 153.299 269.372 153.678 270.639 153.547C272.501 153.352 275.429 152.98 277.253 152.457C277.932 152.262 278.683 151.596 279.086 150.855C279.886 149.383 281 148.461 282.167 147.843C283.231 147.279 284.494 147.355 285.667 147.13C286.758 146.92 287.849 146.7 288.936 146.46C289.868 146.254 290.823 146.128 291.716 145.759C292.902 145.27 294.028 144.54 295.199 143.987C295.817 143.695 296.512 143.664 297.112 143.332C298.679 142.465 322.489 136.616 324.884 137.622C327.278 138.629 323.603 141.324 322.489 141.213C321.358 141.1 320.203 141.317 319.062 141.445C317.772 141.59 316.468 141.682 315.203 142.008C313.972 142.325 312.767 142.857 311.577 143.39C310.363 143.934 309.178 144.586 307.984 145.206C307.329 145.547 306.683 145.92 305.929 146.279Z" fill="white"/>
<path d="M244.101 160.928C243.567 159.059 245.103 158.198 246.045 156.888C248.133 153.979 251.081 152.127 254.285 150.666C255.675 150.032 257.08 149.403 258.532 148.941C260.276 148.385 262.078 148.01 263.854 147.555C264.102 147.491 264.345 147.376 264.596 147.356C265.27 147.303 265.919 146.747 266.021 146.68C266.42 146.421 266.852 146.025 266.989 145.59C267.31 144.565 267.417 143.475 267.707 142.437C268.234 140.547 269.702 139.477 271.342 138.682C273.356 137.707 275.423 136.835 277.493 135.984C280.099 134.912 282.737 133.919 285.351 132.87C287.789 131.892 290.169 130.74 292.665 129.953C293.886 129.568 295.314 129.84 296.649 129.823C296.698 129.823 296.748 129.922 296.797 129.974C296.71 130.044 296.633 130.147 296.533 130.18C293.86 131.082 291.17 131.933 288.517 132.888C286.687 133.547 284.917 134.371 283.102 135.077C282.344 135.372 281.511 135.482 280.764 135.796C279.197 136.456 277.675 137.218 276.115 137.895C274.969 138.393 273.762 138.76 272.636 139.299C271.112 140.03 269.512 140.767 269.011 142.596C268.825 143.277 269.088 144.106 268.829 144.738C268.469 145.619 267.949 146.53 267.253 147.158C265.82 148.451 263.989 149.003 262.124 149.426C260.988 149.684 259.889 150.12 258.747 150.327C256.444 150.744 254.329 151.647 252.3 152.74C249.498 154.249 246.756 155.885 245.234 158.689C244.821 159.45 244.648 160.34 244.355 161.166C244.323 161.255 244.223 161.319 244.154 161.395C244.154 161.256 244.154 161.118 244.101 160.928Z" fill="white"/>
<path d="M242.36 159.894C242.243 159.364 242.111 158.883 242.127 158.407C242.158 157.425 242.176 156.427 242.362 155.466C243.066 151.827 245.668 149.542 248.273 147.233C250.463 145.29 252.722 143.389 254.056 140.668C254.576 139.608 254.507 138.567 254.478 137.425C254.411 134.714 252.924 132.816 251.067 131.251C249.163 129.645 247 128.335 244.899 126.974C242.274 125.273 240.04 123.244 238.615 120.394C237.762 118.687 238.186 115.298 239.595 113.994C239.936 113.678 240.477 113.431 240.93 113.423C241.45 113.414 241.703 113.881 241.58 114.436C241.555 114.551 241.498 114.724 241.415 114.752C240.297 115.131 239.208 117.995 239.973 119.08C240.526 119.865 240.725 120.938 241.367 121.613C242.634 122.944 244.068 124.124 245.487 125.301C247.861 127.27 250.347 129.112 252.655 131.154C254.382 132.682 255.621 134.68 256.112 136.924C256.36 138.058 256.138 139.396 255.597 140.558C254.497 142.92 252.781 144.744 250.812 146.428C248.482 148.422 245.904 150.246 244.421 153.029C243.756 154.279 243.305 155.71 243.089 157.11C242.921 158.201 243.275 159.369 243.374 160.505C243.388 160.665 243.272 160.837 243.216 161.003C243.086 160.904 242.922 160.828 242.832 160.7C242.669 160.465 242.55 160.199 242.36 159.894Z" fill="white"/>
<path fill-rule="evenodd" clip-rule="evenodd" d="M218.875 179.021V207.154L249.829 208.163H258.794V180.175H261.529L249.645 171.998C249.645 171.998 249.645 168.814 249.389 166.41C248.78 165.158 246.944 164.947 245.754 164.721C244.564 164.495 242.8 164.218 242.8 165.158C242.8 166.099 242.8 168.814 242.8 168.814L234.742 167.575L218.875 179.021Z" fill="white"/>
<path fill-rule="evenodd" clip-rule="evenodd" d="M244.419 207.985L249.829 208.161L248.229 177.475L244.898 175.029L244.419 207.985Z" fill="#E7EAEE"/>
<path fill-rule="evenodd" clip-rule="evenodd" d="M223.545 226.875C223.775 226.347 224.301 225.732 224.176 225.311C223.918 224.443 223.491 223.461 222.82 222.909C219.868 220.48 216.728 218.382 212.855 217.595C210.806 217.178 208.95 217.422 207.155 218.399C205.822 219.125 205.71 220.233 206.86 221.147C207.479 221.64 208.101 222.132 208.734 222.607C211.429 224.627 214.417 226.052 217.681 226.859C218.914 227.164 220.187 227.378 221.453 227.458C222.103 227.498 222.778 227.15 223.545 226.875Z" fill="white"/>
<path fill-rule="evenodd" clip-rule="evenodd" d="M232.653 168.95C229.861 168.879 213.323 181.396 212.954 181.185C212.585 180.974 228.707 168.796 231.047 167.171C232.26 166.328 233.519 166.372 234.793 167.272C236.569 168.525 247.563 175.511 249.044 176.208C250.746 177.009 260.883 179.347 260.356 179.992C260.057 180.163 258.559 180.297 258.105 180.236C257.974 180.219 257.712 180.337 257.698 180.424C257.242 183.139 258.006 205.098 258.113 206.203C258.132 206.408 258.341 206.652 258.53 206.774C259.3 207.274 260.149 207.218 261.029 207.252L261.176 207.259C262.726 207.339 264.129 207.014 265.439 206.335C267.149 205.449 268.785 204.416 270.442 203.43C272.186 202.393 273.908 201.32 275.657 200.293C278.077 198.873 280.717 197.934 283.338 196.989C284.926 196.417 286.614 196.103 288.274 195.749C289.711 195.443 291.171 195.244 292.621 194.998L292.655 194.996L294.077 195.031C293.87 194.6 293.682 194.158 293.453 193.739C292.657 192.281 291.809 190.851 291.052 189.373C290.16 187.633 289.41 185.818 288.479 184.099C286.391 180.237 284.247 176.404 282.092 172.579C280.044 168.944 277.954 165.331 275.877 161.712C275.604 161.236 275.289 160.785 275.011 160.312C274.941 160.191 274.938 160.03 274.903 159.889C275.026 159.98 275.179 160.05 275.264 160.168C276.295 161.6 277.37 163.003 278.33 164.482C281.039 168.66 283.753 172.838 286.361 177.08C287.734 179.313 288.897 181.677 290.146 183.987C291.01 185.585 291.878 187.181 292.706 188.798C293.129 189.626 293.465 190.499 293.841 191.35L294.452 192.746C294.758 193.443 295.069 194.137 295.405 194.82C295.477 194.966 295.945 195.063 296.145 194.98C298.395 194.044 300.718 193.233 302.844 192.066C306.229 190.207 309.433 188.02 312.809 186.144C314.362 185.281 316.1 184.65 317.831 184.242C319.019 183.962 320.244 183.753 321.622 184.074C323.857 184.596 325.894 185.569 328.05 186.232C329.513 186.682 331.029 186.734 332.61 186.613C335.643 186.38 337.956 184.606 340.524 183.375C342.224 182.56 343.867 181.622 345.529 180.728C349.226 178.739 352.915 176.734 356.616 174.752C358.847 173.557 361.096 172.394 363.337 171.217C363.564 171.098 363.781 170.951 364.02 170.869L364.263 170.786C364.479 170.715 364.708 170.657 364.786 170.733L364.868 170.818C365.256 171.226 365.462 171.661 364.676 172.054C362.932 172.928 361.214 173.852 359.493 174.769C357.257 175.959 355.031 177.17 352.794 178.36C350.643 179.502 348.48 180.622 346.33 181.765C344.064 182.97 341.811 184.197 339.547 185.403C338.108 186.17 336.73 187.2 335.193 187.589C333.795 187.942 332.383 188.617 330.762 188.111L330.593 188.054C328.598 187.336 326.431 187.107 324.402 186.466C322.787 185.956 321.148 185.607 319.505 185.738C317.61 185.888 315.681 186.193 313.876 186.77C310.971 187.697 308.515 189.498 306.098 191.333L305.387 191.872C303.328 193.423 301.22 194.904 298.675 195.621C298.019 195.806 297.369 196.018 296.73 196.253C296.681 196.272 289.536 196.484 281.835 199.154C274.523 201.689 266.634 206.685 266.654 206.736C267.189 208.08 301.771 205.673 302.593 205.746C303.609 205.836 304.627 205.896 305.644 205.954C306.022 205.976 306.404 205.939 306.781 205.962C307.765 206.02 308.747 206.103 309.73 206.161C310.108 206.183 310.489 206.146 310.867 206.168C311.885 206.227 312.901 206.309 313.919 206.368C314.297 206.389 314.678 206.353 315.056 206.375C316.039 206.433 317.021 206.515 318.005 206.575C318.348 206.596 318.694 206.562 319.038 206.581C320.056 206.64 321.074 206.718 322.092 206.777C322.435 206.797 322.781 206.768 323.124 206.788C324.176 206.849 325.227 206.928 326.279 206.989C326.622 207.009 326.969 206.975 327.313 206.995C328.331 207.054 329.348 207.133 330.366 207.193C330.709 207.213 331.055 207.182 331.398 207.202C332.45 207.262 333.501 207.342 334.554 207.402C334.897 207.422 335.243 207.405 335.587 207.405C336.461 207.405 337.335 207.384 338.207 207.414C338.629 207.429 339.044 207.573 339.467 207.606C340.551 207.692 341.638 207.754 342.725 207.816C343.034 207.834 343.346 207.804 343.655 207.822C344.707 207.883 345.758 207.961 346.81 208.023C347.042 208.036 347.275 208.032 347.508 208.028L347.741 208.026C348.58 208.026 349.421 207.982 350.257 208.035C351.937 208.142 353.612 208.322 355.292 208.433C356.789 208.532 358.291 208.573 359.79 208.647C361.049 208.71 362.307 208.789 363.566 208.852L365.365 208.944C366.265 208.989 367.165 209.03 368.065 209.053C369.75 209.098 371.436 209.092 373.121 209.121C373.219 209.122 373.394 209.23 373.4 209.3C373.447 209.805 373.459 210.313 373.482 210.82C373.214 210.785 372.947 210.73 372.678 210.717C371.167 210.642 369.653 210.607 368.145 210.498C366.877 210.406 365.618 210.175 364.35 210.109C363.02 210.04 361.684 210.105 360.351 210.084C360.068 210.079 359.791 209.922 359.506 209.892L357.66 209.692C356.839 209.604 356.018 209.527 355.195 209.489C353.727 209.419 352.253 209.497 350.783 209.461C350.231 209.448 349.685 209.275 349.132 209.221C348.693 209.178 348.247 209.22 347.806 209.195C347.326 209.167 346.849 209.103 346.369 209.06C344.795 208.921 343.222 208.726 341.645 208.662C339.935 208.593 338.22 208.671 336.508 208.634C335.82 208.619 335.134 208.466 334.446 208.383C333.985 208.327 333.523 208.271 333.06 208.235C332.078 208.158 331.095 208.089 330.112 208.029C329.769 208.008 329.422 208.042 329.078 208.023C327.958 207.962 326.838 207.861 325.716 207.83C325.153 207.814 324.584 207.964 324.019 207.954C323.094 207.937 322.171 207.838 321.245 207.8C320.642 207.774 320.035 207.822 319.432 207.789C318.369 207.729 317.308 207.614 316.244 207.557C315.597 207.522 314.947 207.565 314.298 207.548C313.811 207.536 313.324 207.454 312.838 207.463C312.533 207.469 312.229 207.585 311.925 207.651C312.097 207.797 312.267 207.946 312.442 208.089C314.321 209.625 316.186 211.18 318.085 212.69C320.231 214.396 322.42 216.046 324.567 217.749C326.442 219.236 328.282 220.766 330.141 222.271C330.758 222.77 331.39 223.249 332.016 223.735C332.398 224.031 332.346 224.189 331.939 224.348L331.878 224.371C330.501 224.869 329.163 225.494 327.761 225.902C326.515 226.264 325.202 226.387 323.924 226.641C322.791 226.866 321.672 227.169 320.534 227.354C319.813 227.47 319.067 227.417 318.334 227.468C317.66 227.516 316.985 227.576 316.317 227.677C315.306 227.83 314.307 228.071 313.293 228.187C312.428 228.286 311.548 228.244 310.676 228.296C309.933 228.34 309.189 228.401 308.453 228.505C307.374 228.657 306.306 228.902 305.224 229.018C304.289 229.117 303.338 229.056 302.399 229.128C301.399 229.204 300.407 229.381 299.408 229.467C298.079 229.581 296.746 229.641 295.415 229.745C295.062 229.772 294.716 229.919 294.363 229.938C292.783 230.024 291.202 230.072 289.622 230.158C289.097 230.187 288.578 230.318 288.053 230.354C286.761 230.439 285.468 230.531 284.174 230.56C280.297 230.646 276.419 230.732 272.541 230.759C270.916 230.771 269.286 230.536 267.665 230.596C266.251 230.648 264.876 230.603 263.469 230.399C262.163 230.21 260.804 230.425 259.476 230.339C258.391 230.268 257.321 230.002 256.239 229.852C254.951 229.673 253.658 229.537 252.371 229.35C252.208 229.326 251.924 229.05 251.947 228.989L252.161 228.444C252.844 226.722 253.596 225.042 254.815 223.588C256.317 221.796 258.1 220.383 260.107 219.234L260.382 219.079C261.119 218.67 261.847 218.237 262.614 217.893L263.766 217.372C264.664 216.97 265.569 216.584 266.503 216.3C268.007 215.843 269.576 215.606 271.114 215.261C271.984 215.065 272.842 214.805 273.718 214.644C275.019 214.404 276.334 214.246 277.636 214.016C278.614 213.843 279.588 213.636 280.551 213.396C281.829 213.077 283.106 212.747 284.365 212.361C286.996 211.556 289.574 210.624 291.811 208.95C291.929 208.862 292.067 208.802 292.195 208.729C292.028 208.633 291.871 208.503 291.692 208.449C291.534 208.402 291.35 208.44 291.178 208.44L289.041 208.442C288.685 208.441 288.328 208.441 287.973 208.438L270.697 208.332C264.939 208.298 259.18 208.266 253.421 208.244C251.072 208.235 248.722 208.431 246.373 208.425C243.162 208.415 239.95 208.309 236.74 208.23C234.528 208.175 232.317 208.061 230.105 208.04C228.997 208.029 227.886 208.23 226.779 208.219C224.291 208.193 221.803 208.103 219.316 208.022C217.69 207.97 216.065 207.841 214.439 207.834C213.158 207.828 211.877 208.004 210.596 208.011C209.556 208.015 208.516 207.844 207.477 207.855C207.26 207.857 206.813 208.423 206.87 208.55C207.561 210.088 206.717 211.317 205.974 212.428C204.507 214.619 202.404 216.008 199.851 216.771C198.379 217.212 196.95 217.801 195.516 218.365L194.978 218.575C192.219 219.642 190.012 221.303 189.201 224.309C188.79 225.83 188.542 227.34 188.773 228.988C189.283 232.621 191.068 235.52 193.43 238.147L193.604 238.338C194.892 239.748 196.148 241.204 197.564 242.478C200.454 245.077 203.37 247.658 206.412 250.075C209.386 252.437 212.459 254.691 215.62 256.795C218.345 258.607 221.238 260.174 224.092 261.787C225.927 262.824 227.802 263.8 229.706 264.707C231.304 265.468 232.977 266.071 234.602 266.779C236.038 267.405 237.427 268.149 238.885 268.717C240.9 269.502 242.948 270.209 245.005 270.878C246.862 271.483 248.739 272.039 250.63 272.53C252.247 272.95 253.902 273.226 255.531 273.606C257.634 274.096 259.721 274.658 261.828 275.127C263.428 275.483 265.044 275.764 266.661 276.035C268.119 276.281 269.585 276.485 271.052 276.675C272.325 276.838 273.602 276.981 274.881 277.086C276.114 277.188 277.354 277.205 278.587 277.308C279.854 277.413 281.114 277.602 282.381 277.702C282.981 277.75 283.591 277.658 284.197 277.661C285.545 277.668 286.894 277.675 288.241 277.721C289.076 277.75 289.907 277.901 290.741 277.911C293.084 277.939 295.428 277.921 297.771 277.921C298.921 277.921 300.073 277.974 301.218 277.906C302.474 277.831 303.751 277.418 304.97 277.565C306.454 277.746 307.842 277.528 309.271 277.317C309.924 277.22 310.607 277.353 311.268 277.291C313.173 277.111 315.07 276.844 316.977 276.693C318.634 276.562 320.301 276.576 321.959 276.459C322.815 276.4 323.658 276.171 324.513 276.067C325.366 275.964 326.229 275.949 327.082 275.845C327.98 275.735 328.88 275.604 329.764 275.413C331.52 275.033 333.282 274.659 335.012 274.181C336.279 273.831 337.5 273.317 338.745 272.885C338.822 272.859 338.973 272.878 339.006 272.929C339.048 272.996 339.048 273.156 338.998 273.208C338.251 273.972 337.535 274.777 336.716 275.454C336.47 275.658 336.085 275.717 335.713 275.756L335.385 275.789C334.32 275.905 333.241 275.91 332.186 276.077C331.114 276.246 330.075 276.613 329.004 276.784C327.918 276.957 326.81 276.989 325.713 277.097C325.177 277.149 324.642 277.22 324.109 277.302C322.826 277.502 321.549 277.749 320.261 277.911C318.841 278.09 317.41 278.187 315.985 278.338C315.155 278.426 314.331 278.58 313.499 278.653C312.105 278.775 310.707 278.848 309.312 278.961C308.924 278.992 308.544 279.119 308.156 279.157L306.617 279.308C305.59 279.408 304.564 279.502 303.535 279.563C302.493 279.625 301.444 279.553 300.399 279.58C298.394 279.632 296.389 279.77 294.385 279.767C292.092 279.763 289.798 279.676 287.508 279.565C285.758 279.48 284.015 279.262 282.266 279.174C281.005 279.11 279.735 279.214 278.474 279.145C277.446 279.089 276.429 278.865 275.403 278.754C274.481 278.655 273.552 278.619 272.627 278.538C272.057 278.487 271.484 278.43 270.921 278.328C270.244 278.203 269.577 278.02 268.903 277.875C268.29 277.743 267.674 277.614 267.055 277.51C265.924 277.319 264.792 277.13 263.656 276.974C262.734 276.848 261.798 276.819 260.883 276.659C260.117 276.525 259.373 276.262 258.618 276.06L255.037 275.099C254.441 274.939 253.843 274.781 253.245 274.625C251.584 274.191 249.897 273.844 248.259 273.337C245.842 272.587 243.458 271.727 241.06 270.915C239.185 270.28 237.29 269.698 235.441 268.996L234.635 268.689C233.291 268.171 231.953 267.621 230.699 266.93L226.437 264.587C222.885 262.631 219.348 260.65 215.912 258.508C212.282 256.246 208.909 253.568 205.462 251.019C201.653 248.203 198.326 244.845 195.069 241.433L194.57 240.906C192.25 238.437 190.085 235.825 188.637 232.717L188.485 232.382C187.964 231.21 187.265 229.976 187.235 228.756C187.167 226.025 187.675 223.394 189.719 221.256C191.339 219.56 193.302 218.443 195.316 217.39L196.634 216.707C198.995 215.482 201.377 214.291 203.674 212.955C204.49 212.481 205.203 211.706 205.745 210.918C206.338 210.055 205.825 208.899 204.78 208.668C202.986 208.272 201.172 207.914 199.347 207.723C196.829 207.459 194.294 207.356 191.765 207.214C191.546 207.202 191.202 207.348 191.105 207.525C189.759 209.969 187.649 211.487 185.079 212.346C183.088 213.011 181.015 213.43 179.002 214.036C177.497 214.489 176.054 215.162 174.537 215.558C172.503 216.089 170.729 217.129 169.159 218.403L168.71 218.773C166.779 220.393 165.053 222.237 164.571 224.925C164.211 226.928 164.312 228.824 164.911 230.824C165.78 233.724 167.568 235.919 169.535 238.045C170.517 239.108 171.561 240.113 172.601 241.12C175.813 244.233 179.287 247.016 182.922 249.629C187.206 252.708 191.731 255.339 196.414 257.753L197.517 258.316C200.218 259.691 202.934 261.062 205.303 263.021C207.204 264.592 208.93 266.317 210.067 268.505L210.442 269.227C211.034 270.387 211.593 271.621 211.626 272.827L211.645 273.523C211.669 274.618 211.651 275.765 211.313 276.921C210.135 280.952 207.513 283.904 204.579 286.621C201.572 289.406 198.212 291.75 194.616 293.74C193.151 294.551 191.746 295.482 190.244 296.212C188.806 296.911 187.269 297.404 185.788 298.019C184.092 298.723 182.442 299.552 180.714 300.163C178.264 301.03 175.759 301.74 173.283 302.531C171.7 303.037 170.139 303.614 168.544 304.075C166.588 304.64 164.601 305.097 162.637 305.637C161.351 305.99 160.095 306.452 158.805 306.785C157.188 307.202 155.545 307.517 153.921 307.91C152.358 308.29 150.815 308.753 149.247 309.107C147.263 309.555 145.266 309.943 143.27 310.336C141.492 310.686 139.709 311.015 137.925 311.339C136.34 311.628 134.752 311.894 133.165 312.174C132.738 312.25 132.31 312.403 131.888 312.386C131.708 312.379 131.556 312.011 131.364 311.838C131.091 311.595 130.793 311.38 130.506 311.153C130.903 311.104 131.306 311.083 131.696 311.002C132.996 310.734 134.287 310.421 135.59 310.169C137.118 309.873 138.661 309.653 140.185 309.343C141.289 309.118 142.366 308.769 143.468 308.534C144.911 308.225 146.373 308.009 147.812 307.687C148.865 307.451 149.887 307.086 150.933 306.822C151.699 306.628 152.492 306.543 153.254 306.342C154.525 306.007 155.773 305.587 157.046 305.26C158.319 304.933 159.619 304.711 160.891 304.38C162.224 304.034 163.53 303.585 164.862 303.233C166.39 302.83 167.943 302.521 169.466 302.102C170.364 301.854 171.214 301.433 172.107 301.16C173.64 300.691 175.212 300.341 176.729 299.826C178.931 299.077 181.102 298.234 183.28 297.415L184.762 296.859C185.749 296.486 186.734 296.107 187.706 295.698C192.457 293.701 196.963 291.269 200.967 287.99L201.918 287.211C203.183 286.169 204.436 285.108 205.594 283.956C207.268 282.291 208.718 280.401 209.534 278.157C210.013 276.842 210.433 275.43 210.468 274.051C210.502 272.761 210.131 271.47 209.629 270.173C208.904 268.303 207.829 266.779 206.341 265.629C204.321 264.069 202.132 262.712 199.94 261.392C195.038 258.437 189.978 255.729 185.197 252.593C181.981 250.484 179.044 247.943 176.061 245.49L175.501 245.031C173.544 243.434 171.615 241.779 169.846 239.979C167.404 237.493 165.087 234.904 163.755 231.556C163.094 229.898 162.879 228.294 162.952 226.55C163.114 222.693 165.306 220.09 168.041 217.714C170.642 215.453 173.713 214.192 176.932 213.206C178.917 212.598 180.94 212.117 182.933 211.534C184.652 211.03 186.373 210.519 188.047 209.889C188.567 209.693 189.147 209.17 189.327 208.664C189.704 207.61 189.114 207.1 187.97 207.097C187.026 207.093 186.085 206.87 185.14 206.792C183.975 206.695 182.802 206.687 181.641 206.566C180.589 206.457 179.552 206.197 178.5 206.095C177.431 205.991 176.351 206.005 175.276 205.952C175.088 205.942 174.905 205.832 174.716 205.817C173.455 205.718 172.19 205.663 170.932 205.536C169.808 205.422 168.695 205.198 167.572 205.089C166.54 204.989 165.5 204.976 164.464 204.923C164.332 204.916 164.2 204.895 164.068 204.883C162.751 204.758 161.432 204.659 160.119 204.503C159.002 204.37 157.896 204.128 156.777 204.016C155.775 203.916 154.763 203.931 153.755 203.887C153.594 203.88 153.435 203.822 153.273 203.809C151.951 203.695 150.627 203.605 149.307 203.47C148.246 203.362 147.194 203.174 146.133 203.07C145.073 202.967 144.006 202.934 142.943 202.849C142.692 202.828 142.452 202.674 142.201 202.657C140.966 202.571 139.725 202.555 138.495 202.429C137.411 202.319 136.343 202.049 135.26 201.939C134.258 201.838 133.243 201.867 132.235 201.813C132.019 201.802 131.812 201.637 131.596 201.623C130.326 201.538 129.055 201.485 127.786 201.403C127.403 201.379 127.026 201.276 126.644 201.252C126.564 201.246 126.473 201.432 126.387 201.529L126.57 201.589C126.6 201.599 126.631 201.608 126.662 201.614C127.726 201.848 128.801 202.045 129.854 202.319C131.106 202.644 132.361 202.978 133.58 203.408C137.884 204.925 141.942 206.916 144.856 210.558C145.959 211.936 146.669 213.648 147.437 215.265C147.839 216.113 148.139 217.075 148.199 218.004C148.293 219.455 148.149 220.922 148.097 222.382C148.063 223.315 148.063 224.254 147.957 225.179C147.853 226.075 147.643 226.958 147.46 227.843L146.958 230.282C146.705 231.501 146.447 232.719 146.167 233.932C145.947 234.886 145.565 235.802 145.322 236.752C145.073 237.722 144.935 238.721 144.695 239.694C144.418 240.819 144.068 241.925 143.776 243.045C143.455 244.275 143.192 245.52 142.852 246.744L142.651 247.461C142.447 248.178 142.229 248.891 141.955 249.58L141.814 249.923C141.618 250.377 141.693 250.396 142.008 250.417L142.11 250.424C143.989 250.558 145.881 250.614 147.739 250.892C149.119 251.099 150.457 251.598 151.811 251.976C152.892 252.277 153.97 252.59 155.049 252.9C155.141 252.926 155.228 252.966 155.318 253C155.231 253.035 155.144 253.1 155.057 253.101C154.206 253.109 153.347 253.18 152.506 253.089C151.126 252.941 149.743 252.751 148.389 252.454C147.419 252.242 146.505 251.78 145.542 251.521C145.082 251.397 144.558 251.426 144.076 251.488L143.395 251.575C142.599 251.677 141.803 251.794 141.037 252.01C139.778 252.365 139.165 253.421 138.607 254.472L138.422 254.821C136.828 257.816 135.294 260.844 133.717 263.848C131.946 267.223 130.153 270.586 128.371 273.956L128.228 274.236C127.594 275.505 127.099 276.881 125.74 277.607C125.453 277.761 125.043 277.684 124.69 277.714C124.723 277.448 124.679 277.139 124.801 276.924C126.098 274.631 127.424 272.357 128.735 270.073C129.934 267.986 131.176 265.921 132.307 263.797C134.034 260.554 135.757 257.305 137.339 253.991C138.555 251.444 139.578 248.802 140.638 246.183L141.305 244.541C142.082 242.624 142.847 240.701 143.507 238.745C144.269 236.488 144.828 234.161 145.441 231.855C145.805 230.483 146.22 229.108 146.402 227.707L146.524 226.766C146.786 224.725 147.025 222.668 146.987 220.625C146.954 218.843 146.598 216.98 145.966 215.313C144.603 211.718 142.08 208.987 138.795 207.001C136.632 205.692 134.372 204.604 131.862 204.069C130.459 203.77 129.115 203.19 127.713 202.884C126.532 202.627 125.306 202.483 124.097 202.466C122.392 202.442 120.685 202.599 118.978 202.643C117.714 202.675 116.447 202.601 115.186 202.667C114.433 202.707 113.69 202.925 112.943 203.063C111.821 203.269 110.684 203.417 109.581 203.695C107.288 204.275 104.958 204.774 102.741 205.573C97.0389 207.63 91.6906 210.428 86.7205 213.894C83.3536 216.243 80.2101 218.889 77.4341 221.927C74.449 225.194 71.8837 228.767 70.1402 232.86C69.4624 234.451 68.9237 236.108 68.4266 237.766C68.0741 238.942 67.7482 240.162 67.6789 241.378C67.592 242.903 67.7904 244.443 67.8432 245.978C67.8704 246.759 67.7946 247.546 67.864 248.322C67.929 249.053 68.0688 249.789 68.2752 250.494C68.5675 251.493 68.9402 252.469 69.2976 253.449C71.2677 258.844 74.6395 263.041 79.8544 265.6C81.0346 266.179 82.313 266.604 83.5893 266.929C84.4501 267.149 85.2293 266.9 85.7434 265.948C87.7685 262.195 90.4256 258.963 94.032 256.622C95.8624 255.435 97.7898 254.394 99.6906 253.318C101.275 252.421 103.005 251.957 104.793 251.644C105.891 251.452 106.953 250.979 108.051 250.89C109.293 250.789 110.559 250.977 111.815 251.037L112.125 251.038C114.038 251.107 115.956 251.289 117.863 251.211C119.601 251.141 121.278 250.812 122.961 250.101C125.388 249.077 126.616 247.339 127.235 244.989L127.623 243.459C127.851 242.553 128.066 241.644 128.204 240.725C128.353 239.727 128.149 238.677 128.284 237.675C128.472 236.274 128.742 234.871 129.14 233.516C129.442 232.492 129.947 231.528 130.365 230.537L130.501 230.205C131.36 228.04 132.839 226.29 134.455 224.707C136.365 222.836 138.545 221.281 141.145 220.426C142.163 220.091 143.149 219.658 144.163 219.307C144.316 219.254 144.539 219.403 144.73 219.458L144.506 219.606C144.468 219.631 144.43 219.654 144.392 219.677L143.707 220.076C140.17 222.142 136.691 224.295 133.966 227.437L133.693 227.753C132.653 228.966 131.673 230.23 131.275 231.868C131.004 232.985 130.387 234.03 130.201 235.154C129.955 236.642 129.986 238.176 129.878 239.688C129.856 240.007 129.724 240.317 129.683 240.637C129.524 241.873 129.561 243.167 129.196 244.337C128.418 246.835 127.115 249.064 124.744 250.397C123.462 251.118 122.114 251.83 120.705 252.186C119.446 252.505 118.085 252.462 116.758 252.472L116.474 252.475C113.913 252.513 111.35 252.465 108.788 252.491C105.454 252.524 102.169 253.009 99.1466 254.424C95.6213 256.076 92.4805 258.293 90.0122 261.407C88.4074 263.432 86.9536 265.519 86.1802 267.993C85.8565 269.03 84.993 268.825 84.4624 268.729L83.9162 268.629C82.6384 268.386 81.344 268.076 80.2032 267.507C78.3733 266.594 76.5818 265.509 74.9952 264.225C72.2352 261.989 69.9584 259.266 68.5824 255.961C67.6906 253.82 66.9498 251.574 66.5002 249.305C66.1882 247.731 66.4501 246.053 66.3946 244.419L66.3792 244.093C66.28 242.496 66.5456 240.973 66.9269 239.452L66.9994 239.167C67.5034 237.225 67.8117 235.207 68.5424 233.356C69.2154 231.65 70.233 230.076 71.1696 228.479L71.369 228.136C73.2912 224.798 75.7456 221.866 78.5072 219.21C82.0816 215.772 86.0544 212.835 90.321 210.305L92.0597 209.269C93.2208 208.582 94.3898 207.908 95.5925 207.302C96.9541 206.618 98.3925 206.081 99.8192 205.529L100.294 205.344C101.531 204.86 102.78 204.397 104.046 203.997C105.797 203.443 107.564 202.934 109.337 202.45C110.581 202.11 111.835 201.775 113.105 201.563C114.649 201.305 116.218 201.2 117.771 200.988C119.04 200.814 120.301 200.582 121.564 200.371C121.651 200.357 121.73 200.3 121.812 200.262C121.722 200.231 121.629 200.166 121.541 200.173C120.674 200.233 119.804 200.379 118.939 200.358C117.494 200.324 116.052 200.19 114.61 200.088C114.316 200.067 114.026 199.969 113.733 199.967C112.137 199.954 110.539 199.985 108.942 199.952C108.005 199.932 107.07 199.783 106.132 199.763C104.57 199.73 103.006 199.778 101.444 199.745C100.507 199.725 99.5722 199.577 98.6346 199.556C97.4128 199.53 96.1898 199.54 94.9669 199.545L94.0501 199.547C92.5221 199.547 90.9909 199.601 89.4661 199.531C88.1754 199.472 86.8938 199.215 85.6032 199.154C84.7754 199.115 83.937 199.341 83.1056 199.325C81.6224 199.296 80.1424 199.151 78.6597 199.097C77.7813 199.066 76.8981 199.158 76.0202 199.121C74.5429 199.06 73.0672 198.944 71.592 198.842C71.297 198.821 71.0058 198.728 70.7125 198.726C68.9088 198.715 67.104 198.742 65.3008 198.711C64.3632 198.694 63.4288 198.542 62.4912 198.522C60.8944 198.49 59.297 198.513 57.6997 198.513L54.4362 198.514C53.8928 198.514 53.3488 198.516 52.8048 198.518C52.6513 198.519 52.4981 198.586 52.3447 198.622L52.6302 198.766C52.6774 198.791 52.7243 198.816 52.7704 198.843C56.0747 200.746 59.073 203.042 61.6453 205.865C63.3669 207.754 64.9402 209.76 65.8821 212.172C66.3232 213.301 66.76 214.446 67.0298 215.623C67.1936 216.335 66.9648 217.129 67.0384 217.873C67.136 218.857 66.9546 219.777 66.6016 220.667C65.5136 223.414 63.6661 225.499 61.1573 227.068C59.4608 228.129 57.6837 228.96 55.7307 229.318C54.2059 229.598 52.647 229.746 51.0968 229.82C49.7137 229.887 48.3134 229.856 46.9364 229.714C45.7601 229.592 44.6112 229.225 43.4411 229.018C42.1889 228.797 40.9215 228.664 39.6695 228.442C38.8676 228.3 38.0879 228.035 37.287 227.884C35.6052 227.568 33.9108 227.317 32.2318 226.987C31.4075 226.825 30.6087 226.537 29.793 226.326L29.3792 226.218C29.1024 226.148 28.8236 226.084 28.5436 226.05L28.3333 226.03C27.6515 225.988 27.2468 225.404 27.5357 224.754C27.5495 224.722 27.7363 224.752 27.8359 224.778C28.6849 225.002 29.5303 225.239 30.3805 225.459L32.4545 225.994C33.1463 226.17 33.839 226.343 34.5337 226.507C36.2549 226.912 37.9785 227.311 39.7114 227.662C40.7532 227.873 41.8043 228.043 42.8571 228.195L44.3146 228.399C45.2788 228.534 46.2459 228.658 47.2137 228.682C48.5386 228.715 49.8673 228.547 51.1956 228.505C52.2176 228.472 53.2449 228.548 54.2635 228.481C54.9483 228.435 55.6522 228.305 56.2938 228.068C57.8314 227.499 59.3605 226.894 60.8496 226.21C62.6624 225.377 63.9957 223.905 65.2522 222.429C65.6928 221.912 65.7045 220.958 65.7205 220.2C65.7242 220.01 65.0064 219.723 64.5861 219.62C62.753 219.172 60.8938 218.824 59.0698 218.344C57.6208 217.962 56.2154 217.416 54.777 216.988C53.7136 216.672 52.6204 216.455 51.554 216.147C49.9517 215.685 48.9992 214.333 49.1238 212.775C49.1255 212.753 49.0534 212.721 49.0575 212.703C49.2985 211.655 48.8132 211.408 47.5384 211.656C46.4057 211.877 45.2266 211.853 44.0701 211.959C43.469 212.014 42.8651 212.082 42.2751 212.204C40.8503 212.5 39.4433 213.019 38.0096 213.099C36.4695 213.185 34.9082 212.824 33.6616 211.771C32.374 210.684 31.1315 209.544 29.8806 208.413C28.9486 207.572 28.0332 206.712 27.1146 205.855C26.9716 205.722 26.8507 205.564 26.7196 205.418C26.9751 205.413 27.3145 205.299 27.4726 205.42C28.5451 206.245 29.7018 207.01 30.5971 208.004L31.2589 208.74C32.3673 209.96 33.5294 211.103 35.1485 211.558C36.4336 211.92 37.8472 211.962 39.1961 211.919C40.4726 211.878 41.7505 211.59 43.0075 211.318C43.8 211.146 44.5907 210.907 45.3427 210.599L45.6228 210.48C47.0587 209.849 48.6924 209.958 49.8121 211.036L50.1943 211.424C50.5651 211.806 50.9318 212.259 50.8169 212.893L50.7947 212.994C50.7528 213.158 50.7723 213.353 50.6901 213.489L50.4832 213.837C50.1368 214.44 50.2096 214.529 50.9784 214.771L51.2302 214.849C52.822 215.336 54.4048 215.858 56.0128 216.285C57.7717 216.753 59.5648 217.092 61.3237 217.558C62.5674 217.887 63.7818 218.327 65.0048 218.731C65.5088 218.898 66.144 218.308 66.185 217.546C66.225 216.801 66.3317 216.018 66.161 215.312C65.9178 214.308 65.5893 213.273 65.0512 212.403C62.7637 208.704 60.1136 205.269 56.8698 202.358C54.8592 200.553 48.8034 197.21 44.0539 196.212C39.3044 195.214 31.8361 195.778 30.3805 196.625C28.9248 197.471 26.739 198.447 25.768 198.705C25.6842 198.727 25.4914 198.623 25.4669 198.541C25.19 197.626 25.8657 197.195 26.479 196.878C27.9262 196.129 29.4092 195.443 30.9073 194.801C32.882 193.954 35.0318 193.844 37.1196 193.609C38.2538 193.48 39.4594 193.921 40.6246 194.148C41.7751 194.372 42.9302 194.597 44.0539 194.923C44.6599 195.098 45.2066 195.481 45.7766 195.778C48.0404 196.955 50.2218 196.903 52.4006 195.491C53.0895 195.044 53.9845 194.93 54.7301 194.555C57.9941 192.914 61.2405 191.24 64.4874 189.568C67.6506 187.938 70.8069 186.295 73.9669 184.659C74.3685 184.451 74.784 184.267 75.1701 184.033C75.2336 183.994 75.2373 183.677 75.1653 183.621C73.6613 182.439 72.16 181.253 70.624 180.114C67.5434 177.828 64.3973 175.629 61.3685 173.278C59.7157 171.995 58.1578 170.56 56.7146 169.043C53.5365 165.704 50.5188 162.211 47.3198 158.893C44.5164 155.985 41.5826 153.2 38.6236 150.45C38.3001 150.149 37.1864 150.18 36.8538 150.495C35.2513 152.013 33.79 153.68 32.2819 155.297C32.1237 155.466 32.0001 155.669 31.8361 155.832C31.741 155.926 31.5973 155.972 31.4754 156.041C31.468 155.906 31.4318 155.765 31.4576 155.637C31.6561 154.652 31.6756 153.569 32.1274 152.716C32.5761 151.869 35.8674 148.437 37.5317 148.437C39.1961 148.437 54.0224 163.945 54.0224 163.945C56.2725 166.394 58.5418 168.824 60.912 171.15C64.5744 174.746 68.4907 178.078 72.7499 180.974C74.7461 182.332 76.9776 182.981 79.3701 182.762C80.512 182.657 81.6037 182.075 82.7477 181.889C83.8458 181.71 84.9824 181.772 86.1018 181.714C87.5184 181.642 88.8501 182.03 90.2085 182.361C91.848 182.76 93.4064 183.325 94.9333 184.03C98.7962 185.811 102.1 188.451 105.582 190.826C108.358 192.72 111.183 194.558 114.106 196.212C115.729 197.131 117.561 197.741 119.363 198.27C120.899 198.721 122.529 198.852 124.114 199.137C124.601 199.225 125.077 199.374 125.564 199.461L127.211 199.756C128.035 199.902 128.86 200.042 129.687 200.16C131.356 200.398 133.031 200.588 134.706 200.786C136.516 201.001 138.327 201.204 140.138 201.408C141.414 201.55 142.691 201.683 143.966 201.822C145.209 201.958 146.447 202.14 147.693 202.225C149.316 202.337 150.948 202.34 152.571 202.455C153.531 202.523 154.477 202.757 155.436 202.846C156.633 202.956 157.838 202.985 159.038 203.07C159.289 203.088 159.53 203.246 159.781 203.262C161.119 203.347 162.465 203.353 163.796 203.492C165.007 203.619 166.197 203.963 167.409 204.063C168.663 204.167 169.932 204.082 171.195 204.106C171.443 204.11 171.687 204.282 171.937 204.295C173.517 204.38 175.098 204.434 176.678 204.518C176.928 204.531 177.169 204.683 177.42 204.711C178.752 204.861 180.083 205.049 181.42 205.115C182.819 205.185 184.224 205.118 185.626 205.14C185.943 205.145 186.255 205.3 186.575 205.332C188.079 205.482 189.583 205.674 191.092 205.735C192.802 205.804 194.516 205.737 196.228 205.761C196.683 205.766 197.134 205.916 197.591 205.953L199.769 206.133C200.858 206.221 201.948 206.302 203.038 206.36C204.185 206.42 205.337 206.347 206.485 206.377C208.433 206.426 210.38 206.525 212.329 206.572C213.58 206.603 214.835 206.611 216.085 206.548C216.312 206.537 216.698 206.138 216.704 205.909C216.724 205.182 217.209 181.995 217.161 181.298C217.152 181.171 217.272 181.035 217.333 180.904C217.41 181.019 217.545 181.129 217.555 181.25C217.64 182.243 218.116 204.557 218.118 206.36C218.119 206.433 218.503 206.576 218.702 206.566C219.571 206.525 245.928 206.69 247.163 206.606C247.653 206.573 248.029 206.429 247.973 205.78C247.868 204.571 247.958 177.477 247.958 177.477C247.958 177.477 236.314 169.043 232.653 168.95ZM300.249 207.447C298.965 207.612 297.739 208.277 296.458 208.385C294.808 208.524 293.479 209.373 292.055 209.985C289.791 210.957 287.633 212.174 285.377 213.169C284.389 213.604 283.268 213.732 282.216 214.029C281.747 214.162 280.578 214.436 280.516 214.446L279.126 214.677C278.431 214.794 277.737 214.917 277.049 215.063C275.331 215.428 273.621 215.826 271.914 216.235C270.503 216.573 269.104 216.961 267.694 217.298L266.846 217.493C264.294 218.056 261.914 219.042 259.734 220.449C257.243 222.056 255.059 223.998 253.742 226.747C253.252 227.77 253.513 228.365 254.533 228.499C254.837 228.539 255.139 228.593 255.442 228.636C256.105 228.729 256.765 228.849 257.431 228.905C258.527 228.998 259.627 229.045 260.724 229.12C261.661 229.182 262.596 229.287 263.533 229.317C264.646 229.351 265.763 229.304 266.876 229.33C269.26 229.384 271.643 229.497 274.027 229.518C275.273 229.529 276.519 229.354 277.767 229.334C279.811 229.301 281.857 229.352 283.901 229.317C285.008 229.298 286.115 229.258 287.221 229.212L289.434 229.115C290.692 229.061 291.953 229.006 293.208 228.905C294.509 228.798 295.806 228.643 297.103 228.493C297.389 228.46 297.665 228.315 297.949 228.299C299.391 228.213 300.834 228.161 302.276 228.077C302.526 228.062 302.769 227.893 303.018 227.887C304.004 227.86 304.999 227.948 305.976 227.845C306.982 227.739 307.962 227.382 308.968 227.276C310.378 227.128 311.804 227.14 313.219 227.025C314.156 226.949 315.086 226.767 316.02 226.638C316.684 226.546 317.356 226.496 318.013 226.368C318.706 226.232 319.378 225.975 320.074 225.863C321.655 225.609 323.246 225.407 324.834 225.19C325.915 225.043 327.006 224.945 328.079 224.75C328.809 224.618 329.518 224.366 330.228 224.139C330.282 224.122 330.329 223.806 330.269 223.753C329.571 223.13 328.863 222.515 328.135 221.927C325.323 219.654 322.497 217.4 319.687 215.124C317.413 213.283 315.231 211.316 312.863 209.606C311.093 208.328 309.567 208.563 308.681 209.907L308.439 210.268C307.55 211.584 306.594 212.79 305.173 213.586C305.042 213.659 304.96 213.823 304.855 213.945C305.022 214.04 305.202 214.232 305.355 214.213C306.033 214.127 306.698 213.922 307.375 213.881C307.72 213.86 308.088 214.077 308.421 214.237C308.462 214.256 308.409 214.646 308.297 214.778C306.095 217.368 303.199 218.856 300.032 219.865C298.721 220.283 297.35 220.51 296.021 220.878C294.986 221.165 293.988 221.594 292.947 221.854C291.77 222.149 290.566 222.338 289.37 222.55C288.561 222.693 287.741 222.772 286.933 222.92C285.892 223.111 284.86 223.361 283.818 223.549C283.163 223.668 282.499 223.748 281.835 223.798C280.697 223.884 279.556 223.97 278.416 223.987C276.916 224.009 275.415 223.971 273.916 223.943C273.687 223.939 273.46 223.852 273.232 223.803C273.54 223.714 273.843 223.588 274.156 223.544C274.664 223.472 275.18 223.465 275.691 223.41C276.418 223.332 277.142 223.22 277.87 223.151C278.667 223.075 279.474 223.077 280.265 222.962C281.472 222.787 282.665 222.512 283.871 222.332C284.928 222.174 286.003 222.132 287.057 221.957C287.948 221.809 288.813 221.509 289.702 221.339C290.783 221.133 291.89 221.054 292.959 220.806C294.189 220.521 295.404 220.152 296.6 219.744C298.007 219.264 299.386 218.7 300.779 218.178C302.315 217.602 303.86 217.046 305.387 216.446C305.715 216.318 305.982 216.037 306.277 215.827C305.847 215.639 305.425 215.429 304.982 215.278C304.869 215.24 304.697 215.403 304.545 215.441C303.929 215.595 303.316 215.815 302.691 215.86C302.136 215.901 301.503 215.781 301.539 214.995C301.553 214.684 301.69 214.176 301.893 214.105C304.701 213.122 306.659 211.137 308.294 208.769C308.398 208.617 308.288 208.088 308.182 208.057C307.524 207.861 306.843 207.694 306.16 207.641C305.278 207.571 304.387 207.641 303.501 207.606C302.414 207.563 301.308 207.311 300.249 207.447ZM249.044 177.477L249.094 178.243C249.2 179.955 249.634 203.408 249.76 204.82C249.784 205.088 250.219 205.593 250.461 205.627C251.286 205.744 256.647 206.989 256.647 204.82C256.579 201.612 256.728 179.741 256.619 179.712C255.592 179.435 249.283 177.527 249.044 177.477ZM82.0997 183.172C79.8304 183.821 77.5781 184.588 75.4085 185.516C72.9189 186.58 70.5088 187.837 68.0976 189.076C65.281 190.522 62.5034 192.043 59.704 193.522C58.8853 193.955 58.0581 194.374 57.2187 194.764C55.8507 195.399 54.4682 196.002 53.0955 196.625C52.9693 196.682 52.8663 196.79 52.7525 196.875C52.8815 196.939 53.0054 197.043 53.1402 197.059L54.3221 197.21C55.1104 197.309 55.8992 197.403 56.6906 197.463C57.1344 197.498 57.5936 197.292 58.0432 197.302C59.3392 197.332 60.6341 197.411 61.9285 197.482C62.3946 197.508 62.8581 197.569 63.3232 197.606C64.5237 197.704 65.7237 197.829 66.9264 197.885C68.4042 197.953 69.8843 197.962 71.4672 198.1C72.7824 198.031 74.1002 197.876 75.4128 197.915C77.081 197.963 78.7429 198.218 80.4112 198.287C81.3429 198.326 82.2858 198.084 83.2186 198.116C85.8506 198.208 88.4789 198.448 91.1114 198.491C93.3893 198.529 95.6709 198.331 97.9509 198.316C102.637 198.285 107.323 198.294 112.01 198.316C113.084 198.321 114.157 198.451 115.232 198.504C115.357 198.51 115.489 198.385 115.617 198.321C115.532 198.247 115.457 198.16 115.363 198.102C112.42 196.307 109.473 194.519 106.531 192.722C104.03 191.195 101.578 189.582 99.0394 188.124L98.1898 187.643C95.4864 186.141 93.1205 183.976 89.9744 183.317C88.745 183.06 87.5115 182.656 86.2752 182.637C84.8827 182.616 83.4378 182.789 82.0997 183.172Z" fill="#00160A"/>
<path fill-rule="evenodd" clip-rule="evenodd" d="M104.502 170.441C106.089 168.234 107.537 166.009 109.179 163.938C111.81 160.622 114.547 157.39 117.284 154.161C118.618 152.587 120.029 151.077 121.447 149.578C123.423 147.489 125.338 145.328 127.459 143.396C130.878 140.281 134.428 137.308 137.954 134.31C141.942 130.919 146.325 128.076 150.813 125.414C153.254 123.967 155.839 122.756 158.402 121.528C160.242 120.644 162.145 119.888 164.034 119.111C165.89 118.348 167.744 117.569 169.638 116.91C171.131 116.392 172.673 116 174.213 115.634C175.843 115.246 177.493 114.937 179.141 114.627C180.458 114.379 181.782 114.156 183.109 113.968C184.377 113.789 185.651 113.641 186.927 113.53C188.148 113.424 189.374 113.321 190.598 113.33C192.534 113.344 194.47 113.51 196.405 113.503C197.811 113.498 199.19 113.496 200.603 113.654C202.01 113.811 203.427 113.978 204.841 114.097C206.263 114.217 207.643 114.432 209.035 114.734C210.303 115.01 211.653 114.923 212.916 115.217C214.721 115.638 216.473 116.281 218.257 116.793C220.109 117.324 221.996 117.741 223.825 118.341C225.091 118.755 226.27 119.429 227.513 119.923C228.836 120.449 230.231 120.81 231.517 121.409C233.076 122.135 234.558 123.028 236.066 123.863C240.015 126.051 243.835 128.437 247.38 131.244C248.5 132.131 249.6 133.043 250.705 133.949C250.864 134.08 251.053 134.215 251.134 134.391C251.276 134.7 251.345 135.043 251.445 135.371C251.181 135.224 250.884 135.114 250.658 134.922C247.239 132.014 243.464 129.612 239.657 127.269C237.892 126.182 236.016 125.273 234.173 124.316C233.195 123.808 232.199 123.321 231.178 122.91C228.946 122.012 226.697 121.161 224.449 120.306C222.811 119.684 221.179 119.036 219.516 118.49C217.669 117.883 215.803 117.328 213.92 116.846C212.277 116.427 210.609 116.088 208.934 115.816C207.876 115.644 206.779 115.716 205.714 115.572C204.845 115.454 204.008 115.081 203.139 114.994C202.092 114.89 201.026 114.985 199.969 114.96C199.652 114.953 199.338 114.776 199.021 114.772C197.217 114.753 195.413 114.784 193.609 114.753C192.81 114.74 192.011 114.557 191.214 114.573C190.286 114.592 189.363 114.768 188.435 114.832C187.397 114.903 186.354 114.899 185.318 114.978C184.553 115.037 183.788 115.148 183.033 115.285C181.941 115.483 180.86 115.746 179.767 115.94C178.942 116.087 178.096 116.125 177.275 116.292C176.266 116.497 175.267 116.761 174.276 117.044C173.057 117.392 171.852 117.796 170.636 118.158C169.581 118.473 168.485 118.677 167.466 119.079C164.187 120.37 160.889 121.628 157.683 123.085C153.024 125.203 148.609 127.789 144.402 130.702C141.758 132.532 139.205 134.495 136.646 136.445C131.521 140.353 126.997 144.92 122.545 149.548C120.27 151.912 118.19 154.469 116.1 157.003C113.974 159.581 111.898 162.203 109.887 164.872C107.881 167.536 105.932 170.246 104.052 173C102.392 175.429 100.863 177.948 99.2672 180.421C99.1947 180.533 99.0299 180.586 98.9083 180.667C98.9291 180.549 98.9227 180.417 98.9755 180.316C100.042 178.276 101.087 176.224 102.198 174.208C102.897 172.941 103.696 171.729 104.502 170.441Z" fill="#00160A"/>
<path fill-rule="evenodd" clip-rule="evenodd" d="M303.796 144.333C302.496 144.884 301.32 145.487 300.099 145.977C297.632 146.965 295.189 148.002 292.61 148.712C290.963 149.165 289.347 149.597 287.633 149.742C286.431 149.843 285.26 150.442 284.067 150.469C282.413 150.506 281.053 151.16 279.758 152.002C278.551 152.787 277.463 153.752 276.282 154.58C275.858 154.877 275.33 155.105 274.821 155.186C274.065 155.305 273.284 155.258 272.514 155.294C271.164 155.358 269.814 155.483 268.464 155.485C267.112 155.486 265.762 155.367 264.41 155.302C264.205 155.292 263.996 155.273 263.794 155.297C262.654 155.427 261.5 155.489 260.382 155.726C258.982 156.024 257.609 156.453 256.232 156.851C254.992 157.21 253.707 157.48 252.541 158.008C250.333 159.008 248.196 160.168 246.028 161.256C245.87 161.336 245.696 161.381 245.53 161.442C245.619 161.32 245.692 161.18 245.8 161.079C246.839 160.112 247.764 158.951 248.956 158.237C250.533 157.293 252.285 156.603 254.028 155.99C255.402 155.507 256.871 155.288 258.304 154.987C259.579 154.719 260.855 154.442 262.145 154.274C263.688 154.073 265.245 153.913 266.799 153.867C268.077 153.829 269.372 154.121 270.639 154.019C272.501 153.871 274.363 153.584 276.186 153.182C276.866 153.032 277.616 152.52 278.019 151.951C278.819 150.819 279.934 150.11 281.101 149.635C282.165 149.201 283.427 149.26 284.6 149.087C285.692 148.926 286.782 148.756 287.87 148.571C288.801 148.413 289.756 148.317 290.65 148.033C291.835 147.657 292.961 147.096 294.133 146.67C294.75 146.446 295.445 146.422 296.045 146.167C297.613 145.501 299.135 144.732 300.697 144.052C301.988 143.49 303.303 142.985 304.616 142.474C306.685 141.67 308.734 140.8 310.843 140.118C312.103 139.711 313.465 139.622 314.776 139.365C315.706 139.184 316.62 138.843 317.554 138.786C318.621 138.72 319.704 138.864 320.776 138.964C321.616 139.044 322.449 139.193 323.284 139.318C323.711 139.382 323.67 139.597 323.362 139.747C322.418 140.204 321.469 140.524 320.356 140.438C319.224 140.352 318.07 140.518 316.929 140.617C315.639 140.728 314.335 140.799 313.069 141.049C311.838 141.293 310.634 141.702 309.444 142.112C308.23 142.53 307.044 143.032 305.851 143.508C305.196 143.77 304.549 144.057 303.796 144.333Z" fill="#00160A"/>
<path fill-rule="evenodd" clip-rule="evenodd" d="M304.468 263.6C304.982 264.528 305.698 265.368 305.83 266.291C305.946 267.097 306.285 268.091 305.486 268.926C304.669 269.781 304.014 270.789 303.274 271.719C301.885 273.461 299.991 274.088 297.843 274.207C296.164 274.3 294.491 274.495 292.812 274.605C291.316 274.704 289.815 274.752 288.317 274.818C286.68 274.89 285.044 274.998 283.407 275.011C282.335 275.019 281.257 274.797 280.188 274.838C278.039 274.919 276.111 274.338 274.75 272.697C273.5 271.19 272.995 269.487 273.456 267.333C274.305 263.366 276.634 260.491 279.487 257.913C280.366 257.118 281.431 256.498 282.485 255.939C283.837 255.221 285.212 254.333 286.673 254.084C288.676 253.745 290.64 253.241 292.833 253.627C296.338 254.243 298.892 256.009 300.968 258.678C302.189 260.246 303.271 261.922 304.468 263.6ZM304.519 265.513C302.679 262.33 300.835 259.112 297.854 256.852C296.622 255.918 295.1 255.23 293.603 254.822C292.23 254.449 290.759 254.558 289.258 254.827C287.421 255.155 285.65 255.554 283.959 256.305C281.552 257.373 279.52 258.983 277.851 260.987C275.418 263.906 273.431 266.982 274.925 271.103C275.486 272.651 277.461 273.877 279.123 273.609C280.126 273.447 281.179 273.571 282.208 273.606C283.079 273.636 283.951 273.807 284.816 273.766C286.312 273.695 287.8 273.443 289.296 273.388C291.165 273.318 293.038 273.371 294.909 273.371C295.575 273.371 296.258 273.465 296.903 273.35C298.031 273.149 299.203 272.971 300.238 272.514C302.791 271.388 305.573 269.124 304.519 265.513Z" fill="#00160A"/>
<path fill-rule="evenodd" clip-rule="evenodd" d="M145.86 269.907C146.861 268.699 147.922 267.616 148.731 266.369C149.756 264.789 149.844 262.994 149.622 261.117C149.427 259.475 150.046 257.997 151.167 256.721C152.423 255.294 154.079 254.536 155.758 253.825C157.269 253.185 158.788 253.681 160.182 254.22C160.82 254.467 161.347 255.258 161.707 255.92C162.69 257.725 163.191 259.723 163.869 261.653C164.402 263.172 163.963 264.382 163.261 265.435C162.579 266.457 161.487 267.27 160.437 267.965C159.137 268.825 157.748 269.608 156.298 270.17C154.746 270.771 153.081 271.084 151.46 271.505C150.824 271.671 150.18 271.824 149.53 271.911C149.045 271.975 148.543 271.905 148.051 271.927C146.499 271.997 144.95 272.108 143.398 272.154C142.175 272.19 140.95 272.154 139.727 272.149C138.421 272.144 137.115 272.107 135.81 272.138C134.495 272.17 133.182 272.271 131.867 272.335C131.593 272.348 131.315 272.321 131.042 272.343C130.871 272.356 130.705 272.427 130.537 272.472C130.675 272.289 130.777 272.007 130.958 271.94C132.059 271.532 133.18 271.189 134.381 271.303C134.415 271.306 134.45 271.305 134.484 271.303C135.928 271.187 137.372 271.06 138.817 270.959C139.459 270.913 140.105 270.908 140.749 270.899C141.45 270.888 142.152 270.88 142.853 270.893C143.359 270.904 143.915 271.096 144.359 270.944C144.892 270.761 145.33 270.3 145.86 269.907ZM151.081 259.516C151.069 260.262 151.077 261.009 151.041 261.754C150.989 262.814 151.143 263.961 150.787 264.913C150.049 266.883 148.845 268.62 147.322 270.112C147.093 270.336 146.945 270.642 146.759 270.909C147.124 270.972 147.49 271.089 147.853 271.082C148.286 271.074 148.724 270.991 149.146 270.883C150.433 270.555 151.755 270.309 152.986 269.833C155.454 268.876 157.896 267.844 160.297 266.731C161.578 266.136 162.493 265.084 162.536 263.58C162.562 262.688 162.411 261.791 162.271 260.894C162.032 259.347 161.324 258.069 160.699 256.716C160.246 255.736 159.362 255.12 158.433 255.029C157.339 254.923 156.148 255.133 155.092 255.485C153.182 256.123 151.804 257.424 151.081 259.516Z" fill="#00160A"/>
<path fill-rule="evenodd" clip-rule="evenodd" d="M243.568 160.929C243.034 159.059 244.037 157.665 244.978 156.355C247.066 153.446 250.014 151.594 253.219 150.133C254.609 149.499 256.013 148.87 257.465 148.408C259.21 147.852 261.011 147.476 262.788 147.021C263.036 146.958 263.278 146.843 263.53 146.823C264.204 146.77 263.909 146.511 263.654 146.278C262.107 144.861 260.555 143.449 259.003 142.037C258.304 141.402 257.589 140.781 256.903 140.131C256.693 139.932 256.504 139.678 256.401 139.413C256.302 139.16 256.33 138.859 256.302 138.579C256.561 138.677 256.883 138.709 257.071 138.883C259.412 141.056 261.731 143.252 264.061 145.435C264.352 145.707 264.852 146.213 264.955 146.147C265.353 145.888 265.786 145.492 265.922 145.057C266.244 144.032 266.35 142.941 266.64 141.904C267.168 140.013 268.636 138.944 270.276 138.149C272.29 137.173 274.356 136.302 276.427 135.451C279.033 134.379 281.67 133.386 284.285 132.337C286.722 131.358 289.102 130.206 291.598 129.42C292.82 129.035 294.248 129.307 295.582 129.29C295.631 129.29 295.681 129.388 295.731 129.441C295.643 129.511 295.566 129.613 295.466 129.647C292.794 130.549 290.103 131.4 287.45 132.355C285.62 133.014 283.85 133.838 282.036 134.544C281.277 134.838 280.445 134.948 279.697 135.263C278.131 135.923 276.608 136.684 275.049 137.362C273.902 137.86 272.695 138.227 271.57 138.766C270.045 139.497 268.445 140.234 267.945 142.063C267.758 142.744 268.021 143.572 267.763 144.204C267.403 145.085 266.883 145.997 266.187 146.625C264.754 147.917 262.922 148.469 261.057 148.893C259.921 149.15 258.822 149.587 257.68 149.794C255.377 150.211 253.262 151.114 251.233 152.207C248.432 153.716 246.223 155.885 244.7 158.689C244.287 159.45 244.115 160.34 243.821 161.166C243.79 161.255 243.689 161.32 243.621 161.395C243.62 161.257 243.62 161.118 243.568 160.929Z" fill="#00160A"/>
<path fill-rule="evenodd" clip-rule="evenodd" d="M217.357 229.739C215.789 229.669 214.324 229.54 212.859 229.549C211.355 229.557 209.891 229.419 208.401 229.18C207.175 228.985 205.974 228.915 204.843 228.318C204.262 228.012 204.053 227.723 204.091 227.031C204.146 225.998 203.916 224.952 203.93 223.914C203.964 221.279 204.612 218.841 206.646 217.003C207.601 216.141 208.843 215.839 210.039 215.383C211.917 214.668 213.545 215.486 215.173 215.788C216.799 216.089 218.283 217.214 219.801 218.031C220.994 218.673 222.271 219.249 223.274 220.125C224.161 220.899 224.819 221.995 225.39 223.05C225.828 223.859 226.179 224.825 226.187 225.724C226.193 226.494 225.789 227.361 225.331 228.022C224.548 229.153 223.313 229.444 221.977 229.326C221.841 229.315 221.7 229.313 221.564 229.327C220.196 229.461 218.828 229.601 217.357 229.739ZM224.078 225.81C224.309 225.282 224.835 224.667 224.709 224.246C224.452 223.378 224.024 222.396 223.353 221.844C220.402 219.415 217.261 217.317 213.388 216.53C211.339 216.113 209.484 216.357 207.688 217.335C206.355 218.06 206.244 219.168 207.393 220.082C208.013 220.576 208.634 221.067 209.268 221.542C211.963 223.562 214.95 224.987 218.214 225.794C219.447 226.099 220.721 226.313 221.987 226.393C222.637 226.433 223.311 226.085 224.078 225.81ZM223.458 228.084C223.746 227.82 224.033 227.557 224.321 227.293C223.944 227.301 223.566 227.299 223.19 227.325C223.069 227.333 222.95 227.466 222.837 227.456C221.458 227.33 220.067 227.259 218.704 227.028C217.559 226.834 216.391 226.576 215.332 226.117C213.933 225.511 212.607 224.722 211.293 223.939C209.543 222.896 207.743 221.9 206.583 220.116C206.447 219.906 206.192 219.774 205.992 219.606C205.852 219.836 205.64 220.05 205.583 220.299C205.347 221.332 205.133 222.372 204.958 223.418C204.844 224.105 204.749 224.806 204.757 225.5C204.771 226.698 205.618 227.822 206.478 227.875C207.793 227.955 209.154 227.827 210.414 228.129C212.235 228.565 214.049 228.477 215.869 228.484C217.149 228.488 218.429 228.348 219.71 228.294C220.924 228.244 222.14 228.222 223.458 228.084Z" fill="#00160A"/>
<path fill-rule="evenodd" clip-rule="evenodd" d="M241.293 159.894C241.176 159.364 241.045 158.883 241.06 158.407C241.092 157.425 241.109 156.427 241.295 155.466C241.999 151.827 244.602 149.542 247.206 147.233C249.396 145.29 251.655 143.389 252.99 140.668C253.51 139.608 253.44 138.567 253.412 137.425C253.344 134.714 251.858 132.816 250.001 131.251C248.096 129.645 245.933 128.335 243.832 126.974C241.207 125.273 238.974 123.244 237.548 120.394C236.695 118.687 237.119 115.298 238.528 113.994C238.869 113.678 239.41 113.431 239.863 113.423C240.383 113.414 240.636 113.881 240.514 114.436C240.488 114.551 240.431 114.724 240.348 114.752C239.23 115.131 238.141 117.995 238.906 119.08C239.459 119.865 239.659 120.938 240.3 121.613C241.567 122.944 243.001 124.124 244.42 125.301C246.795 127.27 249.28 129.112 251.588 131.154C253.316 132.682 254.554 134.68 255.045 136.924C255.294 138.058 255.071 139.396 254.531 140.558C253.43 142.92 251.715 144.744 249.745 146.428C247.415 148.422 244.837 150.246 243.354 153.029C242.689 154.279 242.238 155.71 242.022 157.11C241.854 158.201 242.208 159.369 242.307 160.505C242.321 160.665 242.205 160.837 242.149 161.003C242.019 160.904 241.855 160.828 241.766 160.7C241.602 160.465 241.483 160.199 241.293 159.894Z" fill="#00160A"/>
<path fill-rule="evenodd" clip-rule="evenodd" d="M353.891 227.101C353.741 228.078 353.738 229.027 353.522 229.924C353.198 231.268 352.796 232.604 352.295 233.893C351.713 235.392 351.03 236.856 350.308 238.294C349.833 239.242 349.242 240.137 348.638 241.011C348.426 241.319 348.021 241.493 347.708 241.732C347.041 242.244 346.874 241.429 346.877 241.248C346.912 239.595 346.826 237.945 347.324 236.306C347.687 235.108 347.658 233.795 347.867 232.545C348.008 231.702 348.278 230.883 348.46 230.046C348.732 228.791 348.964 227.528 349.239 226.273C349.709 224.137 350.205 222.021 352.32 220.787C352.743 220.54 352.94 220.542 353.366 220.819C354.328 221.445 354.733 222.167 354.479 223.337C354.216 224.556 354.115 225.811 353.891 227.101ZM353.425 225.292C353.473 224.348 353.556 223.404 353.547 222.46C353.545 222.196 353.333 221.841 353.109 221.705C352.939 221.601 352.493 221.69 352.353 221.851C351.906 222.365 351.446 222.908 351.169 223.52C350.318 225.398 349.83 227.36 349.642 229.441C349.487 231.142 348.942 232.808 348.571 234.49C348.464 234.974 348.341 235.455 348.259 235.943C348.042 237.244 347.838 238.548 347.638 239.852C347.597 240.117 347.593 240.389 347.572 240.658C347.869 240.472 348.315 240.354 348.438 240.088C349.378 238.059 350.31 236.024 351.132 233.946C351.713 232.475 352.164 230.947 352.577 229.419C352.773 228.691 352.689 227.891 352.836 227.144C352.947 226.579 353.223 226.046 353.425 225.292Z" fill="#00160A"/>
<path fill-rule="evenodd" clip-rule="evenodd" d="M102.796 274.404C102.048 274.267 101.409 274.102 100.76 273.997C99.752 273.835 98.7253 273.772 97.7296 273.559C96.5226 273.301 95.3306 272.962 94.1493 272.602C93.081 272.276 92.0346 271.879 90.9824 271.501C90.945 271.488 90.9157 271.297 90.944 271.278C91.1776 271.115 91.4133 270.873 91.6709 270.842C93.7973 270.584 95.5936 271.811 97.5808 272.204C99.2357 272.532 100.854 273.049 102.513 273.346C103.633 273.546 104.798 273.49 105.939 273.585C106.469 273.629 106.991 273.756 107.516 273.852C108.882 274.103 110.24 274.412 111.615 274.595C112.749 274.745 113.909 274.688 115.043 274.838C115.909 274.953 116.757 275.229 117.604 275.466C119.249 275.927 120.888 276.41 122.528 276.888C122.63 276.917 122.725 276.976 122.822 277.021C122.729 277.045 122.633 277.096 122.542 277.089C121.556 277.005 120.567 276.943 119.586 276.815C118.43 276.664 117.283 276.444 116.128 276.274C115.515 276.184 114.896 276.13 114.279 276.066C112.923 275.924 111.56 275.832 110.214 275.631C109.04 275.456 107.893 275.104 106.719 274.933C105.53 274.76 104.323 274.717 103.124 274.603C103.044 274.596 102.974 274.473 102.796 274.404Z" fill="#00160A"/>
<path fill-rule="evenodd" clip-rule="evenodd" d="M232.874 174.009C234.63 173.386 238.402 176.261 237.177 179.209C235.762 182.614 231.374 181.965 230.21 180.493C228.023 177.73 229.533 175.195 232.874 174.009ZM230.834 176.652C228.633 178.757 232.323 181.218 233.96 180.668C238.3 179.209 235.554 172.135 230.834 176.652Z" fill="#00160A"/>
<path fill-rule="evenodd" clip-rule="evenodd" d="M354.201 231.961C355.257 230.026 356.108 228.029 357.963 226.764C358.186 226.612 358.633 226.421 358.719 226.507C358.957 226.743 359.192 227.116 359.195 227.436C359.219 230.429 357.271 232.662 356.103 235.19C355.487 236.523 354.607 237.736 353.835 238.996C353.681 239.247 353.49 239.483 353.282 239.693C353.088 239.889 352.683 240.213 352.656 240.187C352.331 239.871 351.919 239.537 351.81 239.132C351.701 238.728 351.858 238.222 351.987 237.787C352.449 236.233 352.925 234.682 353.448 233.147C353.588 232.737 353.91 232.389 354.201 231.961ZM353.115 236.148C352.977 236.906 352.835 237.664 352.703 238.423C352.67 238.61 352.668 238.803 352.652 238.994C352.841 238.829 353.096 238.702 353.209 238.496C354.664 235.832 356.129 233.171 357.521 230.473C357.903 229.731 358.064 228.873 358.29 228.058C358.32 227.949 358.157 227.695 358.039 227.66C357.907 227.62 357.634 227.706 357.574 227.818C356.11 230.554 354.666 233.3 353.115 236.148Z" fill="#00160A"/>
<path fill-rule="evenodd" clip-rule="evenodd" d="M240.705 164.508C240.705 161.396 247.443 163.893 248.013 164.795C248.156 165.021 248.449 173.596 247.948 172.39C247.413 171.041 247.783 165.601 247.198 165.227C245.303 164.291 243.012 163.808 242.111 164.126C240.555 164.491 242.212 171.082 241.23 169.965C241.174 169.771 241.122 169.574 241.058 169.381C240.987 169.164 240.705 166.017 240.705 164.508Z" fill="#00160A"/>
<path fill-rule="evenodd" clip-rule="evenodd" d="M269.882 152.812C269.422 152.732 268.931 152.772 268.732 152.55C267.782 151.49 266.909 150.361 266.015 149.251C265.873 149.075 265.762 148.873 265.637 148.682C266.062 148.621 266.647 148.355 266.882 148.538C267.507 149.026 268.041 149.665 268.501 150.32C269.055 151.109 269.496 151.978 269.882 152.812Z" fill="#00160A"/>
<path fill-rule="evenodd" clip-rule="evenodd" d="M244.654 165.101C244.677 164.836 245.332 165.425 245.349 165.636C245.443 166.822 245.9 172.051 245.475 171.5C245.234 170.991 245.013 169.577 244.908 169.019C244.802 168.46 244.654 166.848 244.654 165.101Z" fill="#00160A"/>
<path fill-rule="evenodd" clip-rule="evenodd" d="M254.86 189.642C254.846 190.842 254.887 192.041 254.86 193.241C254.844 193.949 252.942 194.231 252.105 193.808C251.266 193.384 251.528 190.132 251.481 189.642C251.334 188.105 251.274 186.554 251.039 185.031C250.884 184.028 250.782 182.82 251.259 182.666C252.995 182.105 254.537 184.266 254.461 184.342C254.66 185.897 254.862 189.471 254.86 189.642ZM252.305 186.208C252.374 186.489 252.462 191.388 252.582 193.135C252.603 193.426 253.723 193.426 253.966 192.918C254.198 191.518 253.712 186.514 253.723 184.843C253.724 184.575 253.387 184.194 253.11 184.057C252.199 183.607 252.036 183.734 252.105 184.744C252.134 185.165 252.236 185.582 252.305 186.208Z" fill="#00160A"/>
<path fill-rule="evenodd" clip-rule="evenodd" d="M193.934 214.601C194.209 214.494 194.517 214.631 194.623 214.906C194.73 215.181 194.593 215.49 194.318 215.596C182.105 220.314 182.105 229.549 194.528 243.789C205.636 256.522 226.408 268.301 256.838 279.098C257.116 279.196 257.261 279.501 257.163 279.779C257.065 280.057 256.759 280.202 256.482 280.103C225.894 269.25 204.977 257.389 193.724 244.49C180.881 229.769 180.881 219.643 193.934 214.601Z" fill="#E7EAEE"/>
<path d="M214.554 276.915C214.65 276.637 214.954 276.49 215.233 276.586C215.51 276.682 215.658 276.986 215.562 277.264C213.191 284.118 208.863 289.83 202.588 294.39C196.334 298.934 186.001 303.047 171.577 306.748C171.292 306.821 171.001 306.649 170.928 306.363C170.854 306.078 171.027 305.788 171.312 305.714L172.315 305.454C186.096 301.853 195.982 297.871 201.961 293.527C208.062 289.093 212.256 283.559 214.554 276.915Z" fill="#09EEE3"/>
<path fill-rule="evenodd" clip-rule="evenodd" d="M215.147 282.754C215.213 282.467 215.5 282.289 215.787 282.356C216.074 282.423 216.252 282.709 216.186 282.996C214.046 292.164 209.494 298.724 202.535 302.64C195.661 306.507 188.253 309.138 180.313 310.531C180.022 310.581 179.746 310.387 179.695 310.097C179.644 309.807 179.838 309.531 180.128 309.48C187.95 308.108 195.244 305.518 202.013 301.71C208.697 297.949 213.073 291.643 215.147 282.754Z" fill="#E7EAEE"/>
<path fill-rule="evenodd" clip-rule="evenodd" d="M248.525 282.215C248.594 281.929 248.882 281.752 249.169 281.821C259.704 284.358 269.029 285.774 277.145 286.071L277.754 286.091C285.86 286.336 297.57 285.689 312.876 284.148C313.169 284.118 313.431 284.332 313.46 284.625C313.49 284.918 313.276 285.18 312.983 285.209L310.679 285.437C296.074 286.855 284.885 287.422 277.106 287.137C268.914 286.837 259.519 285.411 248.919 282.858C248.633 282.789 248.457 282.501 248.525 282.215Z" fill="#E7EAEE"/>
<path fill-rule="evenodd" clip-rule="evenodd" d="M170.582 219.493C170.823 219.324 171.155 219.381 171.325 219.622C171.494 219.863 171.436 220.196 171.195 220.365C168.231 222.449 166.676 224.555 166.479 226.669C166.28 228.809 167.476 231.759 170.102 235.484C170.271 235.724 170.214 236.057 169.973 236.227C169.733 236.397 169.4 236.339 169.23 236.098C166.471 232.186 165.189 229.022 165.417 226.57C165.647 224.093 167.386 221.739 170.582 219.493Z" fill="#00160A"/>
<path fill-rule="evenodd" clip-rule="evenodd" d="M171.73 221.941C171.9 221.822 172.136 221.863 172.255 222.033C172.375 222.204 172.334 222.439 172.164 222.559C170.067 224.033 168.966 225.523 168.827 227.019C168.686 228.533 169.533 230.62 171.39 233.255C171.511 233.425 171.47 233.66 171.3 233.781C171.13 233.901 170.894 233.86 170.774 233.69C168.822 230.922 167.915 228.683 168.076 226.949C168.239 225.196 169.469 223.531 171.73 221.941Z" fill="#00160A"/>
</svg>
