<svg width="40" height="40" viewBox="0 0 40 40" fill="none" xmlns="http://www.w3.org/2000/svg">
<rect width="40" height="40" rx="20" fill="#E4DEC5"/>
<path d="M13 10.9C13 10.7143 13.0738 10.5363 13.205 10.405C13.3363 10.2738 13.5144 10.2 13.7 10.2H17.9C18.0857 10.2 18.2637 10.2738 18.395 10.405C18.5263 10.5363 18.6 10.7143 18.6 10.9V15.1C18.6 15.2857 18.5263 15.4637 18.395 15.595C18.2637 15.7263 18.0857 15.8 17.9 15.8H13.7C13.5144 15.8 13.3363 15.7263 13.205 15.595C13.0738 15.4637 13 15.2857 13 15.1V10.9ZM22.1 10.2C21.9144 10.2 21.7363 10.2738 21.605 10.405C21.4738 10.5363 21.4 10.7143 21.4 10.9V15.1C21.4 15.2857 21.4738 15.4637 21.605 15.595C21.7363 15.7263 21.9144 15.8 22.1 15.8H26.3C26.4857 15.8 26.6637 15.7263 26.795 15.595C26.9263 15.4637 27 15.2857 27 15.1V10.9C27 10.7143 26.9263 10.5363 26.795 10.405C26.6637 10.2738 26.4857 10.2 26.3 10.2H22.1ZM22.8 14.4V11.6H25.6V14.4H22.8ZM14.4 24.2C14.7713 24.2 15.1274 24.0525 15.39 23.79C15.6525 23.5274 15.8 23.1713 15.8 22.8C15.8 22.4287 15.6525 22.0726 15.39 21.8101C15.1274 21.5475 14.7713 21.4 14.4 21.4C14.0287 21.4 13.6726 21.5475 13.4101 21.8101C13.1475 22.0726 13 22.4287 13 22.8C13 23.1713 13.1475 23.5274 13.4101 23.79C13.6726 24.0525 14.0287 24.2 14.4 24.2ZM21.4 22.8C21.4 23.1713 21.2525 23.5274 20.99 23.79C20.7274 24.0525 20.3713 24.2 20 24.2C19.6287 24.2 19.2726 24.0525 19.0101 23.79C18.7475 23.5274 18.6 23.1713 18.6 22.8C18.6 22.4287 18.7475 22.0726 19.0101 21.8101C19.2726 21.5475 19.6287 21.4 20 21.4C20.3713 21.4 20.7274 21.5475 20.99 21.8101C21.2525 22.0726 21.4 22.4287 21.4 22.8ZM25.6 24.2C25.9713 24.2 26.3274 24.0525 26.59 23.79C26.8525 23.5274 27 23.1713 27 22.8C27 22.4287 26.8525 22.0726 26.59 21.8101C26.3274 21.5475 25.9713 21.4 25.6 21.4C25.2287 21.4 24.8726 21.5475 24.6101 21.8101C24.3475 22.0726 24.2 22.4287 24.2 22.8C24.2 23.1713 24.3475 23.5274 24.6101 23.79C24.8726 24.0525 25.2287 24.2 25.6 24.2ZM8.8 22.8C8.8 21.3148 9.39 19.8904 10.4402 18.8402C11.4904 17.79 12.9148 17.2 14.4 17.2H25.6C27.0852 17.2 28.5096 17.79 29.5598 18.8402C30.61 19.8904 31.2 21.3148 31.2 22.8C31.2 24.2852 30.61 25.7096 29.5598 26.7598C28.5096 27.81 27.0852 28.4 25.6 28.4H14.4C12.9148 28.4 11.4904 27.81 10.4402 26.7598C9.39 25.7096 8.8 24.2852 8.8 22.8ZM14.4 18.6C13.2861 18.6 12.2178 19.0425 11.4302 19.8302C10.6425 20.6178 10.2 21.6861 10.2 22.8C10.2 23.9139 10.6425 24.9822 11.4302 25.7699C12.2178 26.5575 13.2861 27 14.4 27H25.6C26.7139 27 27.7822 26.5575 28.5699 25.7699C29.3575 24.9822 29.8 23.9139 29.8 22.8C29.8 21.6861 29.3575 20.6178 28.5699 19.8302C27.7822 19.0425 26.7139 18.6 25.6 18.6H14.4Z" fill="black"/>
</svg>
