<svg width="40" height="40" viewBox="0 0 40 40" fill="none" xmlns="http://www.w3.org/2000/svg">
<rect width="40" height="40" rx="20" fill="#E4DEC5"/>
<path d="M18.8333 15.9167L17.4333 16.5L8.744 20.4503C8.62162 20.5059 8.51782 20.5955 8.445 20.7085C8.37218 20.8214 8.33341 20.9529 8.33334 21.0873V21.246C8.33341 21.3804 8.37218 21.5119 8.445 21.6249C8.51782 21.7378 8.62162 21.8275 8.744 21.883L19.034 26.5613C19.3374 26.6993 19.6667 26.7707 20 26.7707C20.3333 26.7707 20.6626 26.6993 20.966 26.5613L31.256 21.883C31.3784 21.8275 31.4822 21.7378 31.555 21.6249C31.6278 21.5119 31.6666 21.3804 31.6667 21.246V21.0873C31.6666 20.9529 31.6278 20.8214 31.555 20.7085C31.4822 20.5955 31.3784 20.5059 31.256 20.4503L22.5667 16.5L21.1667 15.9167" stroke="black" stroke-width="1.5"/>
<path d="M31.6667 21.1667V25.964C31.6666 26.0989 31.6276 26.2308 31.5543 26.344C31.4811 26.4572 31.3767 26.5469 31.2537 26.6022L20.9578 31.2362C20.6567 31.3717 20.3302 31.4418 20 31.4418C19.6698 31.4418 19.3433 31.3717 19.0422 31.2362L8.74634 26.6022C8.62334 26.5469 8.51893 26.4572 8.44567 26.344C8.3724 26.2308 8.33339 26.0989 8.33334 25.964V21.1667" stroke="black" stroke-width="1.5"/>
<path d="M20 15.3333C19.0717 15.3333 18.1815 14.9646 17.5251 14.3082C16.8687 13.6518 16.5 12.7616 16.5 11.8333C16.5 10.9051 16.8687 10.0148 17.5251 9.35846C18.1815 8.70208 19.0717 8.33334 20 8.33334C20.9283 8.33334 21.8185 8.70208 22.4749 9.35846C23.1313 10.0148 23.5 10.9051 23.5 11.8333C23.5 12.7616 23.1313 13.6518 22.4749 14.3082C21.8185 14.9646 20.9283 15.3333 20 15.3333Z" stroke="black" stroke-width="1.5" stroke-linecap="round" stroke-linejoin="round"/>
<path d="M18.8333 15.3333V21.1667C18.8333 21.4761 18.9563 21.7728 19.175 21.9916C19.3938 22.2104 19.6906 22.3333 20 22.3333C20.3094 22.3333 20.6062 22.2104 20.825 21.9916C21.0438 21.7728 21.1667 21.4761 21.1667 21.1667V15.3333" stroke="black" stroke-width="1.5"/>
<path d="M24.6667 21.1667H25.8333" stroke="black" stroke-width="1.5" stroke-linecap="round" stroke-linejoin="round"/>
</svg>
